<svg xmlns="http://www.w3.org/2000/svg" xmlns:xlink="http://www.w3.org/1999/xlink" width="123" height="123" viewBox="0 0 123 123">
  <defs>
    <filter id="Trazado_982547" x="0" y="0" width="123" height="123" filterUnits="userSpaceOnUse">
      <feOffset dy="3" input="SourceAlpha"/>
      <feGaussianBlur stdDeviation="3" result="blur"/>
      <feFlood flood-opacity="0.161"/>
      <feComposite operator="in" in2="blur"/>
      <feComposite in="SourceGraphic"/>
    </filter>
  </defs>
  <g id="Grupo_1223344" data-name="Grupo 1223344" transform="translate(-266.125 -2441.026)">
    <g id="Grupo_1223279" data-name="Grupo 1223279" transform="translate(275.125 2447.026)">
      <g id="Grupo_1211203" data-name="Grupo 1211203" transform="translate(0 0)">
        <g id="Grupo_1210937" data-name="Grupo 1210937" transform="translate(0 0)">
          <g id="Grupo_1174742" data-name="Grupo 1174742">
            <g id="Grupo_1163948" data-name="Grupo 1163948">
              <g id="Grupo_1158168" data-name="Grupo 1158168">
                <g id="Grupo_1152576" data-name="Grupo 1152576">
                  <g id="Grupo_1148633" data-name="Grupo 1148633">
                    <g id="Grupo_1148525" data-name="Grupo 1148525">
                      <g transform="matrix(1, 0, 0, 1, -9, -6)" filter="url(#Trazado_982547)">
                        <g id="Trazado_982547-2" data-name="Trazado 982547" transform="translate(9 6)" fill="#fdf6e4">
                          <path d="M 52.49996948242188 103.4999389648438 C 45.61435699462891 103.4999389648438 38.93551254272461 102.1517105102539 32.64894104003906 99.49272918701172 C 26.57608413696289 96.92412567138672 21.12178421020508 93.24662780761719 16.43754005432129 88.56240081787109 C 11.75331211090088 83.87815856933594 8.075812339782715 78.42385864257812 5.507212162017822 72.35099792480469 C 2.848226547241211 66.06443023681641 1.499998092651367 59.38558197021484 1.499998092651367 52.49996948242188 C 1.499998092651367 45.61435699462891 2.848226547241211 38.93551254272461 5.507212162017822 32.64894104003906 C 8.075812339782715 26.57608413696289 11.75331211090088 21.12178421020508 16.43754005432129 16.43754005432129 C 21.12178421020508 11.75331211090088 26.57608413696289 8.075812339782715 32.64894104003906 5.507212162017822 C 38.93551254272461 2.848226547241211 45.61435699462891 1.499998092651367 52.49996948242188 1.499998092651367 C 59.38558197021484 1.499998092651367 66.06443023681641 2.848226547241211 72.35099792480469 5.507212162017822 C 78.42385864257812 8.075812339782715 83.87815856933594 11.75331211090088 88.56240081787109 16.43754005432129 C 93.24662780761719 21.12178421020508 96.92412567138672 26.57608413696289 99.49272918701172 32.64894104003906 C 102.1517105102539 38.93551254272461 103.4999389648438 45.61435699462891 103.4999389648438 52.49996948242188 C 103.4999389648438 59.38558197021484 102.1517105102539 66.06443023681641 99.49272918701172 72.35099792480469 C 96.92412567138672 78.42385864257812 93.24662780761719 83.87815856933594 88.56240081787109 88.56240081787109 C 83.87815856933594 93.24662780761719 78.42385864257812 96.92412567138672 72.35099792480469 99.49272918701172 C 66.06443023681641 102.1517105102539 59.38558197021484 103.4999389648438 52.49996948242188 103.4999389648438 Z" stroke="none"/>
                          <path d="M 52.49996948242188 3 C 45.81618499755859 3 39.33393859863281 4.308349609375 33.23326873779297 6.888717651367188 C 27.33920288085938 9.381706237792969 22.045166015625 12.95125579833984 17.49819946289062 17.49819946289062 C 12.95125579833984 22.045166015625 9.381706237792969 27.33920288085938 6.888717651367188 33.23326873779297 C 4.308349609375 39.33393859863281 3 45.81618499755859 3 52.49996948242188 C 3 59.18375396728516 4.308349609375 65.66600036621094 6.888717651367188 71.76667022705078 C 9.381706237792969 77.66073608398438 12.95125579833984 82.95477294921875 17.49819946289062 87.50173950195312 C 22.045166015625 92.04868316650391 27.33920288085938 95.61824035644531 33.23326873779297 98.11122131347656 C 39.33393859863281 100.6915893554688 45.81618499755859 101.9999389648438 52.49996948242188 101.9999389648438 C 59.18375396728516 101.9999389648438 65.66600036621094 100.6915893554688 71.76667022705078 98.11122131347656 C 77.66073608398438 95.61824035644531 82.95477294921875 92.04868316650391 87.50173950195312 87.50173950195312 C 92.04868316650391 82.95477294921875 95.61824035644531 77.66073608398438 98.11122131347656 71.76667022705078 C 100.6915893554688 65.66600036621094 101.9999389648438 59.18375396728516 101.9999389648438 52.49996948242188 C 101.9999389648438 45.81618499755859 100.6915893554688 39.33393859863281 98.11122131347656 33.23326873779297 C 95.61824035644531 27.33920288085938 92.04868316650391 22.045166015625 87.50173950195312 17.49819946289062 C 82.95477294921875 12.95125579833984 77.66073608398438 9.381706237792969 71.76667022705078 6.888717651367188 C 65.66600036621094 4.308349609375 59.18375396728516 3 52.49996948242188 3 M 52.49996948242188 0 C 81.49490356445312 0 104.9999389648438 23.50503540039062 104.9999389648438 52.49996948242188 C 104.9999389648438 81.49490356445312 81.49490356445312 104.9999389648438 52.49996948242188 104.9999389648438 C 23.50503540039062 104.9999389648438 0 81.49490356445312 0 52.49996948242188 C 0 23.50503540039062 23.50503540039062 0 52.49996948242188 0 Z" stroke="none" fill="#f5b104"/>
                        </g>
                      </g>
                    </g>
                  </g>
                </g>
              </g>
            </g>
          </g>
        </g>
      </g>
    </g>
    <g id="presentation_1681497" transform="translate(296.888 2468.87)">
      <path id="Trazado_1057905" data-name="Trazado 1057905" d="M74.114,8.16a2.1,2.1,0,1,1,0,4.2H17.42a2.1,2.1,0,0,1,0-4.2Zm0,0" transform="translate(-13.31 -6.95)" fill="#898890"/>
      <path id="Trazado_1057906" data-name="Trazado 1057906" d="M39.32,40.16v44.1l.073.063a13.648,13.648,0,0,1,.977-1.061v-.01a10.528,10.528,0,0,1,7.349-3.192,6.316,6.316,0,0,1-5.68-7.38,6.455,6.455,0,0,1,1.386-3.118H42.47V43.31h31.5V69.557H52.013A6.455,6.455,0,0,1,53.4,72.675a6.115,6.115,0,0,1,.094,1.081A6.618,6.618,0,0,1,52.213,77.7a5.594,5.594,0,0,1-4.493,2.352,10.529,10.529,0,0,1,7.349,3.192v.01a17.06,17.06,0,0,1,4.252,7.3H93.915V40.16ZM65.568,87.405h-4.2v-8.4h4.2Zm0,0" transform="translate(-34.16 -34.751)" fill="#57a4ff"/>
      <path id="Trazado_1057907" data-name="Trazado 1057907" d="M353.819,69.409a5.249,5.249,0,1,1-5.249-5.249A5.25,5.25,0,0,1,353.819,69.409Zm0,0" transform="translate(-298.264 -55.601)" fill="#cd2a00"/>
      <path id="Trazado_1057908" data-name="Trazado 1057908" d="M353.819,173.409a5.249,5.249,0,1,1-5.249-5.249A5.25,5.25,0,0,1,353.819,173.409Zm0,0" transform="translate(-298.264 -145.952)" fill="#cd2a00"/>
      <path id="Trazado_1057909" data-name="Trazado 1057909" d="M335.32,288.16h4.2v14.7h-4.2Zm0,0" transform="translate(-291.314 -250.204)" fill="#d8d7da"/>
      <path id="Trazado_1057910" data-name="Trazado 1057910" d="M271.32,312.16h4.2v11.549h-4.2Zm0,0" transform="translate(-235.713 -271.054)" fill="#d8d7da"/>
      <path id="Trazado_1057911" data-name="Trazado 1057911" d="M94.817,80.16v24.147H72.863a5.44,5.44,0,0,0-8.588,0H63.32V99.058H68.57l5.249-7.349h4.2l3.15-7.349h6.3l5.249-4.2Zm0,0" transform="translate(-55.011 -69.501)" fill="#ffeb99"/>
      <path id="Trazado_1057912" data-name="Trazado 1057912" d="M94.817,64.16v2.1h-2.1l-5.249,4.2h-6.3l-3.15,7.349h-4.2l-5.249,7.349H63.32v-21Zm0,0" transform="translate(-55.011 -55.601)" fill="#ffeb99"/>
      <path id="Trazado_1057913" data-name="Trazado 1057913" d="M207.32,336.16h4.2v8.4h-4.2Zm0,0" transform="translate(-180.113 -291.905)" fill="#d8d7da"/>
      <path id="Trazado_1057914" data-name="Trazado 1057914" d="M32.143,354.659a21.216,21.216,0,0,1,.515,2.1,21.944,21.944,0,0,1,.389,4.2H8.038a21.944,21.944,0,0,1,.389-4.2,18.553,18.553,0,0,1,3.79-8.336,13.653,13.653,0,0,1,.977-1.061v-.01a10.528,10.528,0,0,1,7.349-3.192,10.529,10.529,0,0,1,7.349,3.192v.01a17.06,17.06,0,0,1,4.252,7.3Zm0,0" transform="translate(-6.983 -298.855)" fill="#ffdaaa"/>
      <path id="Trazado_1057915" data-name="Trazado 1057915" d="M60.8,250.26a5.44,5.44,0,0,1,8.588,0,6.455,6.455,0,0,1,1.386,3.118,6.115,6.115,0,0,1,.094,1.081,6.618,6.618,0,0,1-1.281,3.947,5.594,5.594,0,0,1-4.493,2.352,6.316,6.316,0,0,1-5.68-7.38A6.455,6.455,0,0,1,60.8,250.26Zm0,0" transform="translate(-51.535 -215.454)" fill="#ffdaaa"/>
      <path id="Trazado_1057916" data-name="Trazado 1057916" d="M60.8.16H4.11a3.15,3.15,0,1,0,0,6.3V49.306a19.681,19.681,0,0,0-3.7,8.4A23.229,23.229,0,0,0,0,62.1a1.05,1.05,0,0,0,1.05,1.05H26.068a1.05,1.05,0,0,0,1.05-1.05,23.166,23.166,0,0,0-.415-4.4c-.055-.289-.127-.569-.192-.854h4.9v4.2h-1.05v2.1h4.2v-2.1h-1.05v-4.2H59.754A1.05,1.05,0,0,0,60.8,55.8V6.459a3.15,3.15,0,1,0,0-6.3ZM2.124,61.053A20.87,20.87,0,0,1,2.477,58.1a16.734,16.734,0,0,1,4.468-8.841,1.1,1.1,0,0,0,.077-.085,9.429,9.429,0,0,1,6.537-2.819A9.431,9.431,0,0,1,20.1,49.172c.025.03.051.058.079.087A16.74,16.74,0,0,1,24.642,58.1a20.834,20.834,0,0,1,.352,2.95Zm6.71-22.048a5.121,5.121,0,0,1,.082-.92,4.867,4.867,0,0,1,4.642-4.33,4.876,4.876,0,0,1,4.647,4.354,5.044,5.044,0,0,1,.078.9,5.553,5.553,0,0,1-1.076,3.325,4.528,4.528,0,0,1-3.648,1.924,5.013,5.013,0,0,1-4.724-5.249Zm9.506-5.249a6.475,6.475,0,0,0-8.981-.546v-2.6h4.2a1.05,1.05,0,0,0,.855-.44l4.936-6.909h3.659a1.05,1.05,0,0,0,.965-.636l2.877-6.713h5.607a1.049,1.049,0,0,0,.656-.23l5.249-4.2L37.05,9.839l-4.962,3.97H26.158a1.05,1.05,0,0,0-.965.636l-2.877,6.713H18.808a1.05,1.05,0,0,0-.855.44l-4.936,6.909H9.359V9.609h29.4V33.756Zm40.364,21H25.919a17.866,17.866,0,0,0-4.192-6.913.918.918,0,0,0-.087-.1,12.591,12.591,0,0,0-4.166-2.729A7.085,7.085,0,0,0,18.9,43.577a7.635,7.635,0,0,0,1.486-4.571,7.078,7.078,0,0,0-.105-1.244,7.767,7.767,0,0,0-.554-1.905H39.806a1.05,1.05,0,0,0,1.05-1.05V8.559a1.05,1.05,0,0,0-1.05-1.05H8.309a1.05,1.05,0,0,0-1.05,1.05V34.806a1.043,1.043,0,0,0,.291.718,7.62,7.62,0,0,0-.7,2.213,7.209,7.209,0,0,0-.111,1.268,7.517,7.517,0,0,0,2.908,6.009A12.27,12.27,0,0,0,6.21,47.09V6.459H58.7ZM60.8,4.359H4.11a1.05,1.05,0,1,1,0-2.1H60.8a1.05,1.05,0,1,1,0,2.1Zm0,0"/>
      <path id="Trazado_1057917" data-name="Trazado 1057917" d="M215.334,144.448a1.023,1.023,0,0,0-1.478-.006l-4.2,4.2,1.485,1.485,2.408-2.408v9.014h2.1v-9.014l2.407,2.407,1.485-1.485-4.2-4.2Zm0,0" transform="translate(-182.142 -125.075)"/>
      <path id="Trazado_1057918" data-name="Trazado 1057918" d="M92.263,82.5l-1.485,1.485L93.185,86.4H87.321v2.1h5.865L90.778,90.9l1.485,1.485,4.2-4.2-.007-.007a1.023,1.023,0,0,0,.006-1.478Zm0,0" transform="translate(-75.862 -71.538)"/>
      <path id="Trazado_1057919" data-name="Trazado 1057919" d="M341.619,68.759a6.3,6.3,0,1,0-6.3-6.3A6.3,6.3,0,0,0,341.619,68.759Zm0-10.5a4.2,4.2,0,0,1,4.05,3.15h-4.05v2.1h4.05a4.192,4.192,0,1,1-4.05-5.249Zm0,0" transform="translate(-291.314 -48.651)"/>
      <path id="Trazado_1057920" data-name="Trazado 1057920" d="M341.619,172.759a6.3,6.3,0,1,0-6.3-6.3A6.3,6.3,0,0,0,341.619,172.759Zm0-10.5a4.2,4.2,0,1,1-4.05,5.249h4.05v-2.1h-4.05A4.2,4.2,0,0,1,341.619,162.26Zm0,0" transform="translate(-291.314 -139.002)"/>
      <path id="Trazado_1057921" data-name="Trazado 1057921" d="M204.569,328.16h-4.2a1.05,1.05,0,0,0-1.05,1.05v8.4a1.05,1.05,0,0,0,1.05,1.05h4.2a1.05,1.05,0,0,0,1.05-1.05v-8.4A1.05,1.05,0,0,0,204.569,328.16Zm-1.05,8.4h-2.1v-6.3h2.1Zm0,0" transform="translate(-173.162 -284.955)"/>
      <path id="Trazado_1057922" data-name="Trazado 1057922" d="M268.569,304.16h-4.2a1.05,1.05,0,0,0-1.05,1.05v11.549a1.05,1.05,0,0,0,1.05,1.05h4.2a1.05,1.05,0,0,0,1.05-1.05V305.21A1.05,1.05,0,0,0,268.569,304.16Zm-1.05,11.549h-2.1V306.26h2.1Zm0,0" transform="translate(-228.763 -264.104)"/>
      <path id="Trazado_1057923" data-name="Trazado 1057923" d="M328.37,296.958h4.2a1.05,1.05,0,0,0,1.05-1.05v-14.7a1.05,1.05,0,0,0-1.05-1.05h-4.2a1.05,1.05,0,0,0-1.05,1.05v14.7A1.05,1.05,0,0,0,328.37,296.958Zm1.05-14.7h2.1v12.6h-2.1Zm0,0" transform="translate(-284.364 -243.254)"/>
      <path id="Trazado_1057924" data-name="Trazado 1057924" d="M391.32,296.16h5.249v2.1H391.32Zm0,0" transform="translate(-339.965 -257.154)"/>
      <path id="Trazado_1057925" data-name="Trazado 1057925" d="M391.32,272.16h5.249v2.1H391.32Zm0,0" transform="translate(-339.965 -236.304)"/>
      <path id="Trazado_1057926" data-name="Trazado 1057926" d="M391.32,320.16h5.249v2.1H391.32Zm0,0" transform="translate(-339.965 -278.005)"/>
      <path id="Trazado_1057927" data-name="Trazado 1057927" d="M391.32,344.16h5.249v2.1H391.32Zm0,0" transform="translate(-339.965 -298.855)"/>
      <path id="Trazado_1057928" data-name="Trazado 1057928" d="M391.32,368.16h5.249v2.1H391.32Zm0,0" transform="translate(-339.965 -319.705)"/>
      <path id="Trazado_1057929" data-name="Trazado 1057929" d="M391.32,392.16h5.249v2.1H391.32Zm0,0" transform="translate(-339.965 -340.556)"/>
    </g>
  </g>
</svg>
