<svg xmlns="http://www.w3.org/2000/svg" xmlns:xlink="http://www.w3.org/1999/xlink" width="123" height="123" viewBox="0 0 123 123">
  <defs>
    <filter id="Trazado_982547" x="0" y="0" width="123" height="123" filterUnits="userSpaceOnUse">
      <feOffset dy="3" input="SourceAlpha"/>
      <feGaussianBlur stdDeviation="3" result="blur"/>
      <feFlood flood-opacity="0.161"/>
      <feComposite operator="in" in2="blur"/>
      <feComposite in="SourceGraphic"/>
    </filter>
  </defs>
  <g id="Grupo_1223348" data-name="Grupo 1223348" transform="translate(-896.125 -2441.026)">
    <g id="Grupo_1223281" data-name="Grupo 1223281" transform="translate(905.125 2447.026)">
      <g id="Grupo_1211203" data-name="Grupo 1211203" transform="translate(0 0)">
        <g id="Grupo_1210937" data-name="Grupo 1210937" transform="translate(0 0)">
          <g id="Grupo_1174742" data-name="Grupo 1174742">
            <g id="Grupo_1163948" data-name="Grupo 1163948">
              <g id="Grupo_1158168" data-name="Grupo 1158168">
                <g id="Grupo_1152576" data-name="Grupo 1152576">
                  <g id="Grupo_1148633" data-name="Grupo 1148633">
                    <g id="Grupo_1148525" data-name="Grupo 1148525">
                      <g transform="matrix(1, 0, 0, 1, -9, -6)" filter="url(#Trazado_982547)">
                        <g id="Trazado_982547-2" data-name="Trazado 982547" transform="translate(9 6)" fill="#fdf6e4">
                          <path d="M 52.49996948242188 103.4999389648438 C 45.61435699462891 103.4999389648438 38.93551254272461 102.1517105102539 32.64894104003906 99.49272918701172 C 26.57608413696289 96.92412567138672 21.12178421020508 93.24662780761719 16.43754005432129 88.56240081787109 C 11.75331211090088 83.87815856933594 8.075812339782715 78.42385864257812 5.507212162017822 72.35099792480469 C 2.848226547241211 66.06443023681641 1.499998092651367 59.38558197021484 1.499998092651367 52.49996948242188 C 1.499998092651367 45.61435699462891 2.848226547241211 38.93551254272461 5.507212162017822 32.64894104003906 C 8.075812339782715 26.57608413696289 11.75331211090088 21.12178421020508 16.43754005432129 16.43754005432129 C 21.12178421020508 11.75331211090088 26.57608413696289 8.075812339782715 32.64894104003906 5.507212162017822 C 38.93551254272461 2.848226547241211 45.61435699462891 1.499998092651367 52.49996948242188 1.499998092651367 C 59.38558197021484 1.499998092651367 66.06443023681641 2.848226547241211 72.35099792480469 5.507212162017822 C 78.42385864257812 8.075812339782715 83.87815856933594 11.75331211090088 88.56240081787109 16.43754005432129 C 93.24662780761719 21.12178421020508 96.92412567138672 26.57608413696289 99.49272918701172 32.64894104003906 C 102.1517105102539 38.93551254272461 103.4999389648438 45.61435699462891 103.4999389648438 52.49996948242188 C 103.4999389648438 59.38558197021484 102.1517105102539 66.06443023681641 99.49272918701172 72.35099792480469 C 96.92412567138672 78.42385864257812 93.24662780761719 83.87815856933594 88.56240081787109 88.56240081787109 C 83.87815856933594 93.24662780761719 78.42385864257812 96.92412567138672 72.35099792480469 99.49272918701172 C 66.06443023681641 102.1517105102539 59.38558197021484 103.4999389648438 52.49996948242188 103.4999389648438 Z" stroke="none"/>
                          <path d="M 52.49996948242188 3 C 45.81618499755859 3 39.33393859863281 4.308349609375 33.23326873779297 6.888717651367188 C 27.33920288085938 9.381706237792969 22.045166015625 12.95125579833984 17.49819946289062 17.49819946289062 C 12.95125579833984 22.045166015625 9.381706237792969 27.33920288085938 6.888717651367188 33.23326873779297 C 4.308349609375 39.33393859863281 3 45.81618499755859 3 52.49996948242188 C 3 59.18375396728516 4.308349609375 65.66600036621094 6.888717651367188 71.76667022705078 C 9.381706237792969 77.66073608398438 12.95125579833984 82.95477294921875 17.49819946289062 87.50173950195312 C 22.045166015625 92.04868316650391 27.33920288085938 95.61824035644531 33.23326873779297 98.11122131347656 C 39.33393859863281 100.6915893554688 45.81618499755859 101.9999389648438 52.49996948242188 101.9999389648438 C 59.18375396728516 101.9999389648438 65.66600036621094 100.6915893554688 71.76667022705078 98.11122131347656 C 77.66073608398438 95.61824035644531 82.95477294921875 92.04868316650391 87.50173950195312 87.50173950195312 C 92.04868316650391 82.95477294921875 95.61824035644531 77.66073608398438 98.11122131347656 71.76667022705078 C 100.6915893554688 65.66600036621094 101.9999389648438 59.18375396728516 101.9999389648438 52.49996948242188 C 101.9999389648438 45.81618499755859 100.6915893554688 39.33393859863281 98.11122131347656 33.23326873779297 C 95.61824035644531 27.33920288085938 92.04868316650391 22.045166015625 87.50173950195312 17.49819946289062 C 82.95477294921875 12.95125579833984 77.66073608398438 9.381706237792969 71.76667022705078 6.888717651367188 C 65.66600036621094 4.308349609375 59.18375396728516 3 52.49996948242188 3 M 52.49996948242188 0 C 81.49490356445312 0 104.9999389648438 23.50503540039062 104.9999389648438 52.49996948242188 C 104.9999389648438 81.49490356445312 81.49490356445312 104.9999389648438 52.49996948242188 104.9999389648438 C 23.50503540039062 104.9999389648438 0 81.49490356445312 0 52.49996948242188 C 0 23.50503540039062 23.50503540039062 0 52.49996948242188 0 Z" stroke="none" fill="#f5b104"/>
                        </g>
                      </g>
                    </g>
                  </g>
                </g>
              </g>
            </g>
          </g>
        </g>
      </g>
    </g>
    <g id="advice_17817902" transform="translate(921.834 2458.883)">
      <g id="Grupo_1223347" data-name="Grupo 1223347" transform="translate(15.56 8.293)">
        <path id="Trazado_1057948" data-name="Trazado 1057948" d="M256.113,106.3H234.529a4.123,4.123,0,0,0-4.111,4.111v15.931a4.123,4.123,0,0,0,4.111,4.111h8.938l6.938,6.938v-6.938h5.708a4.123,4.123,0,0,0,4.111-4.111V110.414a4.123,4.123,0,0,0-4.111-4.111Z" transform="translate(-209.614 -94.21)" fill="#fcdb35" fill-rule="evenodd"/>
        <path id="Trazado_1057949" data-name="Trazado 1057949" d="M254.421,106.3H234.529a4.123,4.123,0,0,0-4.111,4.111v15.931a4.123,4.123,0,0,0,4.111,4.111h8.938l5.246,5.246v-5.246h5.708a4.123,4.123,0,0,0,4.111-4.111V110.414a4.123,4.123,0,0,0-4.111-4.111Z" transform="translate(-209.614 -94.21)" fill="#ffeb87" fill-rule="evenodd"/>
        <path id="Trazado_1057950" data-name="Trazado 1057950" d="M80.791,16.937h21.584a4.123,4.123,0,0,1,4.111,4.111V36.979a4.123,4.123,0,0,1-4.111,4.111H93.437L86.5,48.027V41.09H80.791a4.123,4.123,0,0,1-4.111-4.111V21.048a4.123,4.123,0,0,1,4.111-4.111Z" transform="translate(-76.68 -16.937)" fill="#90ef90" fill-rule="evenodd"/>
        <path id="Trazado_1057951" data-name="Trazado 1057951" d="M80.79,16.937h19.892a4.123,4.123,0,0,1,4.111,4.111V36.979a4.123,4.123,0,0,1-4.111,4.111H91.744L86.5,46.336V41.09H80.79a4.123,4.123,0,0,1-4.111-4.111V21.048a4.123,4.123,0,0,1,4.111-4.111Z" transform="translate(-76.679 -16.937)" fill="#adffad" fill-rule="evenodd"/>
        <path id="Trazado_1057952" data-name="Trazado 1057952" d="M83.84,358.522a109.471,109.471,0,0,1,13.437,1.791c6.729,1.226,10.28,1.669,18-1.273a170.256,170.256,0,0,0,18.068-8.331,24.8,24.8,0,0,0,5-3.181c1.455-1.426,1.535-2.9.891-4.054-.836-1.5-2.707-2.369-7.446-.6a102.415,102.415,0,0,1-13.427,4.039,3.519,3.519,0,0,0,.267-1.615c-.1-1.767-1.5-3-4.63-3.078-4.987-.133-9.466-.606-14.478-1.22-4.092-.5-10.294.473-15.673.8,0,.018,0,.035,0,.053v16.667Z" transform="translate(-82.87 -297.026)" fill="#f0e3df" fill-rule="evenodd"/>
        <path id="Trazado_1057953" data-name="Trazado 1057953" d="M220.184,379.483a5.351,5.351,0,0,1-1.78,3.311c-2.483,2.281-8.148,3.806-19.444,2.875a1.468,1.468,0,0,1,.241-2.925c10.334.852,15.264-.31,17.219-2.107a3.233,3.233,0,0,0,.311-.327c1.154-.214,2.32-.519,3.453-.827Z" transform="translate(-181.248 -330.423)" fill="#d9c5bf" fill-rule="evenodd"/>
      </g>
      <rect id="Rectángulo_423392" data-name="Rectángulo 423392" width="9.183" height="23.047" rx="4.592" transform="translate(7.346 49.946)" fill="#6cbfff"/>
      <path id="Trazado_1057954" data-name="Trazado 1057954" d="M19.158,347.792a3.185,3.185,0,0,1-3.176-3.176v-16.7a3.176,3.176,0,0,1,6.352,0v16.7A3.186,3.186,0,0,1,19.158,347.792Z" transform="translate(-8.636 -274.798)" fill="#85caff" fill-rule="evenodd"/>
      <path id="Trazado_1057955" data-name="Trazado 1057955" d="M139.358,53.527l1.936,4.12,4.517.568a.593.593,0,0,1,.332,1.021l-3.32,3.114.856,4.471a.593.593,0,0,1-.869.631l-3.988-2.2-3.988,2.2a.593.593,0,0,1-.869-.631l.856-4.471L131.5,59.236a.593.593,0,0,1,.332-1.021l4.517-.568,1.936-4.12a.593.593,0,0,1,1.074,0Z" transform="translate(-108.358 -39.988)" fill="#fcdb35" fill-rule="evenodd"/>
      <path id="Trazado_1057956" data-name="Trazado 1057956" d="M142.171,70.968l-4.215-2.321-4,2.2a.618.618,0,0,1,.009-.165l.856-4.471L131.5,63.1a.593.593,0,0,1,.332-1.021l4.517-.568,1.812-3.856,1.729,3.68,4.517.568a.593.593,0,0,1,.332,1.021l-3.321,3.114.856,4.471a.581.581,0,0,1-.1.458Z" transform="translate(-108.355 -43.853)" fill="#ffeb87" fill-rule="evenodd"/>
      <path id="Trazado_1057957" data-name="Trazado 1057957" d="M40.951,38.282A1.352,1.352,0,0,0,42.3,39.635h17.93a1.353,1.353,0,0,0,0-2.707H42.3A1.352,1.352,0,0,0,40.951,38.282ZM50.9,28h9.337a1.353,1.353,0,0,0,0-2.707H50.9A1.353,1.353,0,1,0,50.9,28Zm0,5.818h9.337a1.353,1.353,0,0,0,0-2.706H50.9a1.353,1.353,0,1,0,0,2.706ZM25.282,19.377l2.123,1.992a1.351,1.351,0,0,1,.4,1.241l-.547,2.859,2.549-1.405a1.356,1.356,0,0,1,1.305,0l2.55,1.405L33.12,22.61a1.353,1.353,0,0,1,.4-1.241l2.123-1.992-2.887-.363a1.356,1.356,0,0,1-1.057-.767l-1.237-2.635-1.238,2.635a1.355,1.355,0,0,1-1.056.767l-2.889.363Zm-3.034.864a1.945,1.945,0,0,1,1.087-3.348l3.76-.472,1.61-3.429a1.944,1.944,0,0,1,3.519,0l1.611,3.429,3.76.472a1.944,1.944,0,0,1,1.087,3.347l-2.763,2.593.712,3.721a1.94,1.94,0,0,1-2.847,2.068l-3.318-1.827-3.32,1.827A1.944,1.944,0,0,1,24.3,26.552l.713-3.72-2.763-2.592ZM70.737,55.4a1.616,1.616,0,0,0-1.29-.849,9.454,9.454,0,0,0-4.5.855,110.826,110.826,0,0,1-13.014,3.973,4.957,4.957,0,0,1-.657.821c-2.354,2.4-7.173,2.928-11.812,2.928-1.052,0-2.092-.027-3.093-.067l-.181-.007a1.353,1.353,0,1,1,.1-2.7l.183.007c2.585.1,10.451.407,12.871-2.054a2.066,2.066,0,0,0,.615-1.666c-.065-1.138-1.18-1.744-3.315-1.8-4.859-.13-9.191-.567-14.607-1.23a54.7,54.7,0,0,0-10.268.38c-1.284.121-2.6.244-3.887.341v6.321a1.353,1.353,0,1,1-2.707,0v-7.53A1.824,1.824,0,0,0,13.354,51.3H10.524A1.824,1.824,0,0,0,8.7,53.123V69.817a1.825,1.825,0,0,0,1.823,1.823h2.831a1.824,1.824,0,0,0,1.823-1.823V65.7a1.353,1.353,0,0,1,2.707,0v2.821a117.4,117.4,0,0,1,12.327,1.724c6.62,1.206,9.858,1.62,17.271-1.207A170.376,170.376,0,0,0,65.4,60.781a22.042,22.042,0,0,0,4.679-2.95C70.943,56.985,71.163,56.168,70.737,55.4Zm1.237,4.36a24.371,24.371,0,0,1-5.31,3.411,173.227,173.227,0,0,1-18.218,8.4,29.027,29.027,0,0,1-10.7,2.3,44.506,44.506,0,0,1-8.022-.96A114.794,114.794,0,0,0,17.66,71.224a4.536,4.536,0,0,1-4.3,3.123H10.524a4.534,4.534,0,0,1-4.529-4.529V53.123a4.534,4.534,0,0,1,4.529-4.529h2.831a4.534,4.534,0,0,1,4.277,3.043c1.279-.1,2.6-.219,3.885-.34a55.372,55.372,0,0,1,10.85-.372c5.337.654,9.6,1.084,14.35,1.21,5.08.136,5.853,3.009,5.942,4.3A115.565,115.565,0,0,0,64,52.875a12.02,12.02,0,0,1,5.87-.994,4.281,4.281,0,0,1,3.23,2.2c1.034,1.853.614,3.976-1.126,5.681ZM16.915,28.334V12.4a2.761,2.761,0,0,1,2.757-2.758H41.257A2.761,2.761,0,0,1,44.015,12.4v15.93a2.761,2.761,0,0,1-2.757,2.758H32.319a1.361,1.361,0,0,0-.958.4l-4.626,4.628V32.445a1.354,1.354,0,0,0-1.354-1.353H19.673a2.761,2.761,0,0,1-2.757-2.758Zm-2.707,0V12.4A5.47,5.47,0,0,1,19.673,6.94H41.257A5.471,5.471,0,0,1,46.721,12.4v15.93A5.47,5.47,0,0,1,41.257,33.8H32.88L26.338,40.34a1.353,1.353,0,0,1-2.31-.957V33.8H19.673a5.469,5.469,0,0,1-5.464-5.464Zm34.272-7.948a1.353,1.353,0,0,1,1.353-1.354H62.061A5.472,5.472,0,0,1,67.526,24.5V40.428a5.471,5.471,0,0,1-5.465,5.464H57.707v5.585a1.353,1.353,0,0,1-2.31.957l-6.542-6.542H40.477a5.469,5.469,0,0,1-5.464-5.464V36.505a1.353,1.353,0,1,1,2.706,0v3.923a2.761,2.761,0,0,0,2.758,2.758h8.938a1.35,1.35,0,0,1,.957.4L55,48.211V44.539a1.353,1.353,0,0,1,1.354-1.353h5.707a2.761,2.761,0,0,0,2.758-2.758V24.5a2.761,2.761,0,0,0-2.758-2.757H49.834a1.352,1.352,0,0,1-1.353-1.353Z" transform="translate(0 0)" fill-rule="evenodd"/>
    </g>
  </g>
</svg>
