<svg xmlns="http://www.w3.org/2000/svg" xmlns:xlink="http://www.w3.org/1999/xlink" width="123" height="123" viewBox="0 0 123 123">
  <defs>
    <filter id="Trazado_982547" x="0" y="0" width="123" height="123" filterUnits="userSpaceOnUse">
      <feOffset dy="3" input="SourceAlpha"/>
      <feGaussianBlur stdDeviation="3" result="blur"/>
      <feFlood flood-opacity="0.161"/>
      <feComposite operator="in" in2="blur"/>
      <feComposite in="SourceGraphic"/>
    </filter>
  </defs>
  <g id="Grupo_1223389" data-name="Grupo 1223389" transform="translate(-1211.125 -2441.026)">
    <g id="Grupo_1223282" data-name="Grupo 1223282" transform="translate(1220.125 2447.026)">
      <g id="Grupo_1211203" data-name="Grupo 1211203" transform="translate(0 0)">
        <g id="Grupo_1210937" data-name="Grupo 1210937" transform="translate(0 0)">
          <g id="Grupo_1174742" data-name="Grupo 1174742">
            <g id="Grupo_1163948" data-name="Grupo 1163948">
              <g id="Grupo_1158168" data-name="Grupo 1158168">
                <g id="Grupo_1152576" data-name="Grupo 1152576">
                  <g id="Grupo_1148633" data-name="Grupo 1148633">
                    <g id="Grupo_1148525" data-name="Grupo 1148525">
                      <g transform="matrix(1, 0, 0, 1, -9, -6)" filter="url(#Trazado_982547)">
                        <g id="Trazado_982547-2" data-name="Trazado 982547" transform="translate(9 6)" fill="#fdf6e4">
                          <path d="M 52.49996948242188 103.4999389648438 C 45.61435699462891 103.4999389648438 38.93551254272461 102.1517105102539 32.64894104003906 99.49272918701172 C 26.57608413696289 96.92412567138672 21.12178421020508 93.24662780761719 16.43754005432129 88.56240081787109 C 11.75331211090088 83.87815856933594 8.075812339782715 78.42385864257812 5.507212162017822 72.35099792480469 C 2.848226547241211 66.06443023681641 1.499998092651367 59.38558197021484 1.499998092651367 52.49996948242188 C 1.499998092651367 45.61435699462891 2.848226547241211 38.93551254272461 5.507212162017822 32.64894104003906 C 8.075812339782715 26.57608413696289 11.75331211090088 21.12178421020508 16.43754005432129 16.43754005432129 C 21.12178421020508 11.75331211090088 26.57608413696289 8.075812339782715 32.64894104003906 5.507212162017822 C 38.93551254272461 2.848226547241211 45.61435699462891 1.499998092651367 52.49996948242188 1.499998092651367 C 59.38558197021484 1.499998092651367 66.06443023681641 2.848226547241211 72.35099792480469 5.507212162017822 C 78.42385864257812 8.075812339782715 83.87815856933594 11.75331211090088 88.56240081787109 16.43754005432129 C 93.24662780761719 21.12178421020508 96.92412567138672 26.57608413696289 99.49272918701172 32.64894104003906 C 102.1517105102539 38.93551254272461 103.4999389648438 45.61435699462891 103.4999389648438 52.49996948242188 C 103.4999389648438 59.38558197021484 102.1517105102539 66.06443023681641 99.49272918701172 72.35099792480469 C 96.92412567138672 78.42385864257812 93.24662780761719 83.87815856933594 88.56240081787109 88.56240081787109 C 83.87815856933594 93.24662780761719 78.42385864257812 96.92412567138672 72.35099792480469 99.49272918701172 C 66.06443023681641 102.1517105102539 59.38558197021484 103.4999389648438 52.49996948242188 103.4999389648438 Z" stroke="none"/>
                          <path d="M 52.49996948242188 3 C 45.81618499755859 3 39.33393859863281 4.308349609375 33.23326873779297 6.888717651367188 C 27.33920288085938 9.381706237792969 22.045166015625 12.95125579833984 17.49819946289062 17.49819946289062 C 12.95125579833984 22.045166015625 9.381706237792969 27.33920288085938 6.888717651367188 33.23326873779297 C 4.308349609375 39.33393859863281 3 45.81618499755859 3 52.49996948242188 C 3 59.18375396728516 4.308349609375 65.66600036621094 6.888717651367188 71.76667022705078 C 9.381706237792969 77.66073608398438 12.95125579833984 82.95477294921875 17.49819946289062 87.50173950195312 C 22.045166015625 92.04868316650391 27.33920288085938 95.61824035644531 33.23326873779297 98.11122131347656 C 39.33393859863281 100.6915893554688 45.81618499755859 101.9999389648438 52.49996948242188 101.9999389648438 C 59.18375396728516 101.9999389648438 65.66600036621094 100.6915893554688 71.76667022705078 98.11122131347656 C 77.66073608398438 95.61824035644531 82.95477294921875 92.04868316650391 87.50173950195312 87.50173950195312 C 92.04868316650391 82.95477294921875 95.61824035644531 77.66073608398438 98.11122131347656 71.76667022705078 C 100.6915893554688 65.66600036621094 101.9999389648438 59.18375396728516 101.9999389648438 52.49996948242188 C 101.9999389648438 45.81618499755859 100.6915893554688 39.33393859863281 98.11122131347656 33.23326873779297 C 95.61824035644531 27.33920288085938 92.04868316650391 22.045166015625 87.50173950195312 17.49819946289062 C 82.95477294921875 12.95125579833984 77.66073608398438 9.381706237792969 71.76667022705078 6.888717651367188 C 65.66600036621094 4.308349609375 59.18375396728516 3 52.49996948242188 3 M 52.49996948242188 0 C 81.49490356445312 0 104.9999389648438 23.50503540039062 104.9999389648438 52.49996948242188 C 104.9999389648438 81.49490356445312 81.49490356445312 104.9999389648438 52.49996948242188 104.9999389648438 C 23.50503540039062 104.9999389648438 0 81.49490356445312 0 52.49996948242188 C 0 23.50503540039062 23.50503540039062 0 52.49996948242188 0 Z" stroke="none" fill="#f5b104"/>
                        </g>
                      </g>
                    </g>
                  </g>
                </g>
              </g>
            </g>
          </g>
        </g>
      </g>
    </g>
    <g id="interaction_17009352" transform="translate(1238.649 2466.906)">
      <g id="Grupo_1223388" data-name="Grupo 1223388" transform="translate(1.74 1.5)">
        <g id="Grupo_1223349" data-name="Grupo 1223349" transform="translate(0.767 0.767)">
          <path id="Trazado_1057958" data-name="Trazado 1057958" d="M57.914,8.983V50.9a6.759,6.759,0,0,1-6.763,6.763H9.223A6.759,6.759,0,0,1,2.46,50.9V8.983A6.759,6.759,0,0,1,9.223,2.22H51.14a6.761,6.761,0,0,1,6.773,6.763Z" transform="translate(-2.46 -2.22)" fill="#e5e8ff"/>
        </g>
        <g id="Grupo_1223350" data-name="Grupo 1223350" transform="translate(18.414 28.478)">
          <path id="Trazado_1057959" data-name="Trazado 1057959" d="M32.012,34.736a6.491,6.491,0,1,1-6.5-6.5A6.493,6.493,0,0,1,32.012,34.736Z" transform="translate(-19.03 -28.24)" fill="#007afd"/>
        </g>
        <g id="Grupo_1223351" data-name="Grupo 1223351" transform="translate(5.602 16.401)">
          <path id="Trazado_1057960" data-name="Trazado 1057960" d="M15.286,21.043A4.143,4.143,0,1,1,11.143,16.9,4.141,4.141,0,0,1,15.286,21.043Z" transform="translate(-7 -16.9)" fill="#444ba1"/>
        </g>
        <g id="Grupo_1223352" data-name="Grupo 1223352" transform="translate(30.629 17.38)">
          <path id="Trazado_1057961" data-name="Trazado 1057961" d="M38.786,21.963a4.143,4.143,0,1,1-4.143-4.143A4.141,4.141,0,0,1,38.786,21.963Z" transform="translate(-30.5 -17.82)" fill="#04b5a4"/>
        </g>
        <g id="Grupo_1223353" data-name="Grupo 1223353" transform="translate(6.113 39.351)">
          <path id="Trazado_1057962" data-name="Trazado 1057962" d="M15.766,42.593a4.143,4.143,0,1,1-4.143-4.143A4.141,4.141,0,0,1,15.766,42.593Z" transform="translate(-7.48 -38.45)" fill="#ffd24f"/>
        </g>
        <g id="Grupo_1223354" data-name="Grupo 1223354" transform="translate(0.767 0.767)">
          <path id="Trazado_1057963" data-name="Trazado 1057963" d="M57.914,12.636V8.983A6.759,6.759,0,0,0,51.151,2.22H9.223A6.759,6.759,0,0,0,2.46,8.983v3.653Z" transform="translate(-2.46 -2.22)" fill="#ff4148"/>
        </g>
        <g id="Grupo_1223355" data-name="Grupo 1223355" transform="translate(0)">
          <path id="Trazado_1057964" data-name="Trazado 1057964" d="M51.2,58.477H9.269A7.536,7.536,0,0,1,1.74,50.947V9.029A7.536,7.536,0,0,1,9.269,1.5H51.187a7.536,7.536,0,0,1,7.529,7.529V50.947A7.534,7.534,0,0,1,51.2,58.477ZM9.269,3.023A6.013,6.013,0,0,0,3.263,9.029V50.947a6.013,6.013,0,0,0,6.007,6.007H51.187a6.013,6.013,0,0,0,6.007-6.007V9.029a6.013,6.013,0,0,0-6.007-6.007Z" transform="translate(-1.74 -1.5)" fill="#161c1c"/>
        </g>
        <g id="Grupo_1223356" data-name="Grupo 1223356">
          <path id="Trazado_1057965" data-name="Trazado 1057965" d="M57.96,13.449H2.507a.764.764,0,0,1-.767-.767V9.029A7.536,7.536,0,0,1,9.269,1.5H51.187a7.536,7.536,0,0,1,7.529,7.529v3.653A.761.761,0,0,1,57.96,13.449ZM3.274,11.916H57.2V9.029A6.013,6.013,0,0,0,51.2,3.023H9.269A6.013,6.013,0,0,0,3.263,9.029v2.886Z" transform="translate(-1.74 -1.5)" fill="#161c1c"/>
        </g>
        <g id="Grupo_1223357" data-name="Grupo 1223357" transform="translate(21.971 5.559)">
          <path id="Trazado_1057966" data-name="Trazado 1057966" d="M50.794,8.254H23.137a.767.767,0,1,1,0-1.534H50.794a.767.767,0,1,1,0,1.534Z" transform="translate(-22.37 -6.72)" fill="#161c1c"/>
        </g>
        <g id="Grupo_1223358" data-name="Grupo 1223358" transform="translate(14.814 5.568)">
          <path id="Trazado_1057967" data-name="Trazado 1057967" d="M16.406,8.264a.846.846,0,0,1-.543-.224.8.8,0,0,1-.16-.256A.861.861,0,0,1,15.65,7.5a.924.924,0,0,1,.053-.3,1.389,1.389,0,0,1,.16-.245.776.776,0,0,1,.831-.17,1.07,1.07,0,0,1,.256.17.75.75,0,0,1,.16.245.715.715,0,0,1,.064.3.667.667,0,0,1-.064.288,1.037,1.037,0,0,1-.16.256.931.931,0,0,1-.256.16A.667.667,0,0,1,16.406,8.264Z" transform="translate(-15.65 -6.728)" fill="#161c1c"/>
        </g>
        <g id="Grupo_1223359" data-name="Grupo 1223359" transform="translate(10.629 5.568)">
          <path id="Trazado_1057968" data-name="Trazado 1057968" d="M12.487,8.264a.8.8,0,0,1-.543-.224.931.931,0,0,1-.16-.256A.667.667,0,0,1,11.72,7.5a.715.715,0,0,1,.064-.3.972.972,0,0,1,.16-.245.78.78,0,0,1,.245-.17.772.772,0,0,1,.831.17.611.611,0,0,1,.16.245.715.715,0,0,1,.064.3.667.667,0,0,1-.064.288.8.8,0,0,1-.16.256.75.75,0,0,1-.245.16.634.634,0,0,1-.288.064Z" transform="translate(-11.72 -6.728)" fill="#161c1c"/>
        </g>
        <g id="Grupo_1223360" data-name="Grupo 1223360" transform="translate(6.464 5.578)">
          <path id="Trazado_1057969" data-name="Trazado 1057969" d="M8.577,8.263a.715.715,0,0,1-.3-.064,1.209,1.209,0,0,1-.245-.16,1.336,1.336,0,0,1-.17-.256A.861.861,0,0,1,7.81,7.5a.715.715,0,0,1,.064-.3.705.705,0,0,1,.16-.234.78.78,0,0,1,.245-.17.772.772,0,0,1,.831.17.736.736,0,0,1,.17.234.715.715,0,0,1,.064.3.667.667,0,0,1-.064.288,1.679,1.679,0,0,1-.16.256.824.824,0,0,1-.543.224Z" transform="translate(-7.81 -6.738)" fill="#161c1c"/>
        </g>
        <g id="Grupo_1223361" data-name="Grupo 1223361" transform="translate(45.272 14.26)">
          <path id="Trazado_1057970" data-name="Trazado 1057970" d="M64.794,16.626v6.709a1.729,1.729,0,0,1-1.736,1.736h-10.7l-4.047,3.706a.611.611,0,0,1-1.022-.458V25.071h-1.3a1.729,1.729,0,0,1-1.736-1.736V16.626a1.729,1.729,0,0,1,1.736-1.736H63.047A1.739,1.739,0,0,1,64.794,16.626Z" transform="translate(-44.25 -14.89)" fill="#ffd24f"/>
        </g>
        <g id="Grupo_1223362" data-name="Grupo 1223362" transform="translate(44.516 13.493)">
          <path id="Trazado_1057971" data-name="Trazado 1057971" d="M47.949,29.751a1.435,1.435,0,0,1-.554-.117,1.379,1.379,0,0,1-.82-1.267V25.885h-.532a2.5,2.5,0,0,1-2.5-2.5V16.673a2.5,2.5,0,0,1,2.5-2.5h17.05a2.5,2.5,0,0,1,2.5,2.5v6.709a2.5,2.5,0,0,1-2.5,2.5H52.7l-3.823,3.5a1.411,1.411,0,0,1-.927.362ZM46.032,15.7a.977.977,0,0,0-.98.98v6.709a.977.977,0,0,0,.98.98h1.3a.764.764,0,0,1,.767.767v2.918l3.8-3.472a.754.754,0,0,1,.511-.2H63.093a.977.977,0,0,0,.98-.98V16.694a.977.977,0,0,0-.98-.98H46.032Z" transform="translate(-43.54 -14.17)" fill="#161c1c"/>
        </g>
        <g id="Grupo_1223367" data-name="Grupo 1223367" transform="translate(49.618 18.334)">
          <g id="Grupo_1223363" data-name="Grupo 1223363" transform="translate(0 0.002)">
            <path id="Trazado_1057972" data-name="Trazado 1057972" d="M49.1,20.243a.851.851,0,0,1-.554-.224.75.75,0,0,1-.16-.245.706.706,0,0,1-.053-.3.978.978,0,0,1,.053-.3,1.389,1.389,0,0,1,.16-.245.773.773,0,0,1,1.246.245.752.752,0,0,1,.064.3.715.715,0,0,1-.064.3.844.844,0,0,1-.415.415A.754.754,0,0,1,49.1,20.243Z" transform="translate(-48.33 -18.717)" fill="#161c1c"/>
          </g>
          <g id="Grupo_1223364" data-name="Grupo 1223364" transform="translate(3.44 0.002)">
            <path id="Trazado_1057973" data-name="Trazado 1057973" d="M52.327,20.243a.924.924,0,0,1-.3-.053,1.006,1.006,0,0,1-.245-.17.611.611,0,0,1-.16-.245.715.715,0,0,1-.064-.3.752.752,0,0,1,.064-.3.972.972,0,0,1,.16-.245.778.778,0,0,1,1.076,0,.611.611,0,0,1,.16.245.752.752,0,0,1,.064.3.715.715,0,0,1-.064.3.75.75,0,0,1-.16.245A.716.716,0,0,1,52.327,20.243Z" transform="translate(-51.56 -18.717)" fill="#161c1c"/>
          </g>
          <g id="Grupo_1223365" data-name="Grupo 1223365" transform="translate(6.88 0.002)">
            <path id="Trazado_1057974" data-name="Trazado 1057974" d="M55.557,20.243a.924.924,0,0,1-.3-.053,1.006,1.006,0,0,1-.245-.17.638.638,0,0,1-.17-.245.706.706,0,0,1-.053-.3.978.978,0,0,1,.053-.3,1.006,1.006,0,0,1,.17-.245.778.778,0,0,1,1.076,0,.819.819,0,0,1,.224.543.715.715,0,0,1-.064.3.746.746,0,0,1-.415.415A.754.754,0,0,1,55.557,20.243Z" transform="translate(-54.79 -18.717)" fill="#161c1c"/>
          </g>
          <g id="Grupo_1223366" data-name="Grupo 1223366" transform="translate(10.32)">
            <path id="Trazado_1057975" data-name="Trazado 1057975" d="M58.787,20.243a.978.978,0,0,1-.3-.053,1.007,1.007,0,0,1-.245-.17.75.75,0,0,1-.16-.245.715.715,0,0,1-.064-.3.752.752,0,0,1,.064-.3.973.973,0,0,1,.16-.245.75.75,0,0,1,.245-.16.768.768,0,0,1,.831.16.611.611,0,0,1,.16.245.752.752,0,0,1,.064.3.715.715,0,0,1-.064.3.75.75,0,0,1-.16.245.78.78,0,0,1-.245.17A.861.861,0,0,1,58.787,20.243Z" transform="translate(-58.02 -18.716)" fill="#161c1c"/>
          </g>
        </g>
        <g id="Grupo_1223368" data-name="Grupo 1223368" transform="translate(17.668 27.732)">
          <path id="Trazado_1057976" data-name="Trazado 1057976" d="M25.572,42.034a7.247,7.247,0,1,1,7.253-7.242,7.249,7.249,0,0,1-7.253,7.242Zm0-12.982a5.724,5.724,0,1,0,5.73,5.73,5.729,5.729,0,0,0-5.73-5.73Z" transform="translate(-18.33 -27.54)" fill="#161c1c"/>
        </g>
        <g id="Grupo_1223369" data-name="Grupo 1223369" transform="translate(4.835 15.645)">
          <path id="Trazado_1057977" data-name="Trazado 1057977" d="M11.179,26a4.9,4.9,0,1,1,4.91-4.9,4.906,4.906,0,0,1-4.91,4.9Zm0-8.3a3.381,3.381,0,1,0,3.387,3.387A3.386,3.386,0,0,0,11.179,17.7Z" transform="translate(-6.28 -16.19)" fill="#161c1c"/>
        </g>
        <g id="Grupo_1223370" data-name="Grupo 1223370" transform="translate(29.873 16.614)">
          <path id="Trazado_1057978" data-name="Trazado 1057978" d="M34.689,26.908a4.9,4.9,0,1,1,4.91-4.9A4.906,4.906,0,0,1,34.689,26.908Zm0-8.286a3.381,3.381,0,1,0,3.387,3.387A3.386,3.386,0,0,0,34.689,18.623Z" transform="translate(-29.79 -17.1)" fill="#161c1c"/>
        </g>
        <g id="Grupo_1223371" data-name="Grupo 1223371" transform="translate(5.346 38.584)">
          <path id="Trazado_1057979" data-name="Trazado 1057979" d="M11.659,47.538a4.9,4.9,0,1,1,4.91-4.9,4.906,4.906,0,0,1-4.91,4.9Zm0-8.286a3.381,3.381,0,1,0,3.387,3.387,3.386,3.386,0,0,0-3.387-3.387Z" transform="translate(-6.76 -37.73)" fill="#161c1c"/>
        </g>
        <g id="Grupo_1223383" data-name="Grupo 1223383" transform="translate(24.069 30.642)">
          <g id="Grupo_1223372" data-name="Grupo 1223372" transform="translate(0.767 3.459)">
            <path id="Trazado_1057980" data-name="Trazado 1057980" d="M39.256,51.124,25.763,37.631a2.41,2.41,0,1,1,3.408-3.408L42.664,47.716" transform="translate(-25.06 -33.52)" fill="#ffcfc5"/>
          </g>
          <g id="Grupo_1223373" data-name="Grupo 1223373" transform="translate(9.436 5.301)">
            <path id="Trazado_1057981" data-name="Trazado 1057981" d="M42.135,47.593,33.9,39.361a2.41,2.41,0,0,1,3.408-3.408l8.232,8.232" transform="translate(-33.2 -35.25)" fill="#ffcfc5"/>
          </g>
          <g id="Grupo_1223374" data-name="Grupo 1223374" transform="translate(14.132 3.182)">
            <path id="Trazado_1057982" data-name="Trazado 1057982" d="M45.257,44.315l-6.944-6.944a2.41,2.41,0,0,1,3.408-3.408L48.675,40.9" transform="translate(-37.61 -33.26)" fill="#ffcfc5"/>
          </g>
          <g id="Grupo_1223375" data-name="Grupo 1223375" transform="translate(6.552 0.753)">
            <path id="Trazado_1057983" data-name="Trazado 1057983" d="M49.138,41.044l-5.953-5.953a2.41,2.41,0,0,1,3.408-3.408l5.953,5.953L55.3,40.394A5.53,5.53,0,0,1,56.923,44.3a3.256,3.256,0,0,0,.948,2.3l1.9,1.9L47.945,60.331l-2.812-2.812a3.256,3.256,0,0,0-2.3-.948H33.28a2.793,2.793,0,0,1-.16-5.581l5.293-.192" transform="translate(-30.493 -30.98)" fill="#ffcfc5"/>
          </g>
          <g id="Grupo_1223376" data-name="Grupo 1223376" transform="translate(0 2.705)">
            <path id="Trazado_1057984" data-name="Trazado 1057984" d="M39.3,51.926a.775.775,0,0,1-.543-.224L25.267,38.209a3.188,3.188,0,0,1,0-4.494,3.249,3.249,0,0,1,4.494,0l13.493,13.5a.761.761,0,0,1-1.076,1.076L28.685,34.8a1.678,1.678,0,0,0-2.332,0,1.642,1.642,0,0,0-.479,1.171,1.66,1.66,0,0,0,.479,1.171L39.846,50.638a.758.758,0,0,1,0,1.076.833.833,0,0,1-.543.213Z" transform="translate(-24.34 -32.813)" fill="#161c1c"/>
          </g>
          <g id="Grupo_1223377" data-name="Grupo 1223377" transform="translate(8.669 4.534)">
            <path id="Trazado_1057985" data-name="Trazado 1057985" d="M42.182,48.407a.775.775,0,0,1-.543-.224l-8.232-8.232A3.178,3.178,0,0,1,37.9,35.457l8.232,8.232a.761.761,0,0,1-1.076,1.076l-8.232-8.232a1.649,1.649,0,0,0-2.332,2.332L42.725,47.1a.758.758,0,0,1,0,1.076.743.743,0,0,1-.543.234Z" transform="translate(-32.48 -34.53)" fill="#161c1c"/>
          </g>
          <g id="Grupo_1223378" data-name="Grupo 1223378" transform="translate(13.366 2.404)">
            <path id="Trazado_1057986" data-name="Trazado 1057986" d="M45.3,45.118a.775.775,0,0,1-.543-.224l-6.944-6.944a3.178,3.178,0,0,1,4.494-4.494L49.254,40.4a.761.761,0,0,1-1.076,1.076l-6.944-6.944A1.649,1.649,0,0,0,38.9,36.864l6.944,6.944a.758.758,0,0,1,0,1.076.726.726,0,0,1-.543.234Z" transform="translate(-36.89 -32.53)" fill="#161c1c"/>
          </g>
          <g id="Grupo_1223379" data-name="Grupo 1223379" transform="translate(5.791)">
            <path id="Trazado_1057987" data-name="Trazado 1057987" d="M47.991,61.144a.8.8,0,0,1-.543-.224l-2.812-2.812a2.519,2.519,0,0,0-1.757-.724H33.327a3.555,3.555,0,0,1-.2-7.1l5.3-.192a.747.747,0,0,1,.788.735.755.755,0,0,1-.735.788l-5.293.192a2.036,2.036,0,0,0-1.874,2.322,2.028,2.028,0,0,0,2,1.736h9.553A3.97,3.97,0,0,1,45.7,57.033L47.97,59.3,58.726,48.545l-1.363-1.363a4,4,0,0,1-1.171-2.844,4.747,4.747,0,0,0-1.4-3.365l-8.722-8.722a1.678,1.678,0,0,0-2.332,0,1.642,1.642,0,0,0-.479,1.171,1.679,1.679,0,0,0,.479,1.171L49.7,40.547a.761.761,0,0,1-1.076,1.076l-5.953-5.953a3.188,3.188,0,0,1,0-4.494,3.249,3.249,0,0,1,4.494,0L55.883,39.9a6.224,6.224,0,0,1,1.842,4.452,2.473,2.473,0,0,0,.724,1.757l1.9,1.9a.783.783,0,0,1,.224.543.8.8,0,0,1-.224.543L48.535,60.92a.8.8,0,0,1-.543.224Z" transform="translate(-29.777 -30.273)" fill="#161c1c"/>
          </g>
          <g id="Grupo_1223380" data-name="Grupo 1223380" transform="translate(21.198 15.147)">
            <path id="Trazado_1057988" data-name="Trazado 1057988" d="M60.044,45.15l4.09,4.09a2.237,2.237,0,0,1,0,3.163L52.153,64.384a2.237,2.237,0,0,1-3.163,0l-4.09-4.09a2.237,2.237,0,0,1,0-3.163L56.881,45.15A2.237,2.237,0,0,1,60.044,45.15Z" transform="translate(-44.245 -44.495)" fill="#007afd"/>
          </g>
          <g id="Grupo_1223381" data-name="Grupo 1223381" transform="translate(33.757 19.399)">
            <path id="Trazado_1057989" data-name="Trazado 1057989" d="M58.809,48.959a1.623,1.623,0,1,1-2.3,0A1.639,1.639,0,0,1,58.809,48.959Z" transform="translate(-56.038 -48.488)" fill="#fff"/>
          </g>
          <g id="Grupo_1223382" data-name="Grupo 1223382" transform="translate(20.437 14.38)">
            <path id="Trazado_1057990" data-name="Trazado 1057990" d="M50.623,65.847a2.982,2.982,0,0,1-2.119-.873l-4.09-4.09a2.991,2.991,0,0,1-.884-2.119,2.947,2.947,0,0,1,.884-2.119L56.395,44.654a3,3,0,0,1,4.239,0l4.09,4.09a2.991,2.991,0,0,1,.884,2.119,2.947,2.947,0,0,1-.884,2.119L52.742,64.973a2.982,2.982,0,0,1-2.119.873ZM58.514,45.3a1.475,1.475,0,0,0-1.044.426L45.49,57.721a1.475,1.475,0,0,0-.437,1.044,1.432,1.432,0,0,0,.437,1.044l4.09,4.09a1.478,1.478,0,0,0,2.087,0L63.648,51.917a1.475,1.475,0,0,0,.437-1.044,1.432,1.432,0,0,0-.437-1.044l-4.09-4.09a1.505,1.505,0,0,0-1.044-.437Z" transform="translate(-43.53 -43.775)" fill="#161c1c"/>
          </g>
        </g>
        <g id="Grupo_1223384" data-name="Grupo 1223384" transform="translate(27.74 24.162)">
          <path id="Trazado_1057991" data-name="Trazado 1057991" d="M28.546,30.356a.719.719,0,0,1-.49-.181.761.761,0,0,1-.085-1.076l3.919-4.643a.763.763,0,0,1,1.161.99L29.132,30.09a.812.812,0,0,1-.586.266Z" transform="translate(-27.788 -24.188)" fill="#161c1c"/>
        </g>
        <g id="Grupo_1223385" data-name="Grupo 1223385" transform="translate(11.789 22.811)">
          <path id="Trazado_1057992" data-name="Trazado 1057992" d="M21.17,31.44a.768.768,0,0,1-.522-.2l-7.593-7a.761.761,0,0,1,1.033-1.118l7.593,7a.759.759,0,0,1,.043,1.076A.722.722,0,0,1,21.17,31.44Z" transform="translate(-12.809 -22.919)" fill="#161c1c"/>
        </g>
        <g id="Grupo_1223386" data-name="Grupo 1223386" transform="translate(13.123 37.703)">
          <path id="Trazado_1057993" data-name="Trazado 1057993" d="M14.827,41.458a.761.761,0,0,1-.373-1.427L20,37a.765.765,0,0,1,.735,1.342l-5.549,3.035a.9.9,0,0,1-.362.085Z" transform="translate(-14.062 -36.903)" fill="#161c1c"/>
        </g>
        <g id="Grupo_1223387" data-name="Grupo 1223387" transform="translate(57.07 49.275)">
          <path id="Trazado_1057994" data-name="Trazado 1057994" d="M57.716,52.541A2.387,2.387,0,1,1,60.1,50.156a2.368,2.368,0,0,1-.7,1.693,2.4,2.4,0,0,1-1.683.692Zm0-3.248a.866.866,0,1,0,.863.863.855.855,0,0,0-.863-.863Z" transform="translate(-55.327 -47.769)" fill="#161c1c"/>
        </g>
      </g>
    </g>
  </g>
</svg>
