<svg xmlns="http://www.w3.org/2000/svg" xmlns:xlink="http://www.w3.org/1999/xlink" width="123" height="123" viewBox="0 0 123 123">
  <defs>
    <filter id="Trazado_982547" x="0" y="0" width="123" height="123" filterUnits="userSpaceOnUse">
      <feOffset dy="3" input="SourceAlpha"/>
      <feGaussianBlur stdDeviation="3" result="blur"/>
      <feFlood flood-opacity="0.161"/>
      <feComposite operator="in" in2="blur"/>
      <feComposite in="SourceGraphic"/>
    </filter>
  </defs>
  <g id="Grupo_1223402" data-name="Grupo 1223402" transform="translate(-738 -6687.62)">
    <g id="Grupo_1223290" data-name="Grupo 1223290" transform="translate(413.229 3706.925)">
      <g id="Grupo_1211203" data-name="Grupo 1211203" transform="translate(333.77 2986.695)">
        <g id="Grupo_1210937" data-name="Grupo 1210937" transform="translate(0 0)">
          <g id="Grupo_1174742" data-name="Grupo 1174742" transform="translate(0)">
            <g id="Grupo_1163948" data-name="Grupo 1163948">
              <g id="Grupo_1158168" data-name="Grupo 1158168">
                <g id="Grupo_1152576" data-name="Grupo 1152576">
                  <g id="Grupo_1148633" data-name="Grupo 1148633">
                    <g id="Grupo_1148525" data-name="Grupo 1148525">
                      <g transform="matrix(1, 0, 0, 1, -9, -6)" filter="url(#Trazado_982547)">
                        <g id="Trazado_982547-2" data-name="Trazado 982547" transform="translate(9 6)" fill="#fdf6e4">
                          <path d="M 52.49996948242188 103.4999389648438 C 45.61435699462891 103.4999389648438 38.93551254272461 102.1517105102539 32.64894104003906 99.49272918701172 C 26.57608413696289 96.92412567138672 21.12178421020508 93.24662780761719 16.43754005432129 88.56240081787109 C 11.75331211090088 83.87815856933594 8.075812339782715 78.42385864257812 5.507212162017822 72.35099792480469 C 2.848226547241211 66.06443023681641 1.499998092651367 59.38558197021484 1.499998092651367 52.49996948242188 C 1.499998092651367 45.61435699462891 2.848226547241211 38.93551254272461 5.507212162017822 32.64894104003906 C 8.075812339782715 26.57608413696289 11.75331211090088 21.12178421020508 16.43754005432129 16.43754005432129 C 21.12178421020508 11.75331211090088 26.57608413696289 8.075812339782715 32.64894104003906 5.507212162017822 C 38.93551254272461 2.848226547241211 45.61435699462891 1.499998092651367 52.49996948242188 1.499998092651367 C 59.38558197021484 1.499998092651367 66.06443023681641 2.848226547241211 72.35099792480469 5.507212162017822 C 78.42385864257812 8.075812339782715 83.87815856933594 11.75331211090088 88.56240081787109 16.43754005432129 C 93.24662780761719 21.12178421020508 96.92412567138672 26.57608413696289 99.49272918701172 32.64894104003906 C 102.1517105102539 38.93551254272461 103.4999389648438 45.61435699462891 103.4999389648438 52.49996948242188 C 103.4999389648438 59.38558197021484 102.1517105102539 66.06443023681641 99.49272918701172 72.35099792480469 C 96.92412567138672 78.42385864257812 93.24662780761719 83.87815856933594 88.56240081787109 88.56240081787109 C 83.87815856933594 93.24662780761719 78.42385864257812 96.92412567138672 72.35099792480469 99.49272918701172 C 66.06443023681641 102.1517105102539 59.38558197021484 103.4999389648438 52.49996948242188 103.4999389648438 Z" stroke="none"/>
                          <path d="M 52.49996948242188 3 C 45.81618499755859 3 39.33393859863281 4.308349609375 33.23326873779297 6.888717651367188 C 27.33920288085938 9.381706237792969 22.045166015625 12.95125579833984 17.49819946289062 17.49819946289062 C 12.95125579833984 22.045166015625 9.381706237792969 27.33920288085938 6.888717651367188 33.23326873779297 C 4.308349609375 39.33393859863281 3 45.81618499755859 3 52.49996948242188 C 3 59.18375396728516 4.308349609375 65.66600036621094 6.888717651367188 71.76667022705078 C 9.381706237792969 77.66073608398438 12.95125579833984 82.95477294921875 17.49819946289062 87.50173950195312 C 22.045166015625 92.04868316650391 27.33920288085938 95.61824035644531 33.23326873779297 98.11122131347656 C 39.33393859863281 100.6915893554688 45.81618499755859 101.9999389648438 52.49996948242188 101.9999389648438 C 59.18375396728516 101.9999389648438 65.66600036621094 100.6915893554688 71.76667022705078 98.11122131347656 C 77.66073608398438 95.61824035644531 82.95477294921875 92.04868316650391 87.50173950195312 87.50173950195312 C 92.04868316650391 82.95477294921875 95.61824035644531 77.66073608398438 98.11122131347656 71.76667022705078 C 100.6915893554688 65.66600036621094 101.9999389648438 59.18375396728516 101.9999389648438 52.49996948242188 C 101.9999389648438 45.81618499755859 100.6915893554688 39.33393859863281 98.11122131347656 33.23326873779297 C 95.61824035644531 27.33920288085938 92.04868316650391 22.045166015625 87.50173950195312 17.49819946289062 C 82.95477294921875 12.95125579833984 77.66073608398438 9.381706237792969 71.76667022705078 6.888717651367188 C 65.66600036621094 4.308349609375 59.18375396728516 3 52.49996948242188 3 M 52.49996948242188 0 C 81.49490356445312 0 104.9999389648438 23.50503540039062 104.9999389648438 52.49996948242188 C 104.9999389648438 81.49490356445312 81.49490356445312 104.9999389648438 52.49996948242188 104.9999389648438 C 23.50503540039062 104.9999389648438 0 81.49490356445312 0 52.49996948242188 C 0 23.50503540039062 23.50503540039062 0 52.49996948242188 0 Z" stroke="none" fill="#f5b104"/>
                        </g>
                      </g>
                    </g>
                  </g>
                </g>
              </g>
            </g>
          </g>
        </g>
      </g>
    </g>
    <g id="goal_15546392" transform="translate(762.1 6709.563)">
      <g id="Grupo_1223400" data-name="Grupo 1223400" transform="translate(1.071 1.071)">
        <circle id="Elipse_12595" data-name="Elipse 12595" cx="24.99" cy="24.99" r="24.99" transform="translate(0 20.992)" fill="#f64f46"/>
        <circle id="Elipse_12596" data-name="Elipse 12596" cx="20.706" cy="20.706" r="20.706" transform="translate(4.284 25.276)" fill="#f5eeec"/>
        <circle id="Elipse_12597" data-name="Elipse 12597" cx="12.852" cy="12.852" r="12.852" transform="translate(12.138 33.129)" fill="#f64f46"/>
        <circle id="Elipse_12598" data-name="Elipse 12598" cx="7.854" cy="7.854" r="7.854" transform="translate(17.136 38.127)" fill="#f5eeec"/>
        <path id="Trazado_1058010" data-name="Trazado 1058010" d="M396.936,350.433l-3.506-5.813h11.522l4.338,7.194h-9.909A2.857,2.857,0,0,1,396.936,350.433Z" transform="translate(-338.319 -296.479)" fill="#219da7"/>
        <path id="Trazado_1058011" data-name="Trazado 1058011" d="M393.43,271.2l3.506-5.813a2.857,2.857,0,0,1,2.446-1.381h9.909l-4.338,7.194Z" transform="translate(-338.319 -227.381)" fill="#219da7"/>
        <path id="Trazado_1058012" data-name="Trazado 1058012" d="M176.566,318.705l-2.856-2.158,2.856-2.158h40.042v4.315Z" transform="translate(-149.975 -270.566)" fill="#5b2448"/>
        <circle id="Elipse_12599" data-name="Elipse 12599" cx="14.28" cy="14.28" r="14.28" transform="translate(42.411)" fill="#ffcf2d"/>
      </g>
      <g id="Grupo_1223401" data-name="Grupo 1223401" transform="translate(0)">
        <path id="Trazado_1058013" data-name="Trazado 1058013" d="M72.959,164.27a1.07,1.07,0,0,0-.917-1.624H62.133a3.95,3.95,0,0,0-3.363,1.9l-3.193,5.295H51.922a26.071,26.071,0,1,0,0,6.459h3.656l3.193,5.3a3.95,3.95,0,0,0,3.363,1.9h9.909a1.07,1.07,0,0,0,.917-1.624l-4.185-6.94v-3.721l4.185-6.94ZM60.6,165.651a1.793,1.793,0,0,1,1.528-.863h8.012L67.1,169.841H58.077l2.526-4.19ZM24.16,173.925l2.856,2.159a1.075,1.075,0,0,0,.645.217h4.361a6.783,6.783,0,1,1,0-6.46H27.662a1.065,1.065,0,0,0-.645.217l-2.856,2.159a1.07,1.07,0,0,0,0,1.708Zm10.219-4.084a8.925,8.925,0,1,0,0,6.46h3.013a11.781,11.781,0,1,1,0-6.46Zm5.224,0a13.926,13.926,0,1,0,0,6.457H45.43a19.635,19.635,0,1,1,0-6.46H39.6Zm-11.581,4.317-1.439-1.088,1.439-1.088H66.633v2.175H28.022Zm-1.961,22.831a23.919,23.919,0,1,1,23.7-27.149H47.6a21.772,21.772,0,1,0,0,6.46h2.162a24.069,24.069,0,0,1-23.7,20.689Zm36.073-15.637a1.8,1.8,0,0,1-1.528-.863l-2.526-4.19H67.1l3.047,5.052H62.135Z" transform="translate(0 -126.017)" fill="#1f233d"/>
        <path id="Trazado_1058014" data-name="Trazado 1058014" d="M312.351,30.7A15.351,15.351,0,1,0,297,15.351,15.368,15.368,0,0,0,312.351,30.7Zm0-28.56a13.209,13.209,0,1,1-13.209,13.209A13.225,13.225,0,0,1,312.351,2.142Z" transform="translate(-254.589)" fill="#1f233d"/>
        <path id="Trazado_1058015" data-name="Trazado 1058015" d="M370.838,50.71h3.032a1.787,1.787,0,0,1,0,3.57h-4.944a1.071,1.071,0,0,0,0,2.142h.571v1.785a1.071,1.071,0,1,0,2.142,0V56.422h1.428v1.785a1.071,1.071,0,1,0,2.142,0V56.175a3.93,3.93,0,0,0,2.5-3.68,3.888,3.888,0,0,0-3.838-3.927h-3.032a1.787,1.787,0,0,1,0-3.57h4.944a1.071,1.071,0,1,0,0-2.142h-.571V41.071a1.071,1.071,0,0,0-2.142,0v1.785h-1.428V41.071a1.071,1.071,0,0,0-2.142,0V43.1a3.93,3.93,0,0,0-2.5,3.68A3.888,3.888,0,0,0,370.838,50.71Z" transform="translate(-314.593 -34.288)" fill="#1f233d"/>
        <path id="Trazado_1058016" data-name="Trazado 1058016" d="M460.571,98.57a1.071,1.071,0,0,0,1.071-1.071V96.071a1.071,1.071,0,1,0-2.142,0V97.5A1.071,1.071,0,0,0,460.571,98.57Z" transform="translate(-393.884 -81.434)" fill="#1f233d"/>
        <path id="Trazado_1058017" data-name="Trazado 1058017" d="M336.642,97.5V96.071a1.071,1.071,0,1,0-2.142,0V97.5a1.071,1.071,0,1,0,2.142,0Z" transform="translate(-286.734 -81.434)" fill="#1f233d"/>
      </g>
    </g>
  </g>
</svg>
