<svg xmlns="http://www.w3.org/2000/svg" xmlns:xlink="http://www.w3.org/1999/xlink" width="123" height="123" viewBox="0 0 123 123">
  <defs>
    <filter id="Trazado_982547" x="0" y="0" width="123" height="123" filterUnits="userSpaceOnUse">
      <feOffset dy="3" input="SourceAlpha"/>
      <feGaussianBlur stdDeviation="3" result="blur"/>
      <feFlood flood-opacity="0.161"/>
      <feComposite operator="in" in2="blur"/>
      <feComposite in="SourceGraphic"/>
    </filter>
  </defs>
  <g id="Grupo_1223420" data-name="Grupo 1223420" transform="translate(-1158.5 -6687.62)">
    <g id="Grupo_1223291" data-name="Grupo 1223291" transform="translate(833.729 3706.925)">
      <g id="Grupo_1211203" data-name="Grupo 1211203" transform="translate(333.77 2986.695)">
        <g id="Grupo_1210937" data-name="Grupo 1210937" transform="translate(0 0)">
          <g id="Grupo_1174742" data-name="Grupo 1174742" transform="translate(0)">
            <g id="Grupo_1163948" data-name="Grupo 1163948">
              <g id="Grupo_1158168" data-name="Grupo 1158168">
                <g id="Grupo_1152576" data-name="Grupo 1152576">
                  <g id="Grupo_1148633" data-name="Grupo 1148633">
                    <g id="Grupo_1148525" data-name="Grupo 1148525">
                      <g transform="matrix(1, 0, 0, 1, -9, -6)" filter="url(#Trazado_982547)">
                        <g id="Trazado_982547-2" data-name="Trazado 982547" transform="translate(9 6)" fill="#fdf6e4">
                          <path d="M 52.49996948242188 103.4999389648438 C 45.61435699462891 103.4999389648438 38.93551254272461 102.1517105102539 32.64894104003906 99.49272918701172 C 26.57608413696289 96.92412567138672 21.12178421020508 93.24662780761719 16.43754005432129 88.56240081787109 C 11.75331211090088 83.87815856933594 8.075812339782715 78.42385864257812 5.507212162017822 72.35099792480469 C 2.848226547241211 66.06443023681641 1.499998092651367 59.38558197021484 1.499998092651367 52.49996948242188 C 1.499998092651367 45.61435699462891 2.848226547241211 38.93551254272461 5.507212162017822 32.64894104003906 C 8.075812339782715 26.57608413696289 11.75331211090088 21.12178421020508 16.43754005432129 16.43754005432129 C 21.12178421020508 11.75331211090088 26.57608413696289 8.075812339782715 32.64894104003906 5.507212162017822 C 38.93551254272461 2.848226547241211 45.61435699462891 1.499998092651367 52.49996948242188 1.499998092651367 C 59.38558197021484 1.499998092651367 66.06443023681641 2.848226547241211 72.35099792480469 5.507212162017822 C 78.42385864257812 8.075812339782715 83.87815856933594 11.75331211090088 88.56240081787109 16.43754005432129 C 93.24662780761719 21.12178421020508 96.92412567138672 26.57608413696289 99.49272918701172 32.64894104003906 C 102.1517105102539 38.93551254272461 103.4999389648438 45.61435699462891 103.4999389648438 52.49996948242188 C 103.4999389648438 59.38558197021484 102.1517105102539 66.06443023681641 99.49272918701172 72.35099792480469 C 96.92412567138672 78.42385864257812 93.24662780761719 83.87815856933594 88.56240081787109 88.56240081787109 C 83.87815856933594 93.24662780761719 78.42385864257812 96.92412567138672 72.35099792480469 99.49272918701172 C 66.06443023681641 102.1517105102539 59.38558197021484 103.4999389648438 52.49996948242188 103.4999389648438 Z" stroke="none"/>
                          <path d="M 52.49996948242188 3 C 45.81618499755859 3 39.33393859863281 4.308349609375 33.23326873779297 6.888717651367188 C 27.33920288085938 9.381706237792969 22.045166015625 12.95125579833984 17.49819946289062 17.49819946289062 C 12.95125579833984 22.045166015625 9.381706237792969 27.33920288085938 6.888717651367188 33.23326873779297 C 4.308349609375 39.33393859863281 3 45.81618499755859 3 52.49996948242188 C 3 59.18375396728516 4.308349609375 65.66600036621094 6.888717651367188 71.76667022705078 C 9.381706237792969 77.66073608398438 12.95125579833984 82.95477294921875 17.49819946289062 87.50173950195312 C 22.045166015625 92.04868316650391 27.33920288085938 95.61824035644531 33.23326873779297 98.11122131347656 C 39.33393859863281 100.6915893554688 45.81618499755859 101.9999389648438 52.49996948242188 101.9999389648438 C 59.18375396728516 101.9999389648438 65.66600036621094 100.6915893554688 71.76667022705078 98.11122131347656 C 77.66073608398438 95.61824035644531 82.95477294921875 92.04868316650391 87.50173950195312 87.50173950195312 C 92.04868316650391 82.95477294921875 95.61824035644531 77.66073608398438 98.11122131347656 71.76667022705078 C 100.6915893554688 65.66600036621094 101.9999389648438 59.18375396728516 101.9999389648438 52.49996948242188 C 101.9999389648438 45.81618499755859 100.6915893554688 39.33393859863281 98.11122131347656 33.23326873779297 C 95.61824035644531 27.33920288085938 92.04868316650391 22.045166015625 87.50173950195312 17.49819946289062 C 82.95477294921875 12.95125579833984 77.66073608398438 9.381706237792969 71.76667022705078 6.888717651367188 C 65.66600036621094 4.308349609375 59.18375396728516 3 52.49996948242188 3 M 52.49996948242188 0 C 81.49490356445312 0 104.9999389648438 23.50503540039062 104.9999389648438 52.49996948242188 C 104.9999389648438 81.49490356445312 81.49490356445312 104.9999389648438 52.49996948242188 104.9999389648438 C 23.50503540039062 104.9999389648438 0 81.49490356445312 0 52.49996948242188 C 0 23.50503540039062 23.50503540039062 0 52.49996948242188 0 Z" stroke="none" fill="#f5b104"/>
                        </g>
                      </g>
                    </g>
                  </g>
                </g>
              </g>
            </g>
          </g>
        </g>
      </g>
    </g>
    <g id="mission_3889799" transform="translate(1186.204 6712.547)">
      <g id="Grupo_1223418" data-name="Grupo 1223418" transform="translate(1.079 1.079)">
        <g id="Grupo_1223403" data-name="Grupo 1223403" transform="translate(23.741 38.557)">
          <path id="Trazado_1058018" data-name="Trazado 1058018" d="M23,43.5a8.607,8.607,0,0,1,3.281-6.766l1.468,2.45.788,1.317a4.315,4.315,0,1,0,7.414,3,4.334,4.334,0,0,0-1.219-3.011l.788-1.306,1.468-2.45A8.631,8.631,0,1,1,23,43.5Z" transform="translate(-23 -36.73)" fill="#fcd770"/>
        </g>
        <g id="Grupo_1223404" data-name="Grupo 1223404" transform="translate(12.949 28.532)">
          <path id="Trazado_1058019" data-name="Trazado 1058019" d="M46.388,50a2.321,2.321,0,0,1,2.158-1.457h3.3V39.915h-3.3a2.321,2.321,0,0,1-2.158-1.457.04.04,0,0,1-.011-.032,2.306,2.306,0,0,1,.5-2.536l2.342-2.342L43.107,27.44l-2.342,2.342a2.332,2.332,0,0,1-1.867.669v2.568a12.949,12.949,0,1,1-12.949,0V30.451a2.332,2.332,0,0,1-1.867-.669L21.741,27.44l-6.108,6.108,2.342,2.342a2.306,2.306,0,0,1,.5,2.536.04.04,0,0,1-.011.032A2.321,2.321,0,0,1,16.3,39.915H13v8.633h3.3A2.321,2.321,0,0,1,18.46,50a.04.04,0,0,1,.011.032,2.306,2.306,0,0,1-.5,2.536l-2.342,2.342,6.108,6.108,2.342-2.342a2.306,2.306,0,0,1,2.536-.5.04.04,0,0,1,.032.011,2.321,2.321,0,0,1,1.457,2.158v3.3h8.633v-3.3A2.321,2.321,0,0,1,38.2,58.195a.04.04,0,0,1,.032-.011,2.306,2.306,0,0,1,2.536.5l2.342,2.342,6.108-6.108-2.342-2.342a2.306,2.306,0,0,1-.5-2.536A.04.04,0,0,1,46.388,50Z" transform="translate(-13 -27.44)" fill="#fcd770"/>
        </g>
        <g id="Grupo_1223405" data-name="Grupo 1223405" transform="translate(19.424 34.111)">
          <path id="Trazado_1058020" data-name="Trazado 1058020" d="M25.561,35.189a2.22,2.22,0,0,0,.227.518l.809,1.349a8.633,8.633,0,1,0,10.7,0l.809-1.349a2.22,2.22,0,0,0,.227-.518,2.192,2.192,0,0,0,.086-.594V32.61a12.949,12.949,0,1,1-12.949,0V34.6A2.192,2.192,0,0,0,25.561,35.189Z" transform="translate(-19 -32.61)" fill="#ffeaa7"/>
        </g>
        <g id="Grupo_1223406" data-name="Grupo 1223406" transform="translate(28.489 41.006)">
          <path id="Trazado_1058021" data-name="Trazado 1058021" d="M34.382,40.306l-3.1,5.169-3.1-5.158L27.4,39h7.77Z" transform="translate(-27.4 -39)" fill="#656d78"/>
        </g>
        <g id="Grupo_1223407" data-name="Grupo 1223407" transform="translate(25.985 36.69)">
          <path id="Trazado_1058022" data-name="Trazado 1058022" d="M26.116,36.867l-.809-1.349A2.22,2.22,0,0,1,25.08,35H37.857a2.22,2.22,0,0,1-.227.518l-.809,1.349-1.468,2.45h-7.77Z" transform="translate(-25.08 -35)" fill="#b27946"/>
        </g>
        <g id="Grupo_1223408" data-name="Grupo 1223408" transform="translate(25.899 15.108)">
          <path id="Trazado_1058023" data-name="Trazado 1058023" d="M31.475,15V36.582H25.086A2.192,2.192,0,0,1,25,35.989V15Z" transform="translate(-25 -15)" fill="#b4dd7f"/>
        </g>
        <g id="Grupo_1223409" data-name="Grupo 1223409" transform="translate(32.374 15.108)">
          <path id="Trazado_1058024" data-name="Trazado 1058024" d="M31,15h5.4l.054.259a1.89,1.89,0,0,0-.5.378,2.11,2.11,0,0,0-.637,1.522,2.165,2.165,0,0,0,2.158,2.158,2.174,2.174,0,0,0-2.158,2.158,2.165,2.165,0,0,0,2.158,2.158V35.989a2.192,2.192,0,0,1-.086.594H31Z" transform="translate(-31 -15)" fill="#ef7385"/>
        </g>
        <g id="Grupo_1223410" data-name="Grupo 1223410" transform="translate(25.899 10.791)">
          <path id="Trazado_1058025" data-name="Trazado 1058025" d="M36.87,15.316H25V12.079A1.082,1.082,0,0,1,26.079,11H36.87l.054.259a1.89,1.89,0,0,0-.5.378,2.11,2.11,0,0,0-.637,1.522,2.165,2.165,0,0,0,2.158,2.158,2.189,2.189,0,0,0-1.025.259Z" transform="translate(-25 -11)" fill="#fcd770"/>
        </g>
        <g id="Grupo_1223411" data-name="Grupo 1223411" transform="translate(25.899)">
          <path id="Trazado_1058026" data-name="Trazado 1058026" d="M36.87,11.791H29.316a3.242,3.242,0,0,0,3.237-3.237,1.082,1.082,0,0,0-1.079-1.079H25A6.484,6.484,0,0,1,31.475,1a6.48,6.48,0,0,1,6.475,6.475,2.174,2.174,0,0,0-2.158,2.158,2.165,2.165,0,0,0,2.158,2.158,2.189,2.189,0,0,0-1.025.259Z" transform="translate(-25 -1)" fill="#e6e9ed"/>
        </g>
        <g id="Grupo_1223412" data-name="Grupo 1223412" transform="translate(0 8.633)">
          <path id="Trazado_1058027" data-name="Trazado 1058027" d="M1,9H18.266V19.791H1Z" transform="translate(-1 -9)" fill="#656d78"/>
        </g>
        <g id="Grupo_1223413" data-name="Grupo 1223413" transform="translate(36.69 19.424)">
          <path id="Trazado_1058028" data-name="Trazado 1058028" d="M37.158,19h1.079a1.082,1.082,0,0,1,1.079,1.079v2.158a1.082,1.082,0,0,1-1.079,1.079H37.158A2.165,2.165,0,0,1,35,21.158,2.174,2.174,0,0,1,37.158,19Z" transform="translate(-35 -19)" fill="#f5e0cd"/>
        </g>
        <g id="Grupo_1223414" data-name="Grupo 1223414" transform="translate(36.69 15.108)">
          <path id="Trazado_1058029" data-name="Trazado 1058029" d="M37.158,15h1.079a1.082,1.082,0,0,1,1.079,1.079v2.158a1.082,1.082,0,0,1-1.079,1.079H37.158A2.165,2.165,0,0,1,35,17.158a2.11,2.11,0,0,1,.637-1.522,1.89,1.89,0,0,1,.5-.378A2.189,2.189,0,0,1,37.158,15Z" transform="translate(-35 -15)" fill="#f5e0cd"/>
        </g>
        <g id="Grupo_1223415" data-name="Grupo 1223415" transform="translate(36.69 10.791)">
          <path id="Trazado_1058030" data-name="Trazado 1058030" d="M37.158,11h1.079a1.082,1.082,0,0,1,1.079,1.079v2.158a1.082,1.082,0,0,1-1.079,1.079H37.158A2.165,2.165,0,0,1,35,13.158a2.11,2.11,0,0,1,.637-1.522,1.89,1.89,0,0,1,.5-.378A2.189,2.189,0,0,1,37.158,11Z" transform="translate(-35 -11)" fill="#f5e0cd"/>
        </g>
        <g id="Grupo_1223416" data-name="Grupo 1223416" transform="translate(36.69 6.475)">
          <path id="Trazado_1058031" data-name="Trazado 1058031" d="M37.158,7h1.079a1.082,1.082,0,0,1,1.079,1.079v2.158a1.082,1.082,0,0,1-1.079,1.079H37.158A2.165,2.165,0,0,1,35,9.158,2.174,2.174,0,0,1,37.158,7Z" transform="translate(-35 -7)" fill="#f5e0cd"/>
        </g>
        <g id="Grupo_1223417" data-name="Grupo 1223417" transform="translate(17.266 6.475)">
          <path id="Trazado_1058032" data-name="Trazado 1058032" d="M33.187,8.079a3.242,3.242,0,0,1-3.237,3.237H26.712A1.082,1.082,0,0,0,25.633,12.4v9.712h-1.5A12.888,12.888,0,0,1,17,19.949V9.158A12.888,12.888,0,0,1,24.133,7h7.975A1.082,1.082,0,0,1,33.187,8.079Z" transform="translate(-17 -7)" fill="#f5e0cd"/>
        </g>
      </g>
      <g id="Grupo_1223419" data-name="Grupo 1223419" transform="translate(0 0)">
        <path id="Trazado_1058033" data-name="Trazado 1058033" d="M48.4,40.188a1.255,1.255,0,0,1,.268-1.37l3.1-3.1-7.63-7.63-3.1,3.1c-.01.01-.021.015-.03.024V25.9a2.16,2.16,0,0,0,2.158-2.158V21.582a2.134,2.134,0,0,0-.3-1.079,2.134,2.134,0,0,0,.3-1.079V17.266a2.134,2.134,0,0,0-.3-1.079,2.134,2.134,0,0,0,.3-1.079V12.949a2.134,2.134,0,0,0-.3-1.079,2.134,2.134,0,0,0,.3-1.079V8.633a2.16,2.16,0,0,0-2.158-2.158H40.92a7.544,7.544,0,0,0-14.935,0h-.512a13.872,13.872,0,0,0-7.432,2.158H0V21.582H18.041a13.872,13.872,0,0,0,7.432,2.158H25.9v7.466c-.009-.008-.021-.01-.029-.018l-3.1-3.1-7.63,7.63,3.1,3.1a1.268,1.268,0,0,1,.255,1.4,1.252,1.252,0,0,1-1.16.787H12.949V51.8h4.383a1.295,1.295,0,0,1,.906,2.188l-3.1,3.1,7.63,7.63,3.1-3.1a1.266,1.266,0,0,1,1.4-.256,1.253,1.253,0,0,1,.786,1.16v4.383H38.848V62.522a1.295,1.295,0,0,1,2.188-.906l3.1,3.1,7.63-7.63-3.1-3.1a1.268,1.268,0,0,1-.256-1.4,1.253,1.253,0,0,1,1.16-.786h4.383V41.006H49.573a1.265,1.265,0,0,1-1.173-.818ZM25.911,37.262a3.239,3.239,0,0,0,.449,1.576l.351.584a9.713,9.713,0,1,0,13.484,0l.351-.584a3.227,3.227,0,0,0,.449-1.574,11.869,11.869,0,1,1-15.083,0ZM36.889,12.949a3.032,3.032,0,0,0,0,2.158H28.057V12.949h8.831Zm4.119,2.158h-1.08a1.079,1.079,0,0,1,0-2.158h1.079Zm0,4.316h-1.08a1.079,1.079,0,0,1,0-2.158h1.079ZM36.69,46.4A3.243,3.243,0,0,1,34.1,49.574L36.548,45.5a3.243,3.243,0,0,1,.142.9Zm-5.216-3.237h3.957l-1.978,3.3ZM30.358,45.5,32.8,49.574A3.188,3.188,0,0,1,30.358,45.5Zm6.369-4.493H30.179l-1.295-2.158h9.138Zm-8.67-4.316V17.266h4.316V36.69Zm.988,6.623a5.4,5.4,0,1,0,8.814,0l1.185-1.974a7.554,7.554,0,1,1-11.183,0Zm9.8-6.623H34.532V17.266h2.357a3.138,3.138,0,0,0,.643,3.237,3.208,3.208,0,0,0,1.317,5.2Zm1.079-12.949a1.079,1.079,0,0,1,0-2.158h1.079v2.158Zm1.08-12.949h-1.08a1.079,1.079,0,0,1,0-2.158h1.079ZM33.453,2.158A5.39,5.39,0,0,1,38.762,6.7,3.234,3.234,0,0,0,36.69,9.712a3.2,3.2,0,0,0,.2,1.079H35.01a4.262,4.262,0,0,0,.6-2.158,2.16,2.16,0,0,0-2.158-2.158H28.166A5.406,5.406,0,0,1,33.453,2.158ZM2.158,10.791H17.266v8.633H2.158ZM25.473,21.582a11.722,11.722,0,0,1-6.048-1.673v-9.6a11.727,11.727,0,0,1,6.048-1.673h7.98a2.16,2.16,0,0,1-2.158,2.158H28.057A2.16,2.16,0,0,0,25.9,12.949v8.633ZM51.8,49.639H49.572a3.452,3.452,0,0,0-2.432,5.873l1.573,1.573-4.579,4.579-1.573-1.573a3.453,3.453,0,0,0-5.873,2.433v2.223H30.214V62.522a3.452,3.452,0,0,0-5.873-2.432l-1.573,1.573L18.19,57.084l1.573-1.573a3.453,3.453,0,0,0-2.433-5.873H15.108V43.164h2.225a3.452,3.452,0,0,0,2.432-5.873l-1.573-1.573,4.579-4.579,1.574,1.574a3.374,3.374,0,0,0,1.554.869v1a14.029,14.029,0,1,0,15.108,0v-1a3.374,3.374,0,0,0,1.556-.868l1.573-1.573,4.579,4.579-1.573,1.573a3.452,3.452,0,0,0,2.432,5.873H51.8Z" transform="translate(0 0)"/>
        <path id="Trazado_1058034" data-name="Trazado 1058034" d="M2.158,60.5a1.081,1.081,0,0,1,1.079-1.079H9.712a3.237,3.237,0,1,0,0-6.475H7.554a1.079,1.079,0,1,1,0-2.158,3.237,3.237,0,1,0,0-6.475H3.237a1.079,1.079,0,0,1,0-2.158H11.87V40H3.237a3.237,3.237,0,0,0,0,6.475H7.554a1.079,1.079,0,1,1,0,2.158,3.237,3.237,0,0,0,0,6.475H9.712a1.079,1.079,0,1,1,0,2.158H3.237a3.237,3.237,0,0,0,0,6.475H17.266V61.582H3.237A1.081,1.081,0,0,1,2.158,60.5Z" transform="translate(0 3.165)"/>
        <path id="Trazado_1058035" data-name="Trazado 1058035" d="M60.5,21.266H49.712a1.079,1.079,0,0,1,0-2.158H51.87a3.237,3.237,0,1,0,0-6.475H45.4a1.079,1.079,0,0,1,0-2.158H56.187a3.237,3.237,0,0,0,0-6.475H40V6.158H56.187a1.079,1.079,0,0,1,0,2.158H45.4a3.237,3.237,0,1,0,0,6.475H51.87a1.079,1.079,0,0,1,0,2.158H49.712a3.237,3.237,0,0,0,0,6.475H60.5a1.079,1.079,0,1,1,0,2.158H42.158v2.158H60.5a3.237,3.237,0,1,0,0-6.475Z" transform="translate(3.165 0.316)"/>
      </g>
    </g>
  </g>
</svg>
