<svg xmlns="http://www.w3.org/2000/svg" xmlns:xlink="http://www.w3.org/1999/xlink" width="108" height="108" viewBox="0 0 108 108">
  <defs>
    <filter id="Trazado_904820" x="0" y="0" width="108" height="108" filterUnits="userSpaceOnUse">
      <feOffset dy="3" input="SourceAlpha"/>
      <feGaussianBlur stdDeviation="3" result="blur"/>
      <feFlood flood-opacity="0.161"/>
      <feComposite operator="in" in2="blur"/>
      <feComposite in="SourceGraphic"/>
    </filter>
  </defs>
  <g id="Grupo_1223340" data-name="Grupo 1223340" transform="translate(-1142.414 -799.754)">
    <g id="Grupo_1223277" data-name="Grupo 1223277" transform="translate(1151.414 805.754)">
      <g id="Grupo_1173585" data-name="Grupo 1173585" transform="translate(0 0)">
        <g id="Grupo_1173428" data-name="Grupo 1173428">
          <g id="Grupo_1171958" data-name="Grupo 1171958">
            <g id="Grupo_1167341" data-name="Grupo 1167341">
              <g id="Grupo_1166792" data-name="Grupo 1166792">
                <g transform="matrix(1, 0, 0, 1, -9, -6)" filter="url(#Trazado_904820)">
                  <g id="Trazado_904820-2" data-name="Trazado 904820" transform="translate(9 6)" fill="#efecfa">
                    <path d="M 44.99999618530273 88.50002288818359 C 39.12687301635742 88.50002288818359 33.43022155761719 87.35009765625 28.06829643249512 85.08218383789062 C 22.88852119445801 82.89133453369141 18.23629570007324 79.75460815429688 14.24084663391113 75.75916290283203 C 10.24540901184082 71.76371002197266 7.108683586120605 67.11148834228516 4.917821407318115 61.93171310424805 C 2.649921178817749 56.56978607177734 1.499996185302734 50.87313461303711 1.499996185302734 45.0000114440918 C 1.499996185302734 39.12688827514648 2.649921178817749 33.43023681640625 4.917821407318115 28.06829833984375 C 7.108683586120605 22.88852310180664 10.24540901184082 18.2363109588623 14.24084663391113 14.2408618927002 C 18.23629570007324 10.24541187286377 22.88852119445801 7.108686447143555 28.06829643249512 4.917823791503906 C 33.43022155761719 2.649924039840698 39.12687301635742 1.499998927116394 44.99999618530273 1.499998927116394 C 50.87311935424805 1.499998927116394 56.56977081298828 2.649924039840698 61.93169784545898 4.917823791503906 C 67.11147308349609 7.108686447143555 71.76369476318359 10.24541187286377 75.75914764404297 14.2408618927002 C 79.75458526611328 18.2363109588623 82.89131164550781 22.88852310180664 85.08216857910156 28.06829833984375 C 87.35007476806641 33.43023681640625 88.5 39.12688827514648 88.5 45.0000114440918 C 88.5 50.87313461303711 87.35007476806641 56.56978607177734 85.08216857910156 61.93171310424805 C 82.89131164550781 67.11148834228516 79.75458526611328 71.76371002197266 75.75914764404297 75.75916290283203 C 71.76369476318359 79.75460815429688 67.11147308349609 82.89133453369141 61.93169784545898 85.08218383789062 C 56.56977081298828 87.35009765625 50.87311935424805 88.50002288818359 44.99999618530273 88.50002288818359 Z" stroke="none"/>
                    <path d="M 44.99999618530273 3 C 39.32870864868164 3 33.82865142822266 4.110054016113281 28.65262603759766 6.299339294433594 C 23.65165710449219 8.414566040039062 19.15968322753906 11.44333648681641 15.301513671875 15.30152893066406 C 11.44333648681641 19.15969848632812 8.414566040039062 23.65165710449219 6.299339294433594 28.65264129638672 C 4.110054016113281 33.82866668701172 2.999992370605469 39.3287239074707 2.999992370605469 45.0000114440918 C 2.999992370605469 50.67129898071289 4.110054016113281 56.17135620117188 6.299339294433594 61.34738159179688 C 8.414566040039062 66.34836578369141 11.44333648681641 70.84032440185547 15.301513671875 74.69849395751953 C 19.15968322753906 78.55668640136719 23.65165710449219 81.58545684814453 28.65262603759766 83.70068359375 C 33.82865142822266 85.88996887207031 39.32870864868164 87.00002288818359 44.99999618530273 87.00002288818359 C 50.67128372192383 87.00002288818359 56.17134094238281 85.88996887207031 61.34736633300781 83.70068359375 C 66.34834289550781 81.58545684814453 70.84030914306641 78.55668640136719 74.69847869873047 74.69849395751953 C 78.55665588378906 70.84032440185547 81.58542633056641 66.34836578369141 83.70065307617188 61.34738159179688 C 85.88993835449219 56.17135620117188 87 50.67129898071289 87 45.0000114440918 C 87 39.3287239074707 85.88993835449219 33.82866668701172 83.70065307617188 28.65264129638672 C 81.58542633056641 23.65165710449219 78.55665588378906 19.15969848632812 74.69847869873047 15.30152893066406 C 70.84030914306641 11.44333648681641 66.34834289550781 8.414566040039062 61.34736633300781 6.299339294433594 C 56.17134094238281 4.110054016113281 50.67128372192383 3 44.99999618530273 3 M 44.99999618530273 0 C 69.85281372070312 0 90 20.14719390869141 90 45.0000114440918 C 90 69.85282897949219 69.85281372070312 90.00002288818359 44.99999618530273 90.00002288818359 C 20.14717864990234 90.00002288818359 -7.62939453125e-06 69.85282897949219 -7.62939453125e-06 45.0000114440918 C -7.62939453125e-06 20.14719390869141 20.14717864990234 0 44.99999618530273 0 Z" stroke="none" fill="#6c4dd8"/>
                  </g>
                </g>
              </g>
            </g>
          </g>
        </g>
      </g>
    </g>
    <g id="save_12636235" transform="translate(1170.656 826)">
      <g id="Grupo_1223338" data-name="Grupo 1223338">
        <path id="Trazado_1057896" data-name="Trazado 1057896" d="M1,1H49V49H1Z" fill="#e7e7ff"/>
        <path id="Trazado_1057897" data-name="Trazado 1057897" d="M1,1V13H26l4-3H49V1Z" fill="#8c7689"/>
        <circle id="Elipse_12592" data-name="Elipse 12592" cx="2" cy="2" r="2" transform="translate(5 5)" fill="#63d8aa"/>
        <circle id="Elipse_12593" data-name="Elipse 12593" cx="2" cy="2" r="2" transform="translate(13 5)" fill="#fb8098"/>
        <circle id="Elipse_12594" data-name="Elipse 12594" cx="2" cy="2" r="2" transform="translate(21 5)" fill="#f1ce85"/>
        <path id="Trazado_1057898" data-name="Trazado 1057898" d="M34,18H16a3,3,0,0,0-3,3V44l9-5,9,5V30Z" fill="#63d8aa"/>
        <path id="Trazado_1057899" data-name="Trazado 1057899" d="M37,30H31V21a3,3,0,0,1,6,0Z" fill="#f1ce85"/>
      </g>
      <g id="Grupo_1223339" data-name="Grupo 1223339">
        <path id="Trazado_1057900" data-name="Trazado 1057900" d="M12,21V44a1,1,0,0,0,1.49.87L22,40.14l8.51,4.73A1,1,0,0,0,32,44V31h5a1,1,0,0,0,1-1V21a4,4,0,0,0-4-4H16A4,4,0,0,0,12,21Zm20,0a2,2,0,0,1,4,0v8H32Zm-2,0V42.3l-7.51-4.17a.986.986,0,0,0-.97,0L14,42.3V21a2.006,2.006,0,0,1,2-2H30.56A3.906,3.906,0,0,0,30,21Z"/>
        <path id="Trazado_1057901" data-name="Trazado 1057901" d="M49,0H1A1,1,0,0,0,0,1V49a1,1,0,0,0,1,1H49a1,1,0,0,0,1-1V1A1,1,0,0,0,49,0ZM48,48H2V14H26a.984.984,0,0,0,.6-.2L30.33,11H48ZM48,9H30a.984.984,0,0,0-.6.2L25.67,12H2V2H48Z"/>
        <path id="Trazado_1057902" data-name="Trazado 1057902" d="M7,10A3,3,0,1,0,4,7,3.009,3.009,0,0,0,7,10ZM7,6A1,1,0,1,1,6,7,1,1,0,0,1,7,6Z"/>
        <path id="Trazado_1057903" data-name="Trazado 1057903" d="M15,10a3,3,0,1,0-3-3A3.009,3.009,0,0,0,15,10Zm0-4a1,1,0,1,1-1,1A1,1,0,0,1,15,6Z"/>
        <path id="Trazado_1057904" data-name="Trazado 1057904" d="M23,10a3,3,0,1,0-3-3A3.009,3.009,0,0,0,23,10Zm0-4a1,1,0,1,1-1,1A1,1,0,0,1,23,6Z"/>
      </g>
    </g>
  </g>
</svg>
