<svg xmlns="http://www.w3.org/2000/svg" xmlns:xlink="http://www.w3.org/1999/xlink" width="108" height="108" viewBox="0 0 108 108">
  <defs>
    <filter id="Trazado_904820" x="0" y="0" width="108" height="108" filterUnits="userSpaceOnUse">
      <feOffset dy="3" input="SourceAlpha"/>
      <feGaussianBlur stdDeviation="3" result="blur"/>
      <feFlood flood-opacity="0.161"/>
      <feComposite operator="in" in2="blur"/>
      <feComposite in="SourceGraphic"/>
    </filter>
  </defs>
  <g id="Grupo_1223295" data-name="Grupo 1223295" transform="translate(-611.828 -688.071)">
    <g id="Grupo_1223229" data-name="Grupo 1223229" transform="translate(620.828 694.071)">
      <g id="Grupo_1173585" data-name="Grupo 1173585" transform="translate(0 0)">
        <g id="Grupo_1173428" data-name="Grupo 1173428">
          <g id="Grupo_1171958" data-name="Grupo 1171958">
            <g id="Grupo_1167341" data-name="Grupo 1167341">
              <g id="Grupo_1166792" data-name="Grupo 1166792">
                <g transform="matrix(1, 0, 0, 1, -9, -6)" filter="url(#Trazado_904820)">
                  <g id="Trazado_904820-2" data-name="Trazado 904820" transform="translate(9 6)" fill="#efecfa">
                    <path d="M 44.99999618530273 88.50002288818359 C 39.12687301635742 88.50002288818359 33.43022155761719 87.35009765625 28.06829643249512 85.08218383789062 C 22.88852119445801 82.89133453369141 18.23629570007324 79.75460815429688 14.24084663391113 75.75916290283203 C 10.24540901184082 71.76371002197266 7.108683586120605 67.11148834228516 4.917821407318115 61.93171310424805 C 2.649921178817749 56.56978607177734 1.499996185302734 50.87313461303711 1.499996185302734 45.0000114440918 C 1.499996185302734 39.12688827514648 2.649921178817749 33.43023681640625 4.917821407318115 28.06829833984375 C 7.108683586120605 22.88852310180664 10.24540901184082 18.2363109588623 14.24084663391113 14.2408618927002 C 18.23629570007324 10.24541187286377 22.88852119445801 7.108686447143555 28.06829643249512 4.917823791503906 C 33.43022155761719 2.649924039840698 39.12687301635742 1.499998927116394 44.99999618530273 1.499998927116394 C 50.87311935424805 1.499998927116394 56.56977081298828 2.649924039840698 61.93169784545898 4.917823791503906 C 67.11147308349609 7.108686447143555 71.76369476318359 10.24541187286377 75.75914764404297 14.2408618927002 C 79.75458526611328 18.2363109588623 82.89131164550781 22.88852310180664 85.08216857910156 28.06829833984375 C 87.35007476806641 33.43023681640625 88.5 39.12688827514648 88.5 45.0000114440918 C 88.5 50.87313461303711 87.35007476806641 56.56978607177734 85.08216857910156 61.93171310424805 C 82.89131164550781 67.11148834228516 79.75458526611328 71.76371002197266 75.75914764404297 75.75916290283203 C 71.76369476318359 79.75460815429688 67.11147308349609 82.89133453369141 61.93169784545898 85.08218383789062 C 56.56977081298828 87.35009765625 50.87311935424805 88.50002288818359 44.99999618530273 88.50002288818359 Z" stroke="none"/>
                    <path d="M 44.99999618530273 3 C 39.32870864868164 3 33.82865142822266 4.110054016113281 28.65262603759766 6.299339294433594 C 23.65165710449219 8.414566040039062 19.15968322753906 11.44333648681641 15.301513671875 15.30152893066406 C 11.44333648681641 19.15969848632812 8.414566040039062 23.65165710449219 6.299339294433594 28.65264129638672 C 4.110054016113281 33.82866668701172 2.999992370605469 39.3287239074707 2.999992370605469 45.0000114440918 C 2.999992370605469 50.67129898071289 4.110054016113281 56.17135620117188 6.299339294433594 61.34738159179688 C 8.414566040039062 66.34836578369141 11.44333648681641 70.84032440185547 15.301513671875 74.69849395751953 C 19.15968322753906 78.55668640136719 23.65165710449219 81.58545684814453 28.65262603759766 83.70068359375 C 33.82865142822266 85.88996887207031 39.32870864868164 87.00002288818359 44.99999618530273 87.00002288818359 C 50.67128372192383 87.00002288818359 56.17134094238281 85.88996887207031 61.34736633300781 83.70068359375 C 66.34834289550781 81.58545684814453 70.84030914306641 78.55668640136719 74.69847869873047 74.69849395751953 C 78.55665588378906 70.84032440185547 81.58542633056641 66.34836578369141 83.70065307617188 61.34738159179688 C 85.88993835449219 56.17135620117188 87 50.67129898071289 87 45.0000114440918 C 87 39.3287239074707 85.88993835449219 33.82866668701172 83.70065307617188 28.65264129638672 C 81.58542633056641 23.65165710449219 78.55665588378906 19.15969848632812 74.69847869873047 15.30152893066406 C 70.84030914306641 11.44333648681641 66.34834289550781 8.414566040039062 61.34736633300781 6.299339294433594 C 56.17134094238281 4.110054016113281 50.67128372192383 3 44.99999618530273 3 M 44.99999618530273 0 C 69.85281372070312 0 90 20.14719390869141 90 45.0000114440918 C 90 69.85282897949219 69.85281372070312 90.00002288818359 44.99999618530273 90.00002288818359 C 20.14717864990234 90.00002288818359 -7.62939453125e-06 69.85282897949219 -7.62939453125e-06 45.0000114440918 C -7.62939453125e-06 20.14719390869141 20.14717864990234 0 44.99999618530273 0 Z" stroke="none" fill="#6c4dd8"/>
                  </g>
                </g>
              </g>
            </g>
          </g>
        </g>
      </g>
    </g>
    <g id="message_6331115" transform="translate(638.586 711.607)">
      <path id="Trazado_1057676" data-name="Trazado 1057676" d="M13,17.979V2H25.615L27.3,4.523H44.958V17.979Z" transform="translate(-1.908 -0.159)" fill="#ec8329"/>
      <path id="Trazado_1057677" data-name="Trazado 1057677" d="M22.306,7H43.594V18.774H15V14.306A7.306,7.306,0,0,1,22.306,7Z" transform="translate(-2.226 -0.954)" fill="#f79b31"/>
      <path id="Trazado_1057678" data-name="Trazado 1057678" d="M17,18.251v-4.2L22.887,9H42.23v9.251Z" transform="translate(-2.544 -1.272)" fill="#fff"/>
      <path id="Trazado_1057679" data-name="Trazado 1057679" d="M49.732,49.071V25.523A2.523,2.523,0,0,0,47.209,23H8.523A2.523,2.523,0,0,0,6,25.523V49.071Z" transform="translate(-0.795 -3.498)" fill="#7288a0"/>
      <path id="Trazado_1057680" data-name="Trazado 1057680" d="M48.368,50.071H8V27.364A3.364,3.364,0,0,1,11.364,24H45a3.364,3.364,0,0,1,3.364,3.364Z" transform="translate(-1.113 -3.657)" fill="#95afd1"/>
      <path id="Trazado_1057681" data-name="Trazado 1057681" d="M2,54H52.46a6.728,6.728,0,0,1-6.728,6.728h-37A6.728,6.728,0,0,1,2,54Z" transform="translate(-0.159 -8.427)" fill="#636363"/>
      <path id="Trazado_1057682" data-name="Trazado 1057682" d="M9.2,58.2h37a4.2,4.2,0,0,0,4.2-4.2H5A4.2,4.2,0,0,0,9.2,58.2Z" transform="translate(-0.636 -8.427)" fill="#717272"/>
      <path id="Trazado_1057683" data-name="Trazado 1057683" d="M28.5,42.912H46.163L47,16H36.912L35.23,18.523H10l.841,24.389Z" transform="translate(-1.431 -2.385)" fill="#fcb732"/>
      <path id="Trazado_1057684" data-name="Trazado 1057684" d="M17,14.046h5.887V9Z" transform="translate(-2.544 -1.272)" fill="#d7e0ef"/>
      <path id="Trazado_1057685" data-name="Trazado 1057685" d="M38.138,54l-.229.917a3.232,3.232,0,0,1-3.135,2.447h-8.41a3.232,3.232,0,0,1-3.135-2.447L23,54Z" transform="translate(-3.498 -8.427)" fill="#adadad"/>
      <path id="Trazado_1057686" data-name="Trazado 1057686" d="M36.729,21.261a2.834,2.834,0,0,1-2.355,1.261H14.138l.116,3.375a18.281,18.281,0,0,0,18.27,17.65h14.3L47.557,20H39.084a2.834,2.834,0,0,0-2.355,1.261Z" transform="translate(-2.089 -3.021)" fill="#ffc76f"/>
      <path id="Trazado_1057687" data-name="Trazado 1057687" d="M35.41,33.092h.841l4.2,3.364V33.092a3.364,3.364,0,0,0,3.364-3.364V26.364A3.364,3.364,0,0,0,40.456,23H30.364A3.364,3.364,0,0,0,27,26.364V27.2Z" transform="translate(-4.134 -3.498)" fill="#c64417"/>
      <path id="Trazado_1057688" data-name="Trazado 1057688" d="M30.456,38.092H24.569l-4.2,3.364V38.092A3.364,3.364,0,0,1,17,34.728V31.364A3.364,3.364,0,0,1,20.364,28H30.456a3.364,3.364,0,0,1,3.364,3.364v3.364A3.364,3.364,0,0,1,30.456,38.092Z" transform="translate(-2.544 -4.293)" fill="#e26b50"/>
      <g id="Grupo_1223294" data-name="Grupo 1223294" transform="translate(17.82 27.912)">
        <path id="Trazado_1057689" data-name="Trazado 1057689" d="M21,33h1.682v1.682H21Z" transform="translate(-21 -33)" fill="#c64417"/>
        <path id="Trazado_1057690" data-name="Trazado 1057690" d="M26,33h1.682v1.682H26Z" transform="translate(-21.795 -33)" fill="#c64417"/>
        <path id="Trazado_1057691" data-name="Trazado 1057691" d="M31,33h1.682v1.682H31Z" transform="translate(-22.59 -33)" fill="#c64417"/>
      </g>
      <path id="Trazado_1057692" data-name="Trazado 1057692" d="M52.3,44.732H49.778V22.025a3.364,3.364,0,0,0-3.364-3.364h-.157l.157-5.02a.841.841,0,0,0-.841-.867H43.891V4.364a.841.841,0,0,0-.841-.841H25.839l-1.43-2.149a.841.841,0,0,0-.7-.374H11.092a.841.841,0,0,0-.841.841V15.3H8.569a.841.841,0,0,0-.841.87l.084,2.494H7.728a3.364,3.364,0,0,0-3.364,3.364V44.732H1.841A.841.841,0,0,0,1,45.573a7.578,7.578,0,0,0,7.569,7.569h37a7.578,7.578,0,0,0,7.569-7.569A.841.841,0,0,0,52.3,44.732ZM11.933,2.682H23.257l1.43,2.149a.841.841,0,0,0,.7.374h16.82v7.569H40.527V7.728a.841.841,0,0,0-.841-.841H20.343a.841.841,0,0,0-.547.2l-5.887,5.046a.841.841,0,0,0-.294.638V15.3H11.933ZM15.3,13.615h5.046a.841.841,0,0,0,.841-.841v-4.2H38.845v4.2H35.481a.841.841,0,0,0-.7.374L33.349,15.3H15.3Zm1.43-1.682L19.5,9.556v2.377ZM33.8,16.979a.841.841,0,0,0,.7-.374l1.432-2.149H44.7l-.788,25.23H10.222L9.439,16.979ZM6.046,22.025a1.682,1.682,0,0,1,1.682-1.682h.145l.7,20.213a.841.841,0,0,0,.841.812H44.732a.841.841,0,0,0,.841-.815l.631-20.21h.21A1.682,1.682,0,0,1,48.1,22.025V44.732H6.046Zm27.5,24.389A2.381,2.381,0,0,1,31.276,48.1h-8.41A2.381,2.381,0,0,1,20.6,46.414ZM45.573,51.46h-37a5.9,5.9,0,0,1-5.827-5.046h16.1l.07.279a4.066,4.066,0,0,0,3.951,3.085h8.41a4.066,4.066,0,0,0,3.953-3.085l.068-.279H51.4a5.9,5.9,0,0,1-5.827,5.046Z"/>
      <path id="Trazado_1057693" data-name="Trazado 1057693" d="M19.364,37.895V40.5a.841.841,0,0,0,1.367.657l3.975-3.18H30.3a4.2,4.2,0,0,0,4.183-3.987l3.7,2.962a.841.841,0,0,0,1.367-.657V33.69a4.212,4.212,0,0,0,3.364-4.121V26.2a4.21,4.21,0,0,0-4.2-4.2H28.615a4.21,4.21,0,0,0-4.2,4.2H20.2a4.21,4.21,0,0,0-4.2,4.2v3.364A4.212,4.212,0,0,0,19.364,37.895Zm9.251-14.213H38.707A2.523,2.523,0,0,1,41.23,26.2v3.364a2.523,2.523,0,0,1-2.523,2.523.841.841,0,0,0-.841.841v1.614l-2.838-2.271a.841.841,0,0,0-.526-.184V30.41a4.21,4.21,0,0,0-4.2-4.2h-4.2a2.523,2.523,0,0,1,2.523-2.523ZM17.682,30.41A2.523,2.523,0,0,1,20.2,27.887H30.3A2.523,2.523,0,0,1,32.82,30.41v3.364A2.523,2.523,0,0,1,30.3,36.3H24.41a.841.841,0,0,0-.526.184l-2.838,2.271V37.138A.841.841,0,0,0,20.2,36.3a2.523,2.523,0,0,1-2.523-2.523Z" transform="translate(-2.385 -3.339)"/>
      <path id="Trazado_1057694" data-name="Trazado 1057694" d="M21,33h1.682v1.682H21Z" transform="translate(-3.18 -5.088)"/>
      <path id="Trazado_1057695" data-name="Trazado 1057695" d="M26,33h1.682v1.682H26Z" transform="translate(-3.975 -5.088)"/>
      <path id="Trazado_1057696" data-name="Trazado 1057696" d="M31,33h1.682v1.682H31Z" transform="translate(-4.77 -5.088)"/>
    </g>
  </g>
</svg>
