<svg xmlns="http://www.w3.org/2000/svg" xmlns:xlink="http://www.w3.org/1999/xlink" width="123" height="123" viewBox="0 0 123 123">
  <defs>
    <filter id="Trazado_982547" x="0" y="0" width="123" height="123" filterUnits="userSpaceOnUse">
      <feOffset dy="3" input="SourceAlpha"/>
      <feGaussianBlur stdDeviation="3" result="blur"/>
      <feFlood flood-opacity="0.161"/>
      <feComposite operator="in" in2="blur"/>
      <feComposite in="SourceGraphic"/>
    </filter>
  </defs>
  <g id="Grupo_1223322" data-name="Grupo 1223322" transform="translate(-1159.156 -2780.439)">
    <g id="Grupo_1223227" data-name="Grupo 1223227" transform="translate(834.386 -200.256)">
      <g id="Grupo_1211203" data-name="Grupo 1211203" transform="translate(333.77 2986.695)">
        <g id="Grupo_1210937" data-name="Grupo 1210937" transform="translate(0 0)">
          <g id="Grupo_1174742" data-name="Grupo 1174742" transform="translate(0)">
            <g id="Grupo_1163948" data-name="Grupo 1163948">
              <g id="Grupo_1158168" data-name="Grupo 1158168">
                <g id="Grupo_1152576" data-name="Grupo 1152576">
                  <g id="Grupo_1148633" data-name="Grupo 1148633">
                    <g id="Grupo_1148525" data-name="Grupo 1148525">
                      <g transform="matrix(1, 0, 0, 1, -9, -6)" filter="url(#Trazado_982547)">
                        <g id="Trazado_982547-2" data-name="Trazado 982547" transform="translate(9 6)" fill="#fdf6e4">
                          <path d="M 52.49996948242188 103.4999389648438 C 45.61435699462891 103.4999389648438 38.93551254272461 102.1517105102539 32.64894104003906 99.49272918701172 C 26.57608413696289 96.92412567138672 21.12178421020508 93.24662780761719 16.43754005432129 88.56240081787109 C 11.75331211090088 83.87815856933594 8.075812339782715 78.42385864257812 5.507212162017822 72.35099792480469 C 2.848226547241211 66.06443023681641 1.499998092651367 59.38558197021484 1.499998092651367 52.49996948242188 C 1.499998092651367 45.61435699462891 2.848226547241211 38.93551254272461 5.507212162017822 32.64894104003906 C 8.075812339782715 26.57608413696289 11.75331211090088 21.12178421020508 16.43754005432129 16.43754005432129 C 21.12178421020508 11.75331211090088 26.57608413696289 8.075812339782715 32.64894104003906 5.507212162017822 C 38.93551254272461 2.848226547241211 45.61435699462891 1.499998092651367 52.49996948242188 1.499998092651367 C 59.38558197021484 1.499998092651367 66.06443023681641 2.848226547241211 72.35099792480469 5.507212162017822 C 78.42385864257812 8.075812339782715 83.87815856933594 11.75331211090088 88.56240081787109 16.43754005432129 C 93.24662780761719 21.12178421020508 96.92412567138672 26.57608413696289 99.49272918701172 32.64894104003906 C 102.1517105102539 38.93551254272461 103.4999389648438 45.61435699462891 103.4999389648438 52.49996948242188 C 103.4999389648438 59.38558197021484 102.1517105102539 66.06443023681641 99.49272918701172 72.35099792480469 C 96.92412567138672 78.42385864257812 93.24662780761719 83.87815856933594 88.56240081787109 88.56240081787109 C 83.87815856933594 93.24662780761719 78.42385864257812 96.92412567138672 72.35099792480469 99.49272918701172 C 66.06443023681641 102.1517105102539 59.38558197021484 103.4999389648438 52.49996948242188 103.4999389648438 Z" stroke="none"/>
                          <path d="M 52.49996948242188 3 C 45.81618499755859 3 39.33393859863281 4.308349609375 33.23326873779297 6.888717651367188 C 27.33920288085938 9.381706237792969 22.045166015625 12.95125579833984 17.49819946289062 17.49819946289062 C 12.95125579833984 22.045166015625 9.381706237792969 27.33920288085938 6.888717651367188 33.23326873779297 C 4.308349609375 39.33393859863281 3 45.81618499755859 3 52.49996948242188 C 3 59.18375396728516 4.308349609375 65.66600036621094 6.888717651367188 71.76667022705078 C 9.381706237792969 77.66073608398438 12.95125579833984 82.95477294921875 17.49819946289062 87.50173950195312 C 22.045166015625 92.04868316650391 27.33920288085938 95.61824035644531 33.23326873779297 98.11122131347656 C 39.33393859863281 100.6915893554688 45.81618499755859 101.9999389648438 52.49996948242188 101.9999389648438 C 59.18375396728516 101.9999389648438 65.66600036621094 100.6915893554688 71.76667022705078 98.11122131347656 C 77.66073608398438 95.61824035644531 82.95477294921875 92.04868316650391 87.50173950195312 87.50173950195312 C 92.04868316650391 82.95477294921875 95.61824035644531 77.66073608398438 98.11122131347656 71.76667022705078 C 100.6915893554688 65.66600036621094 101.9999389648438 59.18375396728516 101.9999389648438 52.49996948242188 C 101.9999389648438 45.81618499755859 100.6915893554688 39.33393859863281 98.11122131347656 33.23326873779297 C 95.61824035644531 27.33920288085938 92.04868316650391 22.045166015625 87.50173950195312 17.49819946289062 C 82.95477294921875 12.95125579833984 77.66073608398438 9.381706237792969 71.76667022705078 6.888717651367188 C 65.66600036621094 4.308349609375 59.18375396728516 3 52.49996948242188 3 M 52.49996948242188 0 C 81.49490356445312 0 104.9999389648438 23.50503540039062 104.9999389648438 52.49996948242188 C 104.9999389648438 81.49490356445312 81.49490356445312 104.9999389648438 52.49996948242188 104.9999389648438 C 23.50503540039062 104.9999389648438 0 81.49490356445312 0 52.49996948242188 C 0 23.50503540039062 23.50503540039062 0 52.49996948242188 0 Z" stroke="none" fill="#f5b104"/>
                        </g>
                      </g>
                    </g>
                  </g>
                </g>
              </g>
            </g>
          </g>
        </g>
      </g>
    </g>
    <g id="database_1925151" transform="translate(1187.875 2808)">
      <g id="Grupo_1223321" data-name="Grupo 1223321" transform="translate(51.236 2.025)">
        <path id="Trazado_1057797" data-name="Trazado 1057797" d="M62.3,34V46.3H50V34Z" transform="translate(-50 -1.193)" fill="#ffeaa7"/>
        <path id="Trazado_1057798" data-name="Trazado 1057798" d="M62.3,18V30.3H50V18Z" transform="translate(-50 -1.596)" fill="#ffeaa7"/>
        <path id="Trazado_1057799" data-name="Trazado 1057799" d="M62.3,2V14.3H50V2Z" transform="translate(-50 -2)" fill="#ffeaa7"/>
      </g>
      <path id="Trazado_1057800" data-name="Trazado 1057800" d="M16.353,25.931v6.151C8.08,31.251,2,28.463,2,25.151V19C2,22.311,8.08,25.1,16.353,25.931Z" transform="translate(0.025 0.454)" fill="#fcd770"/>
      <path id="Trazado_1057801" data-name="Trazado 1057801" d="M40.5,24.126v1.025c0,3.834-8.171,6.972-18.454,7.166v.01A2.056,2.056,0,0,0,20,34.378V26.166c.338.01.677.01,1.025.01C31.78,26.177,40.5,22.968,40.5,19Z" transform="translate(0.479 0.454)" fill="#fcd770"/>
      <path id="Trazado_1057802" data-name="Trazado 1057802" d="M16.353,31.931v6.151C8.08,37.251,2,34.463,2,31.151V25c0,3.311,6.08,6.1,14.353,6.931Z" transform="translate(0.025 0.605)" fill="#ffeaa7"/>
      <path id="Trazado_1057803" data-name="Trazado 1057803" d="M30.2,36.277a2.056,2.056,0,0,0-2.05,2.05v-2.05a2.065,2.065,0,0,0-2.05-2.05,2.056,2.056,0,0,0-2.05,2.05v-2.05A2.065,2.065,0,0,0,22,32.177v-.01C32.283,31.972,40.454,28.834,40.454,25v6.151c0,2.481-3.414,4.665-8.612,5.957a1.336,1.336,0,0,0-.195-.226A2,2,0,0,0,30.2,36.277Z" transform="translate(0.53 0.605)" fill="#ffeaa7"/>
      <path id="Trazado_1057804" data-name="Trazado 1057804" d="M40.959,13v6.151c0,3.968-8.725,7.177-19.479,7.177-.349,0-.687,0-1.025-.01V25.3a2.065,2.065,0,0,0-2.05-2.05,2.056,2.056,0,0,0-2.05,2.05v.779C8.08,25.251,2,22.463,2,19.151V13c0,3.968,8.725,7.177,19.479,7.177S40.959,16.968,40.959,13Z" transform="translate(0.025 0.303)" fill="#ffeaa7"/>
      <path id="Trazado_1057805" data-name="Trazado 1057805" d="M40.959,13.177c0,3.968-8.725,7.177-19.479,7.177S2,17.144,2,13.177,10.725,6,21.479,6,40.959,9.209,40.959,13.177Z" transform="translate(0.025 0.126)" fill="#fcd770"/>
      <ellipse id="Elipse_12588" data-name="Elipse 12588" cx="13.5" cy="3" rx="13.5" ry="3" transform="translate(8 10)" fill="#5cd6b3"/>
      <path id="Trazado_1057806" data-name="Trazado 1057806" d="M28.555,38.378a2.056,2.056,0,0,1,2.05-2.05,2,2,0,0,1,1.446.6,1.336,1.336,0,0,1,.195.226,1.967,1.967,0,0,1,.41,1.22V51.706a6.143,6.143,0,0,1-1.23,3.691L29.58,57.858v5.126h-16.4V57.858l-2.6-2.6a6.187,6.187,0,0,1-1.763-3.588l-.595-4.8a5.631,5.631,0,0,0-.892-2.409L6.267,42.879A1.583,1.583,0,0,1,6,42.008V42a1.577,1.577,0,0,1,1.579-1.569,5.6,5.6,0,0,1,3.537,1.261,5.528,5.528,0,0,1,1.927,3.229c.554,2.758,1.159,5.762,1.159,5.762h1.025l.595-1.189a4.016,4.016,0,0,0,.431-1.825V25.05A2.056,2.056,0,0,1,18.3,23a2.065,2.065,0,0,1,2.05,2.05v9.227a2.056,2.056,0,0,1,2.05-2.05,2.065,2.065,0,0,1,2.05,2.05v2.05a2.056,2.056,0,0,1,2.05-2.05,2.065,2.065,0,0,1,2.05,2.05Z" transform="translate(0.126 0.555)" fill="#f0d0b4"/>
      <path id="Trazado_1057807" data-name="Trazado 1057807" d="M21.353,17.2c1.469,0,14.353-.115,14.353-4.1S22.822,9,21.353,9,7,9.115,7,13.1,19.884,17.2,21.353,17.2Zm0-6.151c7.1,0,11.511,1.264,12.245,2.05-.735.786-5.143,2.05-12.245,2.05S9.842,13.887,9.108,13.1C9.842,12.315,14.249,11.05,21.353,11.05Z" transform="translate(0.151 0.202)"/>
      <path id="Trazado_1057808" data-name="Trazado 1057808" d="M64.564,15.353V1H50.211V7.151H44.059v16.4h-2.05V13.3c0-5.327-10.565-8.2-20.5-8.2S1,7.976,1,13.3V31.757c0,3.765,5.606,6.8,14.353,7.837v8.623a3.075,3.075,0,0,1-.314,1.352l-.86-4.3A6.626,6.626,0,0,0,7.7,39.959,2.6,2.6,0,0,0,5.538,44l1.055,1.582a4.582,4.582,0,0,1,.73,1.964l.6,4.8A7.2,7.2,0,0,0,9.97,56.529l2.308,2.308v5.727H30.732v-5.81l1.64-2.187a7.22,7.22,0,0,0,1.435-4.306V38.933a3.093,3.093,0,0,0-.053-.528c5.264-1.51,8.255-3.9,8.255-6.649V25.605h2.05v16.4h6.151V48.16H64.564V33.807H50.211v6.151h-4.1V25.605h4.1v6.151H64.564V17.4H50.211v6.151h-4.1V9.2h4.1v6.151ZM22.509,31.747v.012a3.039,3.039,0,0,0-1.006.187v-4.29c7.287,0,14.9-1.547,18.454-4.47v2.42c0,2.805-7.01,5.942-17.448,6.141Zm-1-24.6c10.875,0,18.454,3.242,18.454,6.151S32.379,19.454,21.5,19.454,3.05,16.212,3.05,13.3,10.63,7.151,21.5,7.151ZM3.05,17.035C6.6,19.957,14.217,21.5,21.5,21.5s14.9-1.547,18.454-4.47v2.42c0,2.91-7.579,6.151-18.454,6.151a3.068,3.068,0,0,0-6.113-.374C7.373,24.24,3.05,21.569,3.05,19.454Zm0,6.119c2.37,1.98,6.684,3.47,12.3,4.139v4.088c-7.995-1-12.3-3.662-12.3-5.774Zm0,8.6V29.3c2.37,1.98,6.683,3.47,12.3,4.138V37.53C7.358,36.534,3.05,33.869,3.05,31.757Zm28.706,20.5a5.155,5.155,0,0,1-1.025,3.076l-2.05,2.734v4.442H14.328V57.988L11.419,55.08a5.154,5.154,0,0,1-1.462-2.99l-.6-4.8A6.635,6.635,0,0,0,8.3,44.444L7.244,42.862a.549.549,0,0,1,.456-.853,4.57,4.57,0,0,1,4.469,3.663l1.319,6.589h2.5l.876-1.751a5.174,5.174,0,0,0,.54-2.292V25.605a1.025,1.025,0,0,1,2.05,0V51.236H21.5v-16.4a1.025,1.025,0,0,1,2.05,0v16.4h2.05V36.883a1.025,1.025,0,1,1,2.05,0V51.236h2.05v-12.3a1.025,1.025,0,1,1,2.05,0Zm.922-15.689a3.011,3.011,0,0,0-3.091-.489,3.05,3.05,0,0,0-4.1-2.05,3.079,3.079,0,0,0-.114-.365c7.132-.486,12.04-2.241,14.586-4.4v2.492c0,1.76-2.841,3.625-7.28,4.815Zm19.583-.715H62.514V46.11H52.261Zm0-16.4H62.514V29.706H52.261Zm0-16.4H62.514V13.3H52.261Z"/>
      <path id="Trazado_1057809" data-name="Trazado 1057809" d="M53,5h6.151V7.05H53Z" transform="translate(1.312 0.101)"/>
      <path id="Trazado_1057810" data-name="Trazado 1057810" d="M53,9h6.151v2.05H53Z" transform="translate(1.312 0.202)"/>
      <path id="Trazado_1057811" data-name="Trazado 1057811" d="M53,21h6.151v2.05H53Z" transform="translate(1.312 0.505)"/>
      <path id="Trazado_1057812" data-name="Trazado 1057812" d="M53,25h6.151v2.05H53Z" transform="translate(1.312 0.605)"/>
      <path id="Trazado_1057813" data-name="Trazado 1057813" d="M53,37h6.151v2.05H53Z" transform="translate(1.312 0.908)"/>
      <path id="Trazado_1057814" data-name="Trazado 1057814" d="M53,41h6.151v2.05H53Z" transform="translate(1.312 1.009)"/>
    </g>
  </g>
</svg>
