<svg xmlns="http://www.w3.org/2000/svg" xmlns:xlink="http://www.w3.org/1999/xlink" width="123" height="123" viewBox="0 0 123 123">
  <defs>
    <filter id="Trazado_982547" x="0" y="0" width="123" height="123" filterUnits="userSpaceOnUse">
      <feOffset dy="3" input="SourceAlpha"/>
      <feGaussianBlur stdDeviation="3" result="blur"/>
      <feFlood flood-opacity="0.161"/>
      <feComposite operator="in" in2="blur"/>
      <feComposite in="SourceGraphic"/>
    </filter>
  </defs>
  <g id="Grupo_1223346" data-name="Grupo 1223346" transform="translate(-581.125 -2441.026)">
    <g id="Grupo_1223280" data-name="Grupo 1223280" transform="translate(590.125 2447.026)">
      <g id="Grupo_1211203" data-name="Grupo 1211203" transform="translate(0 0)">
        <g id="Grupo_1210937" data-name="Grupo 1210937" transform="translate(0 0)">
          <g id="Grupo_1174742" data-name="Grupo 1174742">
            <g id="Grupo_1163948" data-name="Grupo 1163948">
              <g id="Grupo_1158168" data-name="Grupo 1158168">
                <g id="Grupo_1152576" data-name="Grupo 1152576">
                  <g id="Grupo_1148633" data-name="Grupo 1148633">
                    <g id="Grupo_1148525" data-name="Grupo 1148525">
                      <g transform="matrix(1, 0, 0, 1, -9, -6)" filter="url(#Trazado_982547)">
                        <g id="Trazado_982547-2" data-name="Trazado 982547" transform="translate(9 6)" fill="#fdf6e4">
                          <path d="M 52.49996948242188 103.4999389648438 C 45.61435699462891 103.4999389648438 38.93551254272461 102.1517105102539 32.64894104003906 99.49272918701172 C 26.57608413696289 96.92412567138672 21.12178421020508 93.24662780761719 16.43754005432129 88.56240081787109 C 11.75331211090088 83.87815856933594 8.075812339782715 78.42385864257812 5.507212162017822 72.35099792480469 C 2.848226547241211 66.06443023681641 1.499998092651367 59.38558197021484 1.499998092651367 52.49996948242188 C 1.499998092651367 45.61435699462891 2.848226547241211 38.93551254272461 5.507212162017822 32.64894104003906 C 8.075812339782715 26.57608413696289 11.75331211090088 21.12178421020508 16.43754005432129 16.43754005432129 C 21.12178421020508 11.75331211090088 26.57608413696289 8.075812339782715 32.64894104003906 5.507212162017822 C 38.93551254272461 2.848226547241211 45.61435699462891 1.499998092651367 52.49996948242188 1.499998092651367 C 59.38558197021484 1.499998092651367 66.06443023681641 2.848226547241211 72.35099792480469 5.507212162017822 C 78.42385864257812 8.075812339782715 83.87815856933594 11.75331211090088 88.56240081787109 16.43754005432129 C 93.24662780761719 21.12178421020508 96.92412567138672 26.57608413696289 99.49272918701172 32.64894104003906 C 102.1517105102539 38.93551254272461 103.4999389648438 45.61435699462891 103.4999389648438 52.49996948242188 C 103.4999389648438 59.38558197021484 102.1517105102539 66.06443023681641 99.49272918701172 72.35099792480469 C 96.92412567138672 78.42385864257812 93.24662780761719 83.87815856933594 88.56240081787109 88.56240081787109 C 83.87815856933594 93.24662780761719 78.42385864257812 96.92412567138672 72.35099792480469 99.49272918701172 C 66.06443023681641 102.1517105102539 59.38558197021484 103.4999389648438 52.49996948242188 103.4999389648438 Z" stroke="none"/>
                          <path d="M 52.49996948242188 3 C 45.81618499755859 3 39.33393859863281 4.308349609375 33.23326873779297 6.888717651367188 C 27.33920288085938 9.381706237792969 22.045166015625 12.95125579833984 17.49819946289062 17.49819946289062 C 12.95125579833984 22.045166015625 9.381706237792969 27.33920288085938 6.888717651367188 33.23326873779297 C 4.308349609375 39.33393859863281 3 45.81618499755859 3 52.49996948242188 C 3 59.18375396728516 4.308349609375 65.66600036621094 6.888717651367188 71.76667022705078 C 9.381706237792969 77.66073608398438 12.95125579833984 82.95477294921875 17.49819946289062 87.50173950195312 C 22.045166015625 92.04868316650391 27.33920288085938 95.61824035644531 33.23326873779297 98.11122131347656 C 39.33393859863281 100.6915893554688 45.81618499755859 101.9999389648438 52.49996948242188 101.9999389648438 C 59.18375396728516 101.9999389648438 65.66600036621094 100.6915893554688 71.76667022705078 98.11122131347656 C 77.66073608398438 95.61824035644531 82.95477294921875 92.04868316650391 87.50173950195312 87.50173950195312 C 92.04868316650391 82.95477294921875 95.61824035644531 77.66073608398438 98.11122131347656 71.76667022705078 C 100.6915893554688 65.66600036621094 101.9999389648438 59.18375396728516 101.9999389648438 52.49996948242188 C 101.9999389648438 45.81618499755859 100.6915893554688 39.33393859863281 98.11122131347656 33.23326873779297 C 95.61824035644531 27.33920288085938 92.04868316650391 22.045166015625 87.50173950195312 17.49819946289062 C 82.95477294921875 12.95125579833984 77.66073608398438 9.381706237792969 71.76667022705078 6.888717651367188 C 65.66600036621094 4.308349609375 59.18375396728516 3 52.49996948242188 3 M 52.49996948242188 0 C 81.49490356445312 0 104.9999389648438 23.50503540039062 104.9999389648438 52.49996948242188 C 104.9999389648438 81.49490356445312 81.49490356445312 104.9999389648438 52.49996948242188 104.9999389648438 C 23.50503540039062 104.9999389648438 0 81.49490356445312 0 52.49996948242188 C 0 23.50503540039062 23.50503540039062 0 52.49996948242188 0 Z" stroke="none" fill="#f5b104"/>
                        </g>
                      </g>
                    </g>
                  </g>
                </g>
              </g>
            </g>
          </g>
        </g>
      </g>
    </g>
    <g id="Fill_out_line" data-name="Fill out line" transform="translate(591.833 2447.734)">
      <path id="Trazado_1057930" data-name="Trazado 1057930" d="M119.667,214.389H64L91.834,168Z" transform="translate(-41.041 -129.965)" fill="#eb4042"/>
      <path id="Trazado_1057931" data-name="Trazado 1057931" d="M153.751,339.6H112l6.958-11.6h27.834Z" transform="translate(-82.083 -266.77)" fill="#f5c533"/>
      <path id="Trazado_1057932" data-name="Trazado 1057932" d="M187.834,259.6H160l6.958-11.6h13.917Z" transform="translate(-123.125 -198.368)" fill="#91d3ee"/>
      <path id="Trazado_1057933" data-name="Trazado 1057933" d="M88.236,32.118a8.1,8.1,0,1,1-2.372-5.746A8.118,8.118,0,0,1,88.236,32.118Z" transform="translate(-47.882 -6.84)" fill="#91d3ee"/>
      <path id="Trazado_1057934" data-name="Trazado 1057934" d="M133.741,85.741A8.1,8.1,0,0,1,128,88.118V80Z" transform="translate(-95.763 -54.722)" fill="#a9ca2a"/>
      <g id="Grupo_1223345" data-name="Grupo 1223345" transform="translate(67.029 26.438)">
        <path id="Trazado_1057935" data-name="Trazado 1057935" d="M368,152h4.639v6.958H368Z" transform="translate(-368 -142.722)" fill="#91d3ee"/>
        <path id="Trazado_1057936" data-name="Trazado 1057936" d="M400,120h4.639v11.6H400Z" transform="translate(-395.361 -115.361)" fill="#91d3ee"/>
        <path id="Trazado_1057937" data-name="Trazado 1057937" d="M432,88h4.639v16.236H432Z" transform="translate(-422.722 -88)" fill="#91d3ee"/>
      </g>
      <path id="Trazado_1057938" data-name="Trazado 1057938" d="M221.917,179.6H208l6.958-11.6Z" transform="translate(-164.166 -129.965)" fill="#a9ca2a"/>
      <path id="Trazado_1057939" data-name="Trazado 1057939" d="M113.837,208.12a1.159,1.159,0,0,1-1.009.589H57.16a1.16,1.16,0,0,1-.994-1.757l9.046-15.077L67.2,193.07l-1.034,1.722h37.654l-5.567-9.278H71.734l-.358.6-1.989-1.195,9.742-16.236,1.989,1.195L80.084,171.6H89.9l-4.91-8.183-.4.663-1.989-1.195L84,160.563a1.16,1.16,0,0,1,1.989,0l7.654,12.757-1.989,1.195-.358-.6h-12.6l-5.567,9.278H96.863l-1.034-1.722,1.989-1.195,10.438,17.4-1.989,1.195-1.054-1.757H64.775l-5.567,9.278h51.571l-1.034-1.722,1.989-1.195,2.088,3.479a1.161,1.161,0,0,1,.015,1.168Z" transform="translate(-34.202 -123.125)"/>
      <path id="Trazado_1057940" data-name="Trazado 1057940" d="M81.278,16a9.278,9.278,0,1,0,9.278,9.278A9.278,9.278,0,0,0,81.278,16Zm-6.958,9.278a6.958,6.958,0,1,1,12.63,4.03L82.1,24.457a1.16,1.16,0,0,0-1.98.821v6.861a6.968,6.968,0,0,1-5.8-6.861Zm8.118,6.861V28.077l2.87,2.872a6.9,6.9,0,0,1-2.87,1.19Z" transform="translate(-47.882)"/>
      <path id="Trazado_1057941" data-name="Trazado 1057941" d="M137.736,163.258l-8.938-8.938H120V152h9.278a1.16,1.16,0,0,1,.82.34l9.278,9.278Z" transform="translate(-88.923 -116.284)"/>
      <path id="Trazado_1057942" data-name="Trazado 1057942" d="M291.983,236.417l-1.64-1.64,10.438-10.438a1.16,1.16,0,0,1,.82-.34h15.077v2.319h-14.6Z" transform="translate(-234.572 -177.847)"/>
      <path id="Trazado_1057943" data-name="Trazado 1057943" d="M395.983,416.938l-1.64-1.64,6.958-6.958a1.16,1.16,0,0,1,.82-.34h6.958v2.319H402.6Z" transform="translate(-323.495 -335.173)"/>
      <path id="Trazado_1057944" data-name="Trazado 1057944" d="M375.077,80h-4.639a1.159,1.159,0,0,0-1.16,1.16v3.479H365.8a1.159,1.159,0,0,0-1.16,1.16v3.479H361.16a1.159,1.159,0,0,0-1.16,1.16V97.4a1.159,1.159,0,0,0,1.16,1.16h13.917a1.159,1.159,0,0,0,1.16-1.16V81.16A1.159,1.159,0,0,0,375.077,80ZM364.639,96.236h-2.319V91.6h2.319Zm4.639,0h-2.319V86.958h2.319Zm4.639,0H371.6V82.319h2.319Z" transform="translate(-294.131 -54.722)"/>
      <path id="Trazado_1057945" data-name="Trazado 1057945" d="M422.758,353.16V357.8h-2.319v-1.838l-2.659,2.659a1.162,1.162,0,0,1-1.641,0l-1.5-1.5-2.659,2.66-1.641-1.641,3.479-3.479a1.162,1.162,0,0,1,1.641,0l1.5,1.5,1.84-1.84h-1.84V352H421.6A1.159,1.159,0,0,1,422.758,353.16Z" transform="translate(-337.174 -287.291)"/>
      <path id="Trazado_1057946" data-name="Trazado 1057946" d="M36.055,315.258l-8.938-8.938H16V304H27.6a1.16,1.16,0,0,1,.82.34l9.278,9.278Z" transform="translate(0 -246.249)"/>
      <path id="Trazado_1057947" data-name="Trazado 1057947" d="M39.7,211.169l-1.641-1.641-4.638,4.638a3.5,3.5,0,0,0-3,0l-1.157-1.157a3.479,3.479,0,1,0-6.283,0l-4.638,4.637,1.641,1.641,4.637-4.637a3.5,3.5,0,0,0,3,0l1.157,1.157a3.479,3.479,0,1,0,6.283,0Zm-14.4,1.161a1.162,1.162,0,1,1,.819.338,1.162,1.162,0,0,1-.819-.338Zm6.618,6.136a1.16,1.16,0,1,1,1.16-1.16A1.161,1.161,0,0,1,31.918,218.467Z" transform="translate(-2.001 -164.196)"/>
    </g>
  </g>
</svg>
