<svg xmlns="http://www.w3.org/2000/svg" xmlns:xlink="http://www.w3.org/1999/xlink" width="108" height="108" viewBox="0 0 108 108">
  <defs>
    <filter id="Trazado_904820" x="0" y="0" width="108" height="108" filterUnits="userSpaceOnUse">
      <feOffset dy="3" input="SourceAlpha"/>
      <feGaussianBlur stdDeviation="3" result="blur"/>
      <feFlood flood-opacity="0.161"/>
      <feComposite operator="in" in2="blur"/>
      <feComposite in="SourceGraphic"/>
    </filter>
  </defs>
  <g id="Grupo_1223332" data-name="Grupo 1223332" transform="translate(-200.656 -337)">
    <g id="Grupo_1174741" data-name="Grupo 1174741" transform="translate(209.656 343)">
      <g id="Grupo_1173585" data-name="Grupo 1173585" transform="translate(0 0)">
        <g id="Grupo_1173428" data-name="Grupo 1173428">
          <g id="Grupo_1171958" data-name="Grupo 1171958">
            <g id="Grupo_1167341" data-name="Grupo 1167341">
              <g id="Grupo_1166792" data-name="Grupo 1166792">
                <g transform="matrix(1, 0, 0, 1, -9, -6)" filter="url(#Trazado_904820)">
                  <g id="Trazado_904820-2" data-name="Trazado 904820" transform="translate(9 6)" fill="#fdf6e4">
                    <path d="M 44.99999618530273 88.5 C 39.12687301635742 88.5 33.43022155761719 87.35007476806641 28.06829643249512 85.08216094970703 C 22.88852119445801 82.89131164550781 18.23629570007324 79.75458526611328 14.24084663391113 75.75913238525391 C 10.24540901184082 71.76368713378906 7.108683586120605 67.11145782470703 4.917821407318115 61.93169784545898 C 2.649921178817749 56.56975936889648 1.499996185302734 50.87311935424805 1.499996185302734 44.99999618530273 C 1.499996185302734 39.12687301635742 2.649921178817749 33.43022155761719 4.917821407318115 28.06829643249512 C 7.108683586120605 22.88852119445801 10.24540901184082 18.23629570007324 14.24084663391113 14.24084663391113 C 18.23629570007324 10.24540901184082 22.88852119445801 7.108683586120605 28.06829643249512 4.917821407318115 C 33.43022155761719 2.649921178817749 39.12687301635742 1.499996185302734 44.99999618530273 1.499996185302734 C 50.87311935424805 1.499996185302734 56.56977081298828 2.649921178817749 61.93169784545898 4.917821407318115 C 67.11147308349609 7.108683586120605 71.76369476318359 10.24540901184082 75.75914764404297 14.24084663391113 C 79.75458526611328 18.23629570007324 82.89131164550781 22.88852119445801 85.08216857910156 28.06829643249512 C 87.35007476806641 33.43022155761719 88.5 39.12687301635742 88.5 44.99999618530273 C 88.5 50.87311935424805 87.35007476806641 56.56975936889648 85.08216857910156 61.93169784545898 C 82.89131164550781 67.11145782470703 79.75458526611328 71.76368713378906 75.75914764404297 75.75913238525391 C 71.76369476318359 79.75458526611328 67.11147308349609 82.89131164550781 61.93169784545898 85.08216094970703 C 56.56977081298828 87.35007476806641 50.87311935424805 88.5 44.99999618530273 88.5 Z" stroke="none"/>
                    <path d="M 44.99999618530273 2.999992370605469 C 39.32870864868164 2.999992370605469 33.82865142822266 4.110054016113281 28.65262603759766 6.299339294433594 C 23.65165710449219 8.414566040039062 19.15968322753906 11.44333648681641 15.301513671875 15.301513671875 C 11.44333648681641 19.15968322753906 8.414566040039062 23.65165710449219 6.299339294433594 28.65262603759766 C 4.110054016113281 33.82865142822266 2.999992370605469 39.32870864868164 2.999992370605469 44.99999618530273 C 2.999992370605469 50.67128372192383 4.110054016113281 56.17132568359375 6.299339294433594 61.34736633300781 C 8.414566040039062 66.34834289550781 11.44333648681641 70.84029388427734 15.301513671875 74.69847869873047 C 19.15968322753906 78.55665588378906 23.65165710449219 81.58542633056641 28.65262603759766 83.70065307617188 C 33.82865142822266 85.88993835449219 39.32870864868164 87 44.99999618530273 87 C 50.67128372192383 87 56.17134094238281 85.88993835449219 61.34736633300781 83.70065307617188 C 66.34834289550781 81.58542633056641 70.84030914306641 78.55665588378906 74.69847869873047 74.69847869873047 C 78.55665588378906 70.84029388427734 81.58542633056641 66.34834289550781 83.70065307617188 61.34736633300781 C 85.88993835449219 56.17132568359375 87 50.67128372192383 87 44.99999618530273 C 87 39.32870864868164 85.88993835449219 33.82865142822266 83.70065307617188 28.65262603759766 C 81.58542633056641 23.65165710449219 78.55665588378906 19.15968322753906 74.69847869873047 15.301513671875 C 70.84030914306641 11.44333648681641 66.34834289550781 8.414566040039062 61.34736633300781 6.299339294433594 C 56.17134094238281 4.110054016113281 50.67128372192383 2.999992370605469 44.99999618530273 2.999992370605469 M 44.99999618530273 -7.62939453125e-06 C 69.85281372070312 -7.62939453125e-06 90 20.14717864990234 90 44.99999618530273 C 90 69.85279846191406 69.85281372070312 90 44.99999618530273 90 C 20.14717864990234 90 -7.62939453125e-06 69.85279846191406 -7.62939453125e-06 44.99999618530273 C -7.62939453125e-06 20.14717864990234 20.14717864990234 -7.62939453125e-06 44.99999618530273 -7.62939453125e-06 Z" stroke="none" fill="#856002"/>
                  </g>
                </g>
              </g>
            </g>
          </g>
        </g>
      </g>
    </g>
    <g id="time-management_9799706" transform="translate(205.577 312.245)">
      <path id="Trazado_1057866" data-name="Trazado 1057866" d="M43.1,195.271a6.866,6.866,0,0,0-1.085-.349.986.986,0,0,1-.786-.836L41,192.412h-.553v0h-.554l-.229,1.665a.986.986,0,0,1-.762.836,6.866,6.866,0,0,0-1.109.354,6.938,6.938,0,0,0-1,.51.987.987,0,0,1-1.164-.019l-1.349-1.022-.391.391-.391.391,1.022,1.349h0a.986.986,0,0,1,.047,1.119,6.982,6.982,0,0,0-.886,2.125.986.986,0,0,1-.836.786l-1.67.23v1.107l1.665.229a.986.986,0,0,1,.836.762,6.975,6.975,0,0,0,.864,2.106.988.988,0,0,1-.019,1.164L33.5,207.848l.391.391.391.391,1.349-1.022h0a.986.986,0,0,1,1.119-.047,6.983,6.983,0,0,0,2.125.886.986.986,0,0,1,.786.836l.231,1.674h.553v0H41l.229-1.665a.986.986,0,0,1,.762-.836,6.98,6.98,0,0,0,2.106-.864.988.988,0,0,1,1.164.019l1.349,1.022.391-.391.391-.391L46.37,206.5h0a.986.986,0,0,1-.047-1.119,6.981,6.981,0,0,0,.886-2.125.986.986,0,0,1,.836-.786l1.674-.231v-.553h0v-.554l-1.665-.229a.986.986,0,0,1-.836-.762,6.85,6.85,0,0,0-.354-1.109,6.936,6.936,0,0,0-.51-1,.987.987,0,0,1,.019-1.164l1.022-1.349L47,195.13l-.391-.391-1.349,1.022h0a.986.986,0,0,1-1.119.047,6.922,6.922,0,0,0-1.04-.537Z" transform="translate(-13.201 -124.941)" fill="#93deb7" fill-rule="evenodd"/>
      <path id="Trazado_1057867" data-name="Trazado 1057867" d="M103.388,275.507l0,.031q-.024.364-.024.791a11.967,11.967,0,1,0,11.967-11.967q-.441,0-.828.026l-.032,0v1.283a.985.985,0,0,1-.854.976h0l-1.877.258q-.121.392-.275.763t-.345.733l1.148,1.515a.987.987,0,0,1-.09,1.293h0l-1,1-1,1a.989.989,0,0,1-1.338.055l-1.471-1.115q-.359.189-.733.345t-.763.275l-.259,1.877a.986.986,0,0,1-.977.855v0Z" transform="translate(-75.98 -187.517)" fill="#93deb7" fill-rule="evenodd"/>
      <path id="Trazado_1057868" data-name="Trazado 1057868" d="M235.223,193.6V182.536h-2.968v9.541a13.9,13.9,0,0,1,2.968,1.522Z" transform="translate(-188.081 -116.352)" fill="#fd9468" fill-rule="evenodd"/>
      <path id="Trazado_1057869" data-name="Trazado 1057869" d="M300.929,208.7H303.9v16.376h-2.968Z" transform="translate(-247.808 -139.105)" fill="#fd7c49"/>
      <path id="Trazado_1057870" data-name="Trazado 1057870" d="M369.6,256.656h2.968v10.128H369.6Z" transform="translate(-307.536 -180.815)" fill="#fd672d"/>
      <path id="Trazado_1057871" data-name="Trazado 1057871" d="M438.278,166.436h2.968v21.882h-2.968Z" transform="translate(-367.263 -102.349)" fill="#fc5412"/>
      <g id="Grupo_1223331" data-name="Grupo 1223331" transform="translate(16 48.755)">
        <path id="Trazado_1057872" data-name="Trazado 1057872" d="M162.17,141.115a2.143,2.143,0,1,0,.628,1.516A2.144,2.144,0,0,0,162.17,141.115Z" transform="translate(-139.944 -128.536)" fill="#fed402" fill-rule="evenodd"/>
        <path id="Trazado_1057873" data-name="Trazado 1057873" d="M230.85,64.562a2.144,2.144,0,1,0,.628,1.516A2.144,2.144,0,0,0,230.85,64.562Z" transform="translate(-199.676 -61.957)" fill="#fed402" fill-rule="evenodd"/>
        <path id="Trazado_1057874" data-name="Trazado 1057874" d="M368.2,169.908a2.143,2.143,0,1,0,.628,1.516A2.144,2.144,0,0,0,368.2,169.908Z" transform="translate(-319.13 -153.578)" fill="#fed402" fill-rule="evenodd"/>
        <path id="Trazado_1057875" data-name="Trazado 1057875" d="M436.872,84.194a2.143,2.143,0,1,0,.628,1.515A2.143,2.143,0,0,0,436.872,84.194Z" transform="translate(-378.857 -79.031)" fill="#fed402" fill-rule="evenodd"/>
        <path id="Trazado_1057876" data-name="Trazado 1057876" d="M30,73.988a3.9,3.9,0,1,0,1.141,2.755A3.9,3.9,0,0,0,30,73.988ZM27.246,70.87a5.874,5.874,0,1,1-4.153,1.72A5.874,5.874,0,0,1,27.246,70.87Zm2.654-.54a6.923,6.923,0,0,1,1.04.538.986.986,0,0,0,1.119-.047h0L33.409,69.8l.391.391.391.391-1.022,1.349a.987.987,0,0,0-.019,1.164,6.937,6.937,0,0,1,.51,1,6.851,6.851,0,0,1,.354,1.109.986.986,0,0,0,.836.762l1.665.229v.554h0V77.3l-1.674.231a.986.986,0,0,0-.836.786,6.981,6.981,0,0,1-.886,2.125.986.986,0,0,0,.047,1.119h0l1.022,1.349L33.8,83.3l-.391.391-1.349-1.022a.988.988,0,0,0-1.164-.019,6.98,6.98,0,0,1-2.106.864.986.986,0,0,0-.762.836L27.8,86.012h-.554v0h-.554l-.231-1.674a.986.986,0,0,0-.786-.836,6.983,6.983,0,0,1-2.125-.886.986.986,0,0,0-1.119.047h0l-1.349,1.022-.391-.391-.391-.391,1.022-1.349a.988.988,0,0,0,.019-1.164,6.975,6.975,0,0,1-.864-2.106.986.986,0,0,0-.836-.762L17.977,77.3V76.19l1.671-.23a.986.986,0,0,0,.836-.786,6.982,6.982,0,0,1,.886-2.125.986.986,0,0,0-.047-1.119h0L20.3,70.581l.391-.391.391-.391,1.349,1.022a.987.987,0,0,0,1.164.019,6.937,6.937,0,0,1,1-.51,6.866,6.866,0,0,1,1.109-.354.986.986,0,0,0,.762-.836l.229-1.665h.554v0H27.8l.231,1.674a.986.986,0,0,0,.786.836,6.866,6.866,0,0,1,1.085.349ZM27.407,87.99h1.251v0a.986.986,0,0,0,.977-.854l.259-1.877q.392-.121.763-.275t.733-.345l1.471,1.115a.989.989,0,0,0,1.338-.055l1-1,1-1h0a.987.987,0,0,0,.09-1.293l-1.148-1.515q.189-.359.345-.733t.275-.763l1.877-.258h0a.985.985,0,0,0,.854-.976V76.874l.032,0q.387-.026.828-.026A11.967,11.967,0,1,1,27.382,88.812q0-.427.024-.791l0-.031Zm10.952-7.272v8.661l.494.285L44.1,92.7a.986.986,0,1,0,.989-1.707l-4.756-2.746V80.718a.989.989,0,0,0-1.977,0Zm8.782-3.471V66.184H44.174v9.541a13.9,13.9,0,0,1,2.968,1.522Zm8.947,8.721V69.593H53.121V85.968Zm8.947,0V75.841H62.067V85.968Zm4,0V63.1a.989.989,0,0,1,.989-.989h4.945a.989.989,0,0,1,.989.989v22.87h1.586a.989.989,0,1,1,0,1.977H53.265q.026.43.026.866a13.944,13.944,0,1,1-27.888,0q0-.43.031-.909a.986.986,0,0,1-.578-.77h0L24.6,85.255q-.391-.121-.763-.275t-.733-.345l-1.515,1.148a.987.987,0,0,1-1.293-.09h0l-1-1-1-1a.989.989,0,0,1-.055-1.338l1.115-1.47q-.189-.359-.345-.733t-.275-.763l-1.877-.259A.986.986,0,0,1,16,78.156h0V75.331a.989.989,0,0,1,.927-.987l1.807-.249q.121-.391.275-.763t.345-.733l-1.148-1.515a.987.987,0,0,1,.09-1.293h0l1-1,1-1a.989.989,0,0,1,1.338-.055L23.1,68.852q.359-.189.733-.345t.763-.275l.259-1.877a.986.986,0,0,1,.977-.855v0h1.413v0h1.413a.985.985,0,0,1,.976.854h0l.258,1.877q.392.121.763.275t.733.345L32.905,67.7a.987.987,0,0,1,1.293.09h0l1,1,1,1a.988.988,0,0,1,.055,1.338L35.138,72.6q.189.359.345.733t.275.763l1.877.259a.985.985,0,0,1,.756.547q.5-.034.957-.034a14,14,0,0,1,2.848.291V65.2a.989.989,0,0,1,.989-.989H48.13a.989.989,0,0,1,.989.989V78.864l.089.088a14.009,14.009,0,0,1,1.936,2.42V68.6a.989.989,0,0,1,.989-.989h4.946a.989.989,0,0,1,.989.989V85.968H60.09V74.852a.989.989,0,0,1,.989-.989h4.945a.989.989,0,0,1,.989.989V85.968Zm4.945,0V64.087H71.015V85.968ZM38.226,61.334a2.144,2.144,0,1,0,.628,1.516A2.144,2.144,0,0,0,38.226,61.334Zm8.947-9.974a2.144,2.144,0,1,0,.629,1.516,2.144,2.144,0,0,0-.629-1.516ZM65.067,65.085a2.144,2.144,0,1,0,.628,1.516A2.144,2.144,0,0,0,65.067,65.085Zm8.947-11.167a2.143,2.143,0,1,0,.628,1.515,2.143,2.143,0,0,0-.628-1.515ZM38.65,59.213a4.122,4.122,0,1,0,1.466,1.316l3.6-4.016a4.123,4.123,0,0,0,4.513-.419l11.544,8.854a4.121,4.121,0,1,0,7.046-.853l3.943-4.921a4.124,4.124,0,1,0-1.539-1.234l-3.943,4.921a4.124,4.124,0,0,0-4.307.522L49.433,54.529a4.121,4.121,0,1,0-7.18.668l-3.6,4.016Zm16.285,33.2,3.68,3.679-3.679,3.679a.989.989,0,1,0,1.4,1.4l4.377-4.378a.988.988,0,0,0,0-1.4l-4.377-4.378a.989.989,0,1,0-1.4,1.4Zm7.994,0,3.679,3.679L62.93,99.767a.989.989,0,1,0,1.4,1.4l4.378-4.378a.989.989,0,0,0,0-1.4l-4.378-4.378a.989.989,0,1,0-1.4,1.4Zm7.995,0L74.6,96.088l-3.679,3.679a.989.989,0,0,0,1.4,1.4L76.7,96.787a.989.989,0,0,0,0-1.4l-4.378-4.378a.989.989,0,1,0-1.4,1.4Z" transform="translate(-16 -48.755)" fill-rule="evenodd"/>
      </g>
    </g>
  </g>
</svg>
