<svg xmlns="http://www.w3.org/2000/svg" xmlns:xlink="http://www.w3.org/1999/xlink" width="108" height="108" viewBox="0 0 108 108">
  <defs>
    <filter id="Trazado_904820" x="0" y="0" width="108" height="108" filterUnits="userSpaceOnUse">
      <feOffset dy="3" input="SourceAlpha"/>
      <feGaussianBlur stdDeviation="3" result="blur"/>
      <feFlood flood-opacity="0.161"/>
      <feComposite operator="in" in2="blur"/>
      <feComposite in="SourceGraphic"/>
    </filter>
    <clipPath id="clip-path">
      <path id="path4527" d="M0-682.665H55.053v55.053H0Z" transform="translate(0 682.665)"/>
    </clipPath>
  </defs>
  <g id="Grupo_1223293" data-name="Grupo 1223293" transform="translate(-191.828 -688.071)">
    <g id="Grupo_1223228" data-name="Grupo 1223228" transform="translate(200.828 694.071)">
      <g id="Grupo_1173585" data-name="Grupo 1173585" transform="translate(0 0)">
        <g id="Grupo_1173428" data-name="Grupo 1173428">
          <g id="Grupo_1171958" data-name="Grupo 1171958">
            <g id="Grupo_1167341" data-name="Grupo 1167341">
              <g id="Grupo_1166792" data-name="Grupo 1166792">
                <g transform="matrix(1, 0, 0, 1, -9, -6)" filter="url(#Trazado_904820)">
                  <g id="Trazado_904820-2" data-name="Trazado 904820" transform="translate(9 6)" fill="#efecfa">
                    <path d="M 44.99999618530273 88.50002288818359 C 39.12687301635742 88.50002288818359 33.43022155761719 87.35009765625 28.06829643249512 85.08218383789062 C 22.88852119445801 82.89133453369141 18.23629570007324 79.75460815429688 14.24084663391113 75.75916290283203 C 10.24540901184082 71.76371002197266 7.108683586120605 67.11148834228516 4.917821407318115 61.93171310424805 C 2.649921178817749 56.56978607177734 1.499996185302734 50.87313461303711 1.499996185302734 45.0000114440918 C 1.499996185302734 39.12688827514648 2.649921178817749 33.43023681640625 4.917821407318115 28.06829833984375 C 7.108683586120605 22.88852310180664 10.24540901184082 18.2363109588623 14.24084663391113 14.2408618927002 C 18.23629570007324 10.24541187286377 22.88852119445801 7.108686447143555 28.06829643249512 4.917823791503906 C 33.43022155761719 2.649924039840698 39.12687301635742 1.499998927116394 44.99999618530273 1.499998927116394 C 50.87311935424805 1.499998927116394 56.56977081298828 2.649924039840698 61.93169784545898 4.917823791503906 C 67.11147308349609 7.108686447143555 71.76369476318359 10.24541187286377 75.75914764404297 14.2408618927002 C 79.75458526611328 18.2363109588623 82.89131164550781 22.88852310180664 85.08216857910156 28.06829833984375 C 87.35007476806641 33.43023681640625 88.5 39.12688827514648 88.5 45.0000114440918 C 88.5 50.87313461303711 87.35007476806641 56.56978607177734 85.08216857910156 61.93171310424805 C 82.89131164550781 67.11148834228516 79.75458526611328 71.76371002197266 75.75914764404297 75.75916290283203 C 71.76369476318359 79.75460815429688 67.11147308349609 82.89133453369141 61.93169784545898 85.08218383789062 C 56.56977081298828 87.35009765625 50.87311935424805 88.50002288818359 44.99999618530273 88.50002288818359 Z" stroke="none"/>
                    <path d="M 44.99999618530273 3 C 39.32870864868164 3 33.82865142822266 4.110054016113281 28.65262603759766 6.299339294433594 C 23.65165710449219 8.414566040039062 19.15968322753906 11.44333648681641 15.301513671875 15.30152893066406 C 11.44333648681641 19.15969848632812 8.414566040039062 23.65165710449219 6.299339294433594 28.65264129638672 C 4.110054016113281 33.82866668701172 2.999992370605469 39.3287239074707 2.999992370605469 45.0000114440918 C 2.999992370605469 50.67129898071289 4.110054016113281 56.17135620117188 6.299339294433594 61.34738159179688 C 8.414566040039062 66.34836578369141 11.44333648681641 70.84032440185547 15.301513671875 74.69849395751953 C 19.15968322753906 78.55668640136719 23.65165710449219 81.58545684814453 28.65262603759766 83.70068359375 C 33.82865142822266 85.88996887207031 39.32870864868164 87.00002288818359 44.99999618530273 87.00002288818359 C 50.67128372192383 87.00002288818359 56.17134094238281 85.88996887207031 61.34736633300781 83.70068359375 C 66.34834289550781 81.58545684814453 70.84030914306641 78.55668640136719 74.69847869873047 74.69849395751953 C 78.55665588378906 70.84032440185547 81.58542633056641 66.34836578369141 83.70065307617188 61.34738159179688 C 85.88993835449219 56.17135620117188 87 50.67129898071289 87 45.0000114440918 C 87 39.3287239074707 85.88993835449219 33.82866668701172 83.70065307617188 28.65264129638672 C 81.58542633056641 23.65165710449219 78.55665588378906 19.15969848632812 74.69847869873047 15.30152893066406 C 70.84030914306641 11.44333648681641 66.34834289550781 8.414566040039062 61.34736633300781 6.299339294433594 C 56.17134094238281 4.110054016113281 50.67128372192383 3 44.99999618530273 3 M 44.99999618530273 0 C 69.85281372070312 0 90 20.14719390869141 90 45.0000114440918 C 90 69.85282897949219 69.85281372070312 90.00002288818359 44.99999618530273 90.00002288818359 C 20.14717864990234 90.00002288818359 -7.62939453125e-06 69.85282897949219 -7.62939453125e-06 45.0000114440918 C -7.62939453125e-06 20.14719390869141 20.14717864990234 0 44.99999618530273 0 Z" stroke="none" fill="#6c4dd8"/>
                  </g>
                </g>
              </g>
            </g>
          </g>
        </g>
      </g>
    </g>
    <g id="g4521" transform="translate(218.302 1394.209)">
      <g id="g4523" transform="translate(0 -682.665)">
        <g id="g4525" clip-path="url(#clip-path)">
          <g id="g4531" transform="translate(0.814 44.576)">
            <path id="path4533" d="M-567.013-79.562h-46.05a3.688,3.688,0,0,1-3.688-3.688v-2.321a.97.97,0,0,1,.97-.97H-564.3a.97.97,0,0,1,.97.97v2.321a3.688,3.688,0,0,1-3.688,3.688" transform="translate(616.751 86.541)" fill="#b6c4cf"/>
          </g>
          <g id="g4535" transform="translate(0.814 44.576)">
            <path id="path4537" d="M-567.013-79.562h-46.05a3.688,3.688,0,0,1-3.688-3.688v-2.321a.97.97,0,0,1,.97-.97H-564.3a.97.97,0,0,1,.97.97v2.321A3.688,3.688,0,0,1-567.013-79.562Z" transform="translate(616.751 86.541)" fill="none" stroke="#000" stroke-linecap="round" stroke-linejoin="round" stroke-miterlimit="10" stroke-width="1.3"/>
          </g>
          <g id="g4539" transform="translate(16.738 44.576)">
            <path id="path4541" d="M-218.909-45.671h-16.828a2.374,2.374,0,0,1-2.374-2.374v-1.632h21.577v1.632a2.374,2.374,0,0,1-2.374,2.374" transform="translate(238.111 49.677)" fill="#f9f3f1"/>
          </g>
          <g id="g4543" transform="translate(16.738 44.576)">
            <path id="path4545" d="M-155.626-45.671H-166.9a2.374,2.374,0,0,1-2.374-2.374v-1.632H-147.7v1.632a2.374,2.374,0,0,1-2.374,2.374h-1.774" transform="translate(169.277 49.677)" fill="none" stroke="#000" stroke-linecap="round" stroke-linejoin="round" stroke-miterlimit="10" stroke-width="1.3"/>
          </g>
          <g id="g4547" transform="translate(4.11 11.992)">
            <path id="path4549" d="M-533.905-371.461h-46.833v-30.421a2.162,2.162,0,0,1,2.162-2.162h42.508a2.162,2.162,0,0,1,2.162,2.162Z" transform="translate(580.739 404.044)" fill="#596c76"/>
          </g>
          <g id="g4551" transform="translate(4.11 11.992)">
            <path id="path4553" d="M-533.905-371.461h-46.833v-30.421a2.162,2.162,0,0,1,2.162-2.162h42.508a2.162,2.162,0,0,1,2.162,2.162Z" transform="translate(580.739 404.044)" fill="none" stroke="#000" stroke-linecap="round" stroke-linejoin="round" stroke-miterlimit="10" stroke-width="1.3"/>
          </g>
          <g id="g4555" transform="translate(8.201 15.583)">
            <path id="path4557" d="M-421.054-289.593h-35.218a1.716,1.716,0,0,1-1.716-1.717v-21.969A1.717,1.717,0,0,1-456.272-315h35.218a1.716,1.716,0,0,1,1.716,1.717v21.969a1.716,1.716,0,0,1-1.716,1.717" transform="translate(457.988 314.995)" fill="#d8ecfe"/>
          </g>
          <g id="g4559" transform="translate(8.201 15.582)">
            <path id="path4561" d="M-440.628-19.576V2.393a1.717,1.717,0,0,1-1.717,1.716h-35.216a1.717,1.717,0,0,1-1.717-1.716l.1-3.077A1.588,1.588,0,0,0-477.593.9h32.575A1.587,1.587,0,0,0-443.43-.684V-21.005a1.493,1.493,0,0,0-.027-.288h1.112a1.717,1.717,0,0,1,1.717,1.717" transform="translate(479.279 21.293)" fill="#b3dafe"/>
          </g>
          <g id="g4563" transform="translate(8.201 15.583)">
            <path id="path4565" d="M-144.158,0h24.289a1.716,1.716,0,0,1,1.716,1.717V23.686a1.716,1.716,0,0,1-1.716,1.717h-35.218a1.717,1.717,0,0,1-1.717-1.717V1.717A1.717,1.717,0,0,1-155.087,0h7.179" transform="translate(156.804)" fill="none" stroke="#000" stroke-linecap="round" stroke-linejoin="round" stroke-miterlimit="10" stroke-width="1.3"/>
          </g>
          <g id="g4567" transform="translate(32.58 3.498)">
            <path id="path4569" d="M-225.812,0h-17.967a1.841,1.841,0,0,0-1.841,1.841v10.64a1.841,1.841,0,0,0,1.22,1.733.865.865,0,0,1,.586.885,7.555,7.555,0,0,1-.394,1.892.574.574,0,0,0,.753.725,6.721,6.721,0,0,0,3.381-2.961.855.855,0,0,1,.743-.433h13.519a1.841,1.841,0,0,0,1.841-1.841V1.841A1.841,1.841,0,0,0-225.812,0" transform="translate(245.619)" fill="#fd4755"/>
          </g>
          <g id="g4571" transform="translate(32.58 3.498)">
            <path id="path4573" d="M-159.355,0h-12.138a1.841,1.841,0,0,0-1.841,1.841v10.64a1.841,1.841,0,0,0,1.22,1.733.865.865,0,0,1,.586.885,7.555,7.555,0,0,1-.394,1.892.574.574,0,0,0,.753.725,6.721,6.721,0,0,0,3.381-2.961.855.855,0,0,1,.743-.433h13.519a1.841,1.841,0,0,0,1.841-1.841V1.841A1.841,1.841,0,0,0-153.525,0h-2.03" transform="translate(173.333)" fill="none" stroke="#000" stroke-linecap="round" stroke-linejoin="round" stroke-miterlimit="10" stroke-width="1.3"/>
          </g>
          <g id="g4575" transform="translate(19.624 21.621)">
            <path id="path4577" d="M-180.168-90.084a7.9,7.9,0,0,1-7.9,7.9,7.9,7.9,0,0,1-7.9-7.9,7.9,7.9,0,0,1,7.9-7.9,7.9,7.9,0,0,1,7.9,7.9" transform="translate(195.972 97.986)" fill="#0ed2b3"/>
          </g>
          <g id="g4579" transform="translate(19.624 21.621)">
            <path id="path4581" d="M-180.168-90.084a7.9,7.9,0,0,1-7.9,7.9,7.9,7.9,0,0,1-7.9-7.9,7.9,7.9,0,0,1,7.9-7.9A7.9,7.9,0,0,1-180.168-90.084Z" transform="translate(195.972 97.986)" fill="none" stroke="#000" stroke-linecap="round" stroke-linejoin="round" stroke-miterlimit="10" stroke-width="1.3"/>
          </g>
          <g id="g4583" transform="translate(22.336 21.621)">
            <path id="path4585" d="M-149.254-90.084a7.9,7.9,0,0,1-7.9,7.9v-8.494l-5.19-5.367a7.873,7.873,0,0,1,5.19-1.943A7.9,7.9,0,0,1-149.254-90.084Z" transform="translate(162.346 97.986)" fill="none" stroke="#000" stroke-linecap="round" stroke-linejoin="round" stroke-miterlimit="10" stroke-width="1.3"/>
          </g>
          <g id="g4587" transform="translate(22.336 21.621)">
            <path id="path4589" d="M-149.254-90.084a7.9,7.9,0,0,1-7.9,7.9v-8.494l-5.19-5.367a7.873,7.873,0,0,1,5.19-1.943,7.9,7.9,0,0,1,7.9,7.9" transform="translate(162.346 97.986)" fill="#fd4755"/>
          </g>
          <g id="g4591" transform="translate(22.336 21.621)">
            <path id="path4593" d="M-149.254-90.084a7.9,7.9,0,0,1-7.9,7.9v-8.494l-5.19-5.367a7.873,7.873,0,0,1,5.19-1.943A7.9,7.9,0,0,1-149.254-90.084Z" transform="translate(162.346 97.986)" fill="none" stroke="#000" stroke-linecap="round" stroke-linejoin="round" stroke-miterlimit="10" stroke-width="1.3"/>
          </g>
          <g id="g4595" transform="translate(21.204 28.93)">
            <path id="path4597" d="M-72.077,0V8.494A7.889,7.889,0,0,1-78.4,5.333Z" transform="translate(78.4)" fill="#fdb541"/>
          </g>
          <g id="g4599" transform="translate(21.204 28.93)">
            <path id="path4601" d="M-72.077,0V8.494A7.889,7.889,0,0,1-78.4,5.333Z" transform="translate(78.4)" fill="none" stroke="#000" stroke-linecap="round" stroke-linejoin="round" stroke-miterlimit="10" stroke-width="1.3"/>
          </g>
          <g id="g4603" transform="translate(11.792 19.038)">
            <path id="path4605" d="M0,0H6.956" fill="none" stroke="#000" stroke-linecap="round" stroke-linejoin="round" stroke-miterlimit="10" stroke-width="1.3"/>
          </g>
          <g id="g4607" transform="translate(11.792 21.959)">
            <path id="path4609" d="M0,0H6.956" fill="none" stroke="#000" stroke-linecap="round" stroke-linejoin="round" stroke-miterlimit="10" stroke-width="1.3"/>
          </g>
          <g id="g4611" transform="translate(11.792 24.88)">
            <path id="path4613" d="M0,0H3.478" fill="none" stroke="#000" stroke-linecap="round" stroke-linejoin="round" stroke-miterlimit="10" stroke-width="1.3"/>
          </g>
          <g id="g4615" transform="translate(36.192 6.421)">
            <path id="path4617" d="M-157.341-37.94h-13.179a.623.623,0,0,1-.623-.623v-2.082a.623.623,0,0,1,.623-.623h13.179a.623.623,0,0,1,.623.623v2.082a.623.623,0,0,1-.623.623" transform="translate(171.142 41.268)" fill="#f9f3f1"/>
          </g>
          <g id="g4619" transform="translate(36.192 11.968)">
            <path id="path4621" d="M-157.341-37.939h-13.179a.623.623,0,0,1-.623-.623v-2.082a.623.623,0,0,1,.623-.623h13.179a.623.623,0,0,1,.623.623v2.082a.623.623,0,0,1-.623.623" transform="translate(171.142 41.267)" fill="#f9f3f1"/>
          </g>
          <g id="g4623" transform="translate(36.192 6.421)">
            <path id="path4625" d="M-157.341-37.94h-13.179a.623.623,0,0,1-.623-.623v-2.082a.623.623,0,0,1,.623-.623h13.179a.623.623,0,0,1,.623.623v2.082A.623.623,0,0,1-157.341-37.94Z" transform="translate(171.142 41.268)" fill="none" stroke="#000" stroke-linecap="round" stroke-linejoin="round" stroke-miterlimit="10" stroke-width="1.3"/>
          </g>
          <g id="g4627" transform="translate(36.192 11.968)">
            <path id="path4629" d="M-157.341-37.939h-13.179a.623.623,0,0,1-.623-.623v-2.082a.623.623,0,0,1,.623-.623h13.179a.623.623,0,0,1,.623.623v2.082A.623.623,0,0,1-157.341-37.939Z" transform="translate(171.142 41.267)" fill="none" stroke="#000" stroke-linecap="round" stroke-linejoin="round" stroke-miterlimit="10" stroke-width="1.3"/>
          </g>
        </g>
      </g>
    </g>
  </g>
</svg>
