<svg xmlns="http://www.w3.org/2000/svg" xmlns:xlink="http://www.w3.org/1999/xlink" width="108" height="108" viewBox="0 0 108 108">
  <defs>
    <filter id="Trazado_904820" x="0" y="0" width="108" height="108" filterUnits="userSpaceOnUse">
      <feOffset dy="3" input="SourceAlpha"/>
      <feGaussianBlur stdDeviation="3" result="blur"/>
      <feFlood flood-opacity="0.161"/>
      <feComposite operator="in" in2="blur"/>
      <feComposite in="SourceGraphic"/>
    </filter>
  </defs>
  <g id="Grupo_1223313" data-name="Grupo 1223313" transform="translate(-620.656 -337)">
    <g id="Grupo_1174741" data-name="Grupo 1174741" transform="translate(629.656 343)">
      <g id="Grupo_1173585" data-name="Grupo 1173585" transform="translate(0 0)">
        <g id="Grupo_1173428" data-name="Grupo 1173428">
          <g id="Grupo_1171958" data-name="Grupo 1171958">
            <g id="Grupo_1167341" data-name="Grupo 1167341">
              <g id="Grupo_1166792" data-name="Grupo 1166792">
                <g transform="matrix(1, 0, 0, 1, -9, -6)" filter="url(#Trazado_904820)">
                  <g id="Trazado_904820-2" data-name="Trazado 904820" transform="translate(9 6)" fill="#ebfefd">
                    <path d="M 44.99999618530273 88.5 C 39.12687301635742 88.5 33.43022155761719 87.35008239746094 28.06829643249512 85.08216857910156 C 22.88852119445801 82.89131927490234 18.23629570007324 79.75459289550781 14.24084663391113 75.75914001464844 C 10.24540901184082 71.76369476318359 7.108683586120605 67.11146545410156 4.917821407318115 61.93170547485352 C 2.649921178817749 56.56976699829102 1.499996185302734 50.87312698364258 1.499996185302734 45.00000381469727 C 1.499996185302734 39.12688064575195 2.649921178817749 33.43022918701172 4.917821407318115 28.06830406188965 C 7.108683586120605 22.88852882385254 10.24540901184082 18.23630332946777 14.24084663391113 14.24085426330566 C 18.23629570007324 10.24541664123535 22.88852119445801 7.108691215515137 28.06829643249512 4.917829036712646 C 33.43022155761719 2.64992880821228 39.12687301635742 1.500003814697266 44.99999618530273 1.500003814697266 C 50.87311935424805 1.500003814697266 56.56977081298828 2.64992880821228 61.93169784545898 4.917829036712646 C 67.11147308349609 7.108691215515137 71.76369476318359 10.24541664123535 75.75914764404297 14.24085426330566 C 79.75458526611328 18.23630332946777 82.89131164550781 22.88852882385254 85.08216857910156 28.06830406188965 C 87.35007476806641 33.43022918701172 88.5 39.12688064575195 88.5 45.00000381469727 C 88.5 50.87312698364258 87.35007476806641 56.56976699829102 85.08216857910156 61.93170547485352 C 82.89131164550781 67.11146545410156 79.75458526611328 71.76369476318359 75.75914764404297 75.75914001464844 C 71.76369476318359 79.75459289550781 67.11147308349609 82.89131927490234 61.93169784545898 85.08216857910156 C 56.56977081298828 87.35008239746094 50.87311935424805 88.5 44.99999618530273 88.5 Z" stroke="none"/>
                    <path d="M 44.99999618530273 3.000007629394531 C 39.32870864868164 3.000007629394531 33.82865142822266 4.110061645507812 28.65262603759766 6.299346923828125 C 23.65165710449219 8.414573669433594 19.15968322753906 11.44334411621094 15.301513671875 15.30152130126953 C 11.44333648681641 19.15969085693359 8.414566040039062 23.65166473388672 6.299339294433594 28.65263366699219 C 4.110054016113281 33.82865905761719 2.999992370605469 39.32871627807617 2.999992370605469 45.00000381469727 C 2.999992370605469 50.67129135131836 4.110054016113281 56.17133331298828 6.299339294433594 61.34737396240234 C 8.414566040039062 66.34834289550781 11.44333648681641 70.84030151367188 15.301513671875 74.698486328125 C 19.15968322753906 78.55666351318359 23.65165710449219 81.58543395996094 28.65262603759766 83.70066070556641 C 33.82865142822266 85.88994598388672 39.32870864868164 87 44.99999618530273 87 C 50.67128372192383 87 56.17134094238281 85.88994598388672 61.34736633300781 83.70066070556641 C 66.34834289550781 81.58543395996094 70.84030914306641 78.55666351318359 74.69847869873047 74.698486328125 C 78.55665588378906 70.84030151367188 81.58542633056641 66.34834289550781 83.70065307617188 61.34737396240234 C 85.88993835449219 56.17133331298828 87 50.67129135131836 87 45.00000381469727 C 87 39.32871627807617 85.88993835449219 33.82865905761719 83.70065307617188 28.65263366699219 C 81.58542633056641 23.65166473388672 78.55665588378906 19.15969085693359 74.69847869873047 15.30152130126953 C 70.84030914306641 11.44334411621094 66.34834289550781 8.414573669433594 61.34736633300781 6.299346923828125 C 56.17134094238281 4.110061645507812 50.67128372192383 3.000007629394531 44.99999618530273 3.000007629394531 M 44.99999618530273 7.62939453125e-06 C 69.85281372070312 7.62939453125e-06 90 20.14718627929688 90 45.00000381469727 C 90 69.85280609130859 69.85281372070312 90 44.99999618530273 90 C 20.14717864990234 90 -7.62939453125e-06 69.85280609130859 -7.62939453125e-06 45.00000381469727 C -7.62939453125e-06 20.14718627929688 20.14717864990234 7.62939453125e-06 44.99999618530273 7.62939453125e-06 Z" stroke="none" fill="#268985"/>
                  </g>
                </g>
              </g>
            </g>
          </g>
        </g>
      </g>
    </g>
    <g id="cycle_17930866" transform="translate(634.91 351.339)">
      <g id="Grupo_1223312" data-name="Grupo 1223312" transform="translate(22.716 23.215)">
        <g id="Grupo_1223301" data-name="Grupo 1223301" transform="translate(2.959 18.811)">
          <path id="Trazado_1057736" data-name="Trazado 1057736" d="M156.584,293.911h4.765v11.063h-4.765Z" transform="translate(-156.584 -293.911)" fill="#ffd54f" fill-rule="evenodd"/>
        </g>
        <g id="Grupo_1223302" data-name="Grupo 1223302" transform="translate(10.751 13.518)">
          <path id="Trazado_1057737" data-name="Trazado 1057737" d="M211.639,256.51H216.4v16.357h-4.765Z" transform="translate(-211.639 -256.51)" fill="#05e39c" fill-rule="evenodd"/>
        </g>
        <g id="Grupo_1223303" data-name="Grupo 1223303" transform="translate(18.543 8.793)">
          <path id="Trazado_1057738" data-name="Trazado 1057738" d="M266.694,223.126h4.769v21.082h-4.769Z" transform="translate(-266.694 -223.126)" fill="#64b9fc" fill-rule="evenodd"/>
        </g>
        <g id="Grupo_1223304" data-name="Grupo 1223304" transform="translate(26.335 4.144)">
          <path id="Trazado_1057739" data-name="Trazado 1057739" d="M321.749,190.28h4.769v25.73h-4.769Z" transform="translate(-321.749 -190.28)" fill="#fd4755" fill-rule="evenodd"/>
        </g>
        <g id="Grupo_1223305" data-name="Grupo 1223305">
          <path id="Trazado_1057740" data-name="Trazado 1057740" d="M135.677,161H149.92v10.679H135.677Z" transform="translate(-135.677 -160.998)" fill="#c97628" fill-rule="evenodd"/>
        </g>
        <g id="Grupo_1223306" data-name="Grupo 1223306" transform="translate(0)">
          <path id="Trazado_1057741" data-name="Trazado 1057741" d="M149.92,165.635a3.275,3.275,0,0,1-2.226.873H137.9a3.283,3.283,0,0,1-2.226-.873V161H149.92Z" transform="translate(-135.677 -160.998)" fill="#bd6b1e" fill-rule="evenodd"/>
        </g>
        <g id="Grupo_1223307" data-name="Grupo 1223307">
          <path id="Trazado_1057742" data-name="Trazado 1057742" d="M149.92,161H135.677v2.222a2.232,2.232,0,0,0,2.226,2.226h9.79a2.232,2.232,0,0,0,2.226-2.226Z" transform="translate(-135.677 -160.998)" fill="#d49051" fill-rule="evenodd"/>
        </g>
        <g id="Grupo_1223308" data-name="Grupo 1223308" transform="translate(5.341 18.811)">
          <path id="Trazado_1057743" data-name="Trazado 1057743" d="M173.417,293.911H175.8v11.063h-2.382Z" transform="translate(-173.417 -293.911)" fill="#ffc328" fill-rule="evenodd"/>
        </g>
        <g id="Grupo_1223309" data-name="Grupo 1223309" transform="translate(13.133 13.518)">
          <path id="Trazado_1057744" data-name="Trazado 1057744" d="M228.472,256.51h2.382v16.357h-2.382Z" transform="translate(-228.472 -256.51)" fill="#0ed290" fill-rule="evenodd"/>
        </g>
        <g id="Grupo_1223310" data-name="Grupo 1223310" transform="translate(20.925 8.793)">
          <path id="Trazado_1057745" data-name="Trazado 1057745" d="M283.527,223.126h2.387v21.082h-2.387Z" transform="translate(-283.527 -223.126)" fill="#31a7fb" fill-rule="evenodd"/>
        </g>
        <g id="Grupo_1223311" data-name="Grupo 1223311" transform="translate(28.722 4.144)">
          <path id="Trazado_1057746" data-name="Trazado 1057746" d="M338.611,190.28h2.382v25.73h-2.382Z" transform="translate(-338.611 -190.28)" fill="#e41f2d" fill-rule="evenodd"/>
        </g>
      </g>
      <path id="Trazado_1057747" data-name="Trazado 1057747" d="M33.462,65.627a.988.988,0,0,1-1.2.719A30.739,30.739,0,0,1,9.073,36.523L5.782,39.815a.989.989,0,0,1-1.4-1.4l5.065-5.065a.989.989,0,0,1,1.4,0l5.065,5.065a.989.989,0,1,1-1.4,1.4l-3.463-3.462A28.757,28.757,0,0,0,32.743,64.427a.989.989,0,0,1,.719,1.2ZM68.9,42.4a.989.989,0,0,0-1.188.738A28.641,28.641,0,0,1,39.932,65.289l3.518-2.72A.989.989,0,1,0,42.24,61l-5.666,4.381a.989.989,0,0,0-.177,1.388l4.384,5.666a.989.989,0,1,0,1.564-1.211l-3.07-3.967c.149,0,.3.007.447.007A30.695,30.695,0,0,0,69.635,43.593.989.989,0,0,0,68.9,42.4ZM10.607,30.777a.988.988,0,0,0,1.188-.739A28.893,28.893,0,0,1,40.445,7.89L36.7,10.74a.989.989,0,1,0,1.2,1.574l5.7-4.337a.989.989,0,0,0,.188-1.386L39.444.89a.989.989,0,0,0-1.574,1.2l2.917,3.832A30.7,30.7,0,0,0,9.869,29.589a.989.989,0,0,0,.739,1.188Zm64.5,2.574a.989.989,0,0,0-1.4,0l-3.274,3.274A30.693,30.693,0,0,0,47.983,7.015a.989.989,0,0,0-.529,1.906,28.562,28.562,0,0,1,21,27.91l-3.479-3.479a.989.989,0,0,0-1.4,1.4l5.065,5.065a.989.989,0,0,0,1.4,0l5.065-5.065a.989.989,0,0,0,0-1.4ZM41.259,31.019h4.765a.989.989,0,0,1,.989.989V52.1h1.049V27.359a.989.989,0,0,1,.989-.989h4.765a.989.989,0,0,1,.989.989V52.1h3.127a.989.989,0,1,1,0,1.978H21.559a.989.989,0,1,1,0-1.978h3.123V42.027a.989.989,0,0,1,.989-.989H30.44a.989.989,0,0,1,.989.989V52.1h1.049V36.733a.989.989,0,0,1,.989-.989h4.765a.989.989,0,0,1,.989.989V52.1H40.27v-20.1a.989.989,0,0,1,.989-.989ZM34.457,52.1h2.787V37.722H34.457Zm-7.8,0h2.791V43.016H26.661Zm23.38,0h2.787V28.349H50.041ZM42.249,33V52.1h2.787V33ZM34.617,21.033v1.193h2.342a.989.989,0,0,1,.989.989V33.9a.989.989,0,0,1-.989.989H22.716a.989.989,0,0,1-.989-.989V23.215a.989.989,0,0,1,.989-.989h2.39V21.033a1.794,1.794,0,0,1,1.794-1.79h5.926a1.792,1.792,0,0,1,1.79,1.79Zm-7.532,1.193h5.554v-1H27.085ZM35.97,32.909v-4.5a3.2,3.2,0,0,1-1.237.248H33.568v.16a.989.989,0,1,1-1.978,0v-.16H28.082v.16a.989.989,0,1,1-1.978,0v-.16H24.943a3.2,3.2,0,0,1-1.237-.248v4.5Zm0-8.7H23.705v1.237a1.237,1.237,0,0,0,1.237,1.233H26.1v-.156a.989.989,0,0,1,1.978,0v.156H31.59v-.156a.989.989,0,0,1,1.978,0v.156h1.165a1.237,1.237,0,0,0,1.237-1.233Z" transform="translate(0 0)"/>
    </g>
  </g>
</svg>
