<svg xmlns="http://www.w3.org/2000/svg" xmlns:xlink="http://www.w3.org/1999/xlink" width="123" height="123" viewBox="0 0 123 123">
  <defs>
    <filter id="Trazado_982547" x="0" y="0" width="123" height="123" filterUnits="userSpaceOnUse">
      <feOffset dy="3" input="SourceAlpha"/>
      <feGaussianBlur stdDeviation="3" result="blur"/>
      <feFlood flood-opacity="0.161"/>
      <feComposite operator="in" in2="blur"/>
      <feComposite in="SourceGraphic"/>
    </filter>
  </defs>
  <g id="Grupo_1223399" data-name="Grupo 1223399" transform="translate(-318.625 -6687.62)">
    <g id="Grupo_1223289" data-name="Grupo 1223289" transform="translate(-6.146 3706.925)">
      <g id="Grupo_1211203" data-name="Grupo 1211203" transform="translate(333.77 2986.695)">
        <g id="Grupo_1210937" data-name="Grupo 1210937" transform="translate(0 0)">
          <g id="Grupo_1174742" data-name="Grupo 1174742" transform="translate(0)">
            <g id="Grupo_1163948" data-name="Grupo 1163948">
              <g id="Grupo_1158168" data-name="Grupo 1158168">
                <g id="Grupo_1152576" data-name="Grupo 1152576">
                  <g id="Grupo_1148633" data-name="Grupo 1148633">
                    <g id="Grupo_1148525" data-name="Grupo 1148525">
                      <g transform="matrix(1, 0, 0, 1, -9, -6)" filter="url(#Trazado_982547)">
                        <g id="Trazado_982547-2" data-name="Trazado 982547" transform="translate(9 6)" fill="#fdf6e4">
                          <path d="M 52.49996948242188 103.4999389648438 C 45.61435699462891 103.4999389648438 38.93551254272461 102.1517105102539 32.64894104003906 99.49272918701172 C 26.57608413696289 96.92412567138672 21.12178421020508 93.24662780761719 16.43754005432129 88.56240081787109 C 11.75331211090088 83.87815856933594 8.075812339782715 78.42385864257812 5.507212162017822 72.35099792480469 C 2.848226547241211 66.06443023681641 1.499998092651367 59.38558197021484 1.499998092651367 52.49996948242188 C 1.499998092651367 45.61435699462891 2.848226547241211 38.93551254272461 5.507212162017822 32.64894104003906 C 8.075812339782715 26.57608413696289 11.75331211090088 21.12178421020508 16.43754005432129 16.43754005432129 C 21.12178421020508 11.75331211090088 26.57608413696289 8.075812339782715 32.64894104003906 5.507212162017822 C 38.93551254272461 2.848226547241211 45.61435699462891 1.499998092651367 52.49996948242188 1.499998092651367 C 59.38558197021484 1.499998092651367 66.06443023681641 2.848226547241211 72.35099792480469 5.507212162017822 C 78.42385864257812 8.075812339782715 83.87815856933594 11.75331211090088 88.56240081787109 16.43754005432129 C 93.24662780761719 21.12178421020508 96.92412567138672 26.57608413696289 99.49272918701172 32.64894104003906 C 102.1517105102539 38.93551254272461 103.4999389648438 45.61435699462891 103.4999389648438 52.49996948242188 C 103.4999389648438 59.38558197021484 102.1517105102539 66.06443023681641 99.49272918701172 72.35099792480469 C 96.92412567138672 78.42385864257812 93.24662780761719 83.87815856933594 88.56240081787109 88.56240081787109 C 83.87815856933594 93.24662780761719 78.42385864257812 96.92412567138672 72.35099792480469 99.49272918701172 C 66.06443023681641 102.1517105102539 59.38558197021484 103.4999389648438 52.49996948242188 103.4999389648438 Z" stroke="none"/>
                          <path d="M 52.49996948242188 3 C 45.81618499755859 3 39.33393859863281 4.308349609375 33.23326873779297 6.888717651367188 C 27.33920288085938 9.381706237792969 22.045166015625 12.95125579833984 17.49819946289062 17.49819946289062 C 12.95125579833984 22.045166015625 9.381706237792969 27.33920288085938 6.888717651367188 33.23326873779297 C 4.308349609375 39.33393859863281 3 45.81618499755859 3 52.49996948242188 C 3 59.18375396728516 4.308349609375 65.66600036621094 6.888717651367188 71.76667022705078 C 9.381706237792969 77.66073608398438 12.95125579833984 82.95477294921875 17.49819946289062 87.50173950195312 C 22.045166015625 92.04868316650391 27.33920288085938 95.61824035644531 33.23326873779297 98.11122131347656 C 39.33393859863281 100.6915893554688 45.81618499755859 101.9999389648438 52.49996948242188 101.9999389648438 C 59.18375396728516 101.9999389648438 65.66600036621094 100.6915893554688 71.76667022705078 98.11122131347656 C 77.66073608398438 95.61824035644531 82.95477294921875 92.04868316650391 87.50173950195312 87.50173950195312 C 92.04868316650391 82.95477294921875 95.61824035644531 77.66073608398438 98.11122131347656 71.76667022705078 C 100.6915893554688 65.66600036621094 101.9999389648438 59.18375396728516 101.9999389648438 52.49996948242188 C 101.9999389648438 45.81618499755859 100.6915893554688 39.33393859863281 98.11122131347656 33.23326873779297 C 95.61824035644531 27.33920288085938 92.04868316650391 22.045166015625 87.50173950195312 17.49819946289062 C 82.95477294921875 12.95125579833984 77.66073608398438 9.381706237792969 71.76667022705078 6.888717651367188 C 65.66600036621094 4.308349609375 59.18375396728516 3 52.49996948242188 3 M 52.49996948242188 0 C 81.49490356445312 0 104.9999389648438 23.50503540039062 104.9999389648438 52.49996948242188 C 104.9999389648438 81.49490356445312 81.49490356445312 104.9999389648438 52.49996948242188 104.9999389648438 C 23.50503540039062 104.9999389648438 0 81.49490356445312 0 52.49996948242188 C 0 23.50503540039062 23.50503540039062 0 52.49996948242188 0 Z" stroke="none" fill="#f5b104"/>
                        </g>
                      </g>
                    </g>
                  </g>
                </g>
              </g>
            </g>
          </g>
        </g>
      </g>
    </g>
    <g id="marketing-mix_12474015" transform="translate(333.246 6699.589)">
      <g id="Grupo_1223398" data-name="Grupo 1223398" transform="translate(19.976 17.039)">
        <g id="Grupo_1223394" data-name="Grupo 1223394" transform="translate(1.878 0)">
          <path id="Trazado_1057995" data-name="Trazado 1057995" d="M110.865,94.861a.829.829,0,0,1-1.257,0c-3.556-4.1-9.137-9.964-9.137-14.921a9.766,9.766,0,0,1,19.531,0C120,84.9,114.423,90.757,110.865,94.861Z" transform="translate(-100.471 -70.174)" fill="#fe646f" fill-rule="evenodd"/>
          <path id="Trazado_1057996" data-name="Trazado 1057996" d="M156.924,70.206q.393-.031.795-.032a9.766,9.766,0,0,1,9.766,9.766c0,4.957-5.579,10.817-9.137,14.921a.829.829,0,0,1-1.257,0l-.166-.191c3.563-4.094,8.971-9.849,8.971-14.73a9.767,9.767,0,0,0-8.971-9.734Z" transform="translate(-147.953 -70.174)" fill="#fd4755" fill-rule="evenodd"/>
          <path id="Trazado_1057997" data-name="Trazado 1057997" d="M129.885,105.644a6.054,6.054,0,1,0-6.053-6.055A6.067,6.067,0,0,0,129.885,105.644Z" transform="translate(-120.12 -89.823)" fill="#eceff1" fill-rule="evenodd"/>
          <path id="Trazado_1057998" data-name="Trazado 1057998" d="M130.68,93.588a6.055,6.055,0,0,0,0,12,6.054,6.054,0,1,1,0-12Z" transform="translate(-120.12 -89.823)" fill="#d1d1d6" fill-rule="evenodd"/>
        </g>
        <g id="Grupo_1223395" data-name="Grupo 1223395" transform="translate(31.701 5.364)">
          <path id="Trazado_1057999" data-name="Trazado 1057999" d="M290.537,103.929h15.3a.834.834,0,0,1,.833.762l1.56,17.454a1.265,1.265,0,0,1-1.266,1.384H289.41a1.265,1.265,0,0,1-1.266-1.384l1.559-17.454A.835.835,0,0,1,290.537,103.929Z" transform="translate(-288.139 -103.929)" fill="#ecba78" fill-rule="evenodd"/>
          <path id="Trazado_1058000" data-name="Trazado 1058000" d="M389.519,103.929h1.589a.834.834,0,0,1,.833.762l1.56,17.454a1.266,1.266,0,0,1-1.266,1.384h-1.589a1.265,1.265,0,0,0,1.266-1.384l-1.56-17.454A.834.834,0,0,0,389.519,103.929Z" transform="translate(-373.408 -103.929)" fill="#e3a76f" fill-rule="evenodd"/>
        </g>
        <g id="Grupo_1223396" data-name="Grupo 1223396" transform="translate(31.625 37.599)">
          <path id="Trazado_1058001" data-name="Trazado 1058001" d="M287.66,357.612a.226.226,0,0,1,.226-.226h3.462a.226.226,0,0,1,.226.226V364.9H287.66Z" transform="translate(-287.66 -349.343)" fill="#ffe177" fill-rule="evenodd"/>
          <path id="Trazado_1058002" data-name="Trazado 1058002" d="M305.432,357.386h.864a.226.226,0,0,1,.226.226V364.9h-.864v-7.284A.226.226,0,0,0,305.432,357.386Z" transform="translate(-302.608 -349.343)" fill="#ffd064" fill-rule="evenodd"/>
          <path id="Trazado_1058003" data-name="Trazado 1058003" d="M383.051,307a.226.226,0,0,0-.226-.226h-3.462a.226.226,0,0,0-.226.226v15.327h3.914Z" transform="translate(-364.6 -306.774)" fill="#8ac9fe" fill-rule="evenodd"/>
          <path id="Trazado_1058004" data-name="Trazado 1058004" d="M396.744,322.327V307a.226.226,0,0,0-.226-.226h.926a.226.226,0,0,1,.226.226v15.327Z" transform="translate(-379.219 -306.774)" fill="#60b7ff" fill-rule="evenodd"/>
          <path id="Trazado_1058005" data-name="Trazado 1058005" d="M337.313,332.854a.226.226,0,0,0-.226-.226h-3.462a.226.226,0,0,0-.226.226v11.218h3.914Z" transform="translate(-326.13 -328.519)" fill="#6cf5c2" fill-rule="evenodd"/>
          <path id="Trazado_1058006" data-name="Trazado 1058006" d="M350.908,344.072V332.854a.226.226,0,0,0-.226-.226h.942a.226.226,0,0,1,.226.226v11.218Z" transform="translate(-340.667 -328.519)" fill="#00e499" fill-rule="evenodd"/>
        </g>
        <g id="Grupo_1223397" data-name="Grupo 1223397" transform="translate(0 35.201)">
          <path id="Trazado_1058007" data-name="Trazado 1058007" d="M109.659,300.563l-10.4,13.563a1.215,1.215,0,0,1-1.7.224l-8.433-6.47a1.212,1.212,0,0,1-.224-1.7l10.4-13.563a1.172,1.172,0,0,1,.865-.47l5.729-.449a2.435,2.435,0,0,1,2.938,2.254l1.05,5.65A1.17,1.17,0,0,1,109.659,300.563Z" transform="translate(-88.653 -291.683)" fill="#ffc338" fill-rule="evenodd"/>
          <path id="Trazado_1058008" data-name="Trazado 1058008" d="M152.209,291.742l.512-.04a2.435,2.435,0,0,1,2.938,2.254l1.05,5.65a1.17,1.17,0,0,1-.23.958l-10.4,13.563a1.215,1.215,0,0,1-1.7.224l-.06-.046a1.21,1.21,0,0,0,.168-.178l10.4-13.563a1.17,1.17,0,0,0,.23-.958l-1.05-5.65a2.729,2.729,0,0,0-.95-1.8A2.164,2.164,0,0,0,152.209,291.742Z" transform="translate(-135.474 -291.683)" fill="#f5b829" fill-rule="evenodd"/>
        </g>
      </g>
      <path id="Trazado_1058009" data-name="Trazado 1058009" d="M46.411,7A39.411,39.411,0,1,1,7,46.411,39.429,39.429,0,0,1,46.411,7ZM45.139,9.564A36.889,36.889,0,0,0,9.564,45.139H45.139ZM83.257,45.139A36.889,36.889,0,0,0,47.682,9.564V45.139ZM47.682,83.257A36.889,36.889,0,0,0,83.257,47.682H47.682ZM9.564,47.682A36.889,36.889,0,0,0,45.139,83.257V47.682Zm31.281,4.984a4.884,4.884,0,0,1,.565,1.612v0l1.05,5.647a2.4,2.4,0,0,1-.471,1.966l-10.4,13.563h0a2.49,2.49,0,0,1-3.477.46l0,0-8.432-6.47a2.487,2.487,0,0,1-.46-3.479L29.62,52.4a2.4,2.4,0,0,1,1.773-.963h0l5.729-.449h0a4.886,4.886,0,0,1,1.7.128l1.7-2.218a1.271,1.271,0,0,1,2.018,1.548Zm-3.886.888-5.339.418L21.271,67.465l8.336,6.4L39.956,60.367,38.977,55.1l-.439.572a1.271,1.271,0,0,1-2.018-1.548Zm-4.9,6.42.032-.042a1.271,1.271,0,1,1,2.017,1.548l-.025.032a3.574,3.574,0,0,1,.509,2.986,1.271,1.271,0,1,1-2.459-.647,1.261,1.261,0,0,0-.956-1.49.626.626,0,0,0-.734.174l0,0a.464.464,0,0,0,.03.5,3.184,3.184,0,0,0,.543.731l0,0c1.117,1.192,2,2.867,1.013,4.528a3.04,3.04,0,0,1-3.984,1.079l-.008.01a1.271,1.271,0,0,1-2.017-1.548l.019-.025A3.526,3.526,0,0,1,25.6,64.3a1.271,1.271,0,0,1,2.331,1.015,1.247,1.247,0,0,0,.6,1.453l0,0a2.127,2.127,0,0,0,.809.375c.181.037.381.05.491-.136h0a.658.658,0,0,0-.06-.68,3.964,3.964,0,0,0-.619-.812c-1.108-1.179-1.891-2.867-.81-4.424a3.087,3.087,0,0,1,3.527-1.171q.09.026.179.056Zm-1.406-16.7a91.119,91.119,0,0,1-7.43-9.191A14.153,14.153,0,0,1,20.583,26.8a11.036,11.036,0,0,1,22.072,0,14.153,14.153,0,0,1-2.636,7.284,90.945,90.945,0,0,1-7.43,9.191,1.27,1.27,0,0,1-1.94,0Zm.97-2.765a69.906,69.906,0,0,0,6.262-7.8A11.617,11.617,0,0,0,40.115,26.8a8.5,8.5,0,1,0-16.991,0,11.616,11.616,0,0,0,2.234,5.911,69.985,69.985,0,0,0,6.262,7.8Zm0-6.384A7.324,7.324,0,1,1,38.945,26.8,7.338,7.338,0,0,1,31.62,34.13Zm0-2.541A4.784,4.784,0,1,0,26.837,26.8,4.794,4.794,0,0,0,31.62,31.59ZM67.052,21.132h2.325a2.1,2.1,0,0,1,2.1,1.92l1.56,17.454A2.531,2.531,0,0,1,70.5,43.274H52.948a2.531,2.531,0,0,1-2.532-2.768l1.559-17.454a2.1,2.1,0,0,1,2.1-1.92H56.4v-.5a5.326,5.326,0,1,1,10.652,0ZM56.4,23.675H54.472L53.415,35.509H70.036L68.979,23.675H67.052v2.31a1.271,1.271,0,1,1-2.543,0v-2.31H58.942v2.31a1.271,1.271,0,1,1-2.543,0ZM53.188,38.052l-.239,2.68H70.5l-.239-2.68Zm11.321-16.92v-.5a2.783,2.783,0,1,0-5.567,0v.5Zm7.773,50.33H49.371a1.271,1.271,0,1,1,0-2.543h.958V62.681A1.271,1.271,0,0,1,51.6,61.41h3.914a1.271,1.271,0,0,1,1.271,1.271V68.92H57.6V58.747a1.271,1.271,0,0,1,1.271-1.271h3.914a1.271,1.271,0,0,1,1.271,1.271V68.92h.812V54.638a1.271,1.271,0,0,1,1.271-1.271h3.914a1.271,1.271,0,0,1,1.271,1.271V68.92h.958a1.271,1.271,0,1,1,0,2.543ZM54.244,68.92V63.953H52.872V68.92Zm7.268,0v-8.9H60.141v8.9Zm7.269,0V55.91H67.409V68.92ZM60.972,51.082a1.271,1.271,0,0,1,1.062-1.969h2.69a1.271,1.271,0,0,1,1.1,1.907L64.48,53.349a1.271,1.271,0,0,1-2.237-.065L49.8,60.466a1.271,1.271,0,1,1-1.271-2.2Z" transform="translate(0 0)" fill-rule="evenodd"/>
    </g>
  </g>
</svg>
