<svg xmlns="http://www.w3.org/2000/svg" xmlns:xlink="http://www.w3.org/1999/xlink" width="108" height="108" viewBox="0 0 108 108">
  <defs>
    <filter id="Trazado_904820" x="0" y="0" width="108" height="108" filterUnits="userSpaceOnUse">
      <feOffset dy="3" input="SourceAlpha"/>
      <feGaussianBlur stdDeviation="3" result="blur"/>
      <feFlood flood-opacity="0.161"/>
      <feComposite operator="in" in2="blur"/>
      <feComposite in="SourceGraphic"/>
    </filter>
  </defs>
  <g id="Grupo_1223334" data-name="Grupo 1223334" transform="translate(-197.414 -799.754)">
    <g id="Grupo_1223274" data-name="Grupo 1223274" transform="translate(206.414 805.754)">
      <g id="Grupo_1173585" data-name="Grupo 1173585" transform="translate(0 0)">
        <g id="Grupo_1173428" data-name="Grupo 1173428">
          <g id="Grupo_1171958" data-name="Grupo 1171958">
            <g id="Grupo_1167341" data-name="Grupo 1167341">
              <g id="Grupo_1166792" data-name="Grupo 1166792">
                <g transform="matrix(1, 0, 0, 1, -9, -6)" filter="url(#Trazado_904820)">
                  <g id="Trazado_904820-2" data-name="Trazado 904820" transform="translate(9 6)" fill="#efecfa">
                    <path d="M 44.99999618530273 88.50002288818359 C 39.12687301635742 88.50002288818359 33.43022155761719 87.35009765625 28.06829643249512 85.08218383789062 C 22.88852119445801 82.89133453369141 18.23629570007324 79.75460815429688 14.24084663391113 75.75916290283203 C 10.24540901184082 71.76371002197266 7.108683586120605 67.11148834228516 4.917821407318115 61.93171310424805 C 2.649921178817749 56.56978607177734 1.499996185302734 50.87313461303711 1.499996185302734 45.0000114440918 C 1.499996185302734 39.12688827514648 2.649921178817749 33.43023681640625 4.917821407318115 28.06829833984375 C 7.108683586120605 22.88852310180664 10.24540901184082 18.2363109588623 14.24084663391113 14.2408618927002 C 18.23629570007324 10.24541187286377 22.88852119445801 7.108686447143555 28.06829643249512 4.917823791503906 C 33.43022155761719 2.649924039840698 39.12687301635742 1.499998927116394 44.99999618530273 1.499998927116394 C 50.87311935424805 1.499998927116394 56.56977081298828 2.649924039840698 61.93169784545898 4.917823791503906 C 67.11147308349609 7.108686447143555 71.76369476318359 10.24541187286377 75.75914764404297 14.2408618927002 C 79.75458526611328 18.2363109588623 82.89131164550781 22.88852310180664 85.08216857910156 28.06829833984375 C 87.35007476806641 33.43023681640625 88.5 39.12688827514648 88.5 45.0000114440918 C 88.5 50.87313461303711 87.35007476806641 56.56978607177734 85.08216857910156 61.93171310424805 C 82.89131164550781 67.11148834228516 79.75458526611328 71.76371002197266 75.75914764404297 75.75916290283203 C 71.76369476318359 79.75460815429688 67.11147308349609 82.89133453369141 61.93169784545898 85.08218383789062 C 56.56977081298828 87.35009765625 50.87311935424805 88.50002288818359 44.99999618530273 88.50002288818359 Z" stroke="none"/>
                    <path d="M 44.99999618530273 3 C 39.32870864868164 3 33.82865142822266 4.110054016113281 28.65262603759766 6.299339294433594 C 23.65165710449219 8.414566040039062 19.15968322753906 11.44333648681641 15.301513671875 15.30152893066406 C 11.44333648681641 19.15969848632812 8.414566040039062 23.65165710449219 6.299339294433594 28.65264129638672 C 4.110054016113281 33.82866668701172 2.999992370605469 39.3287239074707 2.999992370605469 45.0000114440918 C 2.999992370605469 50.67129898071289 4.110054016113281 56.17135620117188 6.299339294433594 61.34738159179688 C 8.414566040039062 66.34836578369141 11.44333648681641 70.84032440185547 15.301513671875 74.69849395751953 C 19.15968322753906 78.55668640136719 23.65165710449219 81.58545684814453 28.65262603759766 83.70068359375 C 33.82865142822266 85.88996887207031 39.32870864868164 87.00002288818359 44.99999618530273 87.00002288818359 C 50.67128372192383 87.00002288818359 56.17134094238281 85.88996887207031 61.34736633300781 83.70068359375 C 66.34834289550781 81.58545684814453 70.84030914306641 78.55668640136719 74.69847869873047 74.69849395751953 C 78.55665588378906 70.84032440185547 81.58542633056641 66.34836578369141 83.70065307617188 61.34738159179688 C 85.88993835449219 56.17135620117188 87 50.67129898071289 87 45.0000114440918 C 87 39.3287239074707 85.88993835449219 33.82866668701172 83.70065307617188 28.65264129638672 C 81.58542633056641 23.65165710449219 78.55665588378906 19.15969848632812 74.69847869873047 15.30152893066406 C 70.84030914306641 11.44333648681641 66.34834289550781 8.414566040039062 61.34736633300781 6.299339294433594 C 56.17134094238281 4.110054016113281 50.67128372192383 3 44.99999618530273 3 M 44.99999618530273 0 C 69.85281372070312 0 90 20.14719390869141 90 45.0000114440918 C 90 69.85282897949219 69.85281372070312 90.00002288818359 44.99999618530273 90.00002288818359 C 20.14717864990234 90.00002288818359 -7.62939453125e-06 69.85282897949219 -7.62939453125e-06 45.0000114440918 C -7.62939453125e-06 20.14719390869141 20.14717864990234 0 44.99999618530273 0 Z" stroke="none" fill="#6c4dd8"/>
                  </g>
                </g>
              </g>
            </g>
          </g>
        </g>
      </g>
    </g>
    <g id="files-gear-data-graph" transform="translate(220.862 822.754)">
      <path id="Trazado_1057877" data-name="Trazado 1057877" d="M55.74,24.634a1.305,1.305,0,0,1-1.242-.865,11.6,11.6,0,0,0-.548-1.323,1.308,1.308,0,0,1,.267-1.492,1.329,1.329,0,0,0,0-1.88l-2.224-2.224a1.329,1.329,0,0,0-1.88,0,1.308,1.308,0,0,1-1.492.267A11.6,11.6,0,0,0,47.3,16.57a1.306,1.306,0,0,1-.87-1.242A1.33,1.33,0,0,0,45.105,14H41.964a1.33,1.33,0,0,0-1.329,1.329,1.306,1.306,0,0,1-.87,1.242,11.6,11.6,0,0,0-1.323.548,1.308,1.308,0,0,1-1.492-.267,1.329,1.329,0,0,0-1.88,0l-2.224,2.224a1.329,1.329,0,0,0,0,1.88,1.308,1.308,0,0,1,.267,1.492,11.6,11.6,0,0,0-.548,1.323,1.305,1.305,0,0,1-1.235.863A1.33,1.33,0,0,0,30,25.964v3.142a1.33,1.33,0,0,0,1.329,1.329,1.305,1.305,0,0,1,1.242.865,11.6,11.6,0,0,0,.548,1.323,1.308,1.308,0,0,1-.267,1.492,1.329,1.329,0,0,0,0,1.88l2.224,2.224a1.329,1.329,0,0,0,1.88,0,1.308,1.308,0,0,1,1.492-.267,11.6,11.6,0,0,0,1.323.548,1.305,1.305,0,0,1,.87,1.242,1.33,1.33,0,0,0,1.323,1.327h3.142a1.33,1.33,0,0,0,1.329-1.329A1.305,1.305,0,0,1,47.3,38.5a11.6,11.6,0,0,0,1.323-.548,1.308,1.308,0,0,1,1.492.267,1.329,1.329,0,0,0,1.88,0l2.224-2.224a1.329,1.329,0,0,0,0-1.88,1.308,1.308,0,0,1-.267-1.492A11.6,11.6,0,0,0,54.5,31.3a1.305,1.305,0,0,1,1.235-.863,1.33,1.33,0,0,0,1.33-1.329V25.964a1.33,1.33,0,0,0-1.329-1.329ZM43.534,31.4A3.867,3.867,0,1,1,47.4,27.534,3.867,3.867,0,0,1,43.534,31.4Z" transform="translate(-0.831 -0.399)" fill="#f6cc4f"/>
      <path id="Trazado_1057878" data-name="Trazado 1057878" d="M43.734,20a7.734,7.734,0,1,0,7.734,7.734A7.734,7.734,0,0,0,43.734,20Zm0,11.6A3.867,3.867,0,1,1,47.6,27.734,3.867,3.867,0,0,1,43.734,31.6Z" transform="translate(-1.031 -0.599)" fill="#f3ac3c"/>
      <path id="Trazado_1057879" data-name="Trazado 1057879" d="M14,11H43V45.8H14Z" transform="translate(-0.299 -0.299)" fill="#392586"/>
      <path id="Trazado_1057880" data-name="Trazado 1057880" d="M10,7H39V41.8H10Z" transform="translate(-0.166 -0.166)" fill="#896ff7"/>
      <path id="Trazado_1057881" data-name="Trazado 1057881" d="M35,10.766V37.8H6V3H28.2Z" transform="translate(-0.033 -0.033)" fill="#64c1f7"/>
      <path id="Trazado_1057882" data-name="Trazado 1057882" d="M29,3v7.734h6.767Z" transform="translate(-0.798 -0.033)" fill="#48a3d2"/>
      <g id="Grupo_1223333" data-name="Grupo 1223333" transform="translate(11.767 14.568)">
        <path id="Trazado_1057883" data-name="Trazado 1057883" d="M12,26h3.867v6.767H12Z" transform="translate(-12 -15.366)" fill="#f6cc4f"/>
        <path id="Trazado_1057884" data-name="Trazado 1057884" d="M19,19h3.867V32.534H19Z" transform="translate(-12.233 -15.133)" fill="#f6cc4f"/>
        <path id="Trazado_1057885" data-name="Trazado 1057885" d="M26,15h3.867V32.4H26Z" transform="translate(-12.466 -15)" fill="#f6cc4f"/>
      </g>
      <path id="Trazado_1057886" data-name="Trazado 1057886" d="M59.936,31,47.368,49.368V60l-5.8-3.867V49.368L29,31Z" transform="translate(-0.798 -0.964)" fill="#ec455a"/>
      <path id="Trazado_1057887" data-name="Trazado 1057887" d="M9,6h5.8V7.933H9Z" transform="translate(-0.133 -0.133)"/>
      <path id="Trazado_1057888" data-name="Trazado 1057888" d="M9,10h9.667v1.933H9Z" transform="translate(-0.133 -0.266)"/>
      <path id="Trazado_1057889" data-name="Trazado 1057889" d="M59.989,29.581a.967.967,0,0,0-.851-.512H57.2V24.235a.967.967,0,0,0-.967-.967H54.652a13.479,13.479,0,0,0-.764-1.846L55.01,20.3a.974.974,0,0,0,0-1.373l-4.1-4.1a.974.974,0,0,0-1.373,0L48.417,15.95a13.479,13.479,0,0,0-1.846-.764V13.6a.967.967,0,0,0-.967-.967H43.67V10.7a.967.967,0,0,0-.967-.967H39.8v-2.9a.967.967,0,0,0-.967-.967H31.992l-3.1-3.538A.948.948,0,0,0,28.163,2H5.967A.967.967,0,0,0,5,2.967v34.8a.967.967,0,0,0,.967.967h2.9v2.9a.967.967,0,0,0,.967.967h2.9v2.9a.967.967,0,0,0,.967.967H38.275L39.8,48.7v6.468a.967.967,0,0,0,.435.8l5.8,3.867a.967.967,0,0,0,1.5-.8V48.7l12.4-18.127a.967.967,0,0,0,.048-1ZM43.67,14.568h.967v1.344a.967.967,0,0,0,.725.938A10.614,10.614,0,0,1,48.1,17.98a.967.967,0,0,0,1.17-.145l.957-.957,2.736,2.736L52,20.571a.967.967,0,0,0-.145,1.17,10.614,10.614,0,0,1,1.131,2.736.967.967,0,0,0,.938.725h1.344v3.867H51.182A8.676,8.676,0,0,0,43.67,18.493Zm0,5.878a6.767,6.767,0,0,1,5.8,6.69,6.878,6.878,0,0,1-.28,1.933H47.131A4.834,4.834,0,0,0,43.67,22.4Zm0,3.964a2.867,2.867,0,0,1,1.17,4.66H43.67ZM39.8,11.667h1.933v17.4H39.8ZM37.869,7.8V29.069H35.936V10.73a.967.967,0,0,0-.242-.638L33.683,7.8Zm-8.7-2.224,3.645,4.157H29.169ZM6.933,36.8V3.933h20.3V10.7a.967.967,0,0,0,.967.967H34v17.4H30.135v-14.5a.967.967,0,0,0-.967-.967H25.3a.967.967,0,0,0-.967.967V31h-.967V18.435a.967.967,0,0,0-.967-.967H18.534a.967.967,0,0,0-.967.967V31H16.6V25.2a.967.967,0,0,0-.967-.967H11.767a.967.967,0,0,0-.967.967V31H8.867v1.933H29.014L31.663,36.8ZM27.4,30.577l.29.425H26.268V15.534H28.2V29.069a.967.967,0,0,0-.8,1.508ZM21.435,19.4V31H19.5V19.4Zm-6.767,6.767V31H12.734V26.169ZM10.8,40.67V38.736H32.987L34.3,40.67Zm3.867,3.867V42.6H35.627l1.324,1.933ZM55.319,33.9H51.4v1.933h2.591L45.768,47.863a.967.967,0,0,0-.164.541V57.23l-3.867-2.581V48.4a.967.967,0,0,0-.164-.541L33.345,35.836H49.47V33.9H32.021l-1.885-2.755V31H57.3Z" transform="translate(0 0)"/>
    </g>
  </g>
</svg>
