<svg xmlns="http://www.w3.org/2000/svg" xmlns:xlink="http://www.w3.org/1999/xlink" width="108" height="108" viewBox="0 0 108 108">
  <defs>
    <filter id="Trazado_904820" x="0" y="0" width="108" height="108" filterUnits="userSpaceOnUse">
      <feOffset dy="3" input="SourceAlpha"/>
      <feGaussianBlur stdDeviation="3" result="blur"/>
      <feFlood flood-opacity="0.161"/>
      <feComposite operator="in" in2="blur"/>
      <feComposite in="SourceGraphic"/>
    </filter>
  </defs>
  <g id="Grupo_1223336" data-name="Grupo 1223336" transform="translate(-512.414 -799.754)">
    <g id="Grupo_1223275" data-name="Grupo 1223275" transform="translate(521.414 805.754)">
      <g id="Grupo_1173585" data-name="Grupo 1173585" transform="translate(0 0)">
        <g id="Grupo_1173428" data-name="Grupo 1173428">
          <g id="Grupo_1171958" data-name="Grupo 1171958">
            <g id="Grupo_1167341" data-name="Grupo 1167341">
              <g id="Grupo_1166792" data-name="Grupo 1166792">
                <g transform="matrix(1, 0, 0, 1, -9, -6)" filter="url(#Trazado_904820)">
                  <g id="Trazado_904820-2" data-name="Trazado 904820" transform="translate(9 6)" fill="#efecfa">
                    <path d="M 44.99999618530273 88.50002288818359 C 39.12687301635742 88.50002288818359 33.43022155761719 87.35009765625 28.06829643249512 85.08218383789062 C 22.88852119445801 82.89133453369141 18.23629570007324 79.75460815429688 14.24084663391113 75.75916290283203 C 10.24540901184082 71.76371002197266 7.108683586120605 67.11148834228516 4.917821407318115 61.93171310424805 C 2.649921178817749 56.56978607177734 1.499996185302734 50.87313461303711 1.499996185302734 45.0000114440918 C 1.499996185302734 39.12688827514648 2.649921178817749 33.43023681640625 4.917821407318115 28.06829833984375 C 7.108683586120605 22.88852310180664 10.24540901184082 18.2363109588623 14.24084663391113 14.2408618927002 C 18.23629570007324 10.24541187286377 22.88852119445801 7.108686447143555 28.06829643249512 4.917823791503906 C 33.43022155761719 2.649924039840698 39.12687301635742 1.499998927116394 44.99999618530273 1.499998927116394 C 50.87311935424805 1.499998927116394 56.56977081298828 2.649924039840698 61.93169784545898 4.917823791503906 C 67.11147308349609 7.108686447143555 71.76369476318359 10.24541187286377 75.75914764404297 14.2408618927002 C 79.75458526611328 18.2363109588623 82.89131164550781 22.88852310180664 85.08216857910156 28.06829833984375 C 87.35007476806641 33.43023681640625 88.5 39.12688827514648 88.5 45.0000114440918 C 88.5 50.87313461303711 87.35007476806641 56.56978607177734 85.08216857910156 61.93171310424805 C 82.89131164550781 67.11148834228516 79.75458526611328 71.76371002197266 75.75914764404297 75.75916290283203 C 71.76369476318359 79.75460815429688 67.11147308349609 82.89133453369141 61.93169784545898 85.08218383789062 C 56.56977081298828 87.35009765625 50.87311935424805 88.50002288818359 44.99999618530273 88.50002288818359 Z" stroke="none"/>
                    <path d="M 44.99999618530273 3 C 39.32870864868164 3 33.82865142822266 4.110054016113281 28.65262603759766 6.299339294433594 C 23.65165710449219 8.414566040039062 19.15968322753906 11.44333648681641 15.301513671875 15.30152893066406 C 11.44333648681641 19.15969848632812 8.414566040039062 23.65165710449219 6.299339294433594 28.65264129638672 C 4.110054016113281 33.82866668701172 2.999992370605469 39.3287239074707 2.999992370605469 45.0000114440918 C 2.999992370605469 50.67129898071289 4.110054016113281 56.17135620117188 6.299339294433594 61.34738159179688 C 8.414566040039062 66.34836578369141 11.44333648681641 70.84032440185547 15.301513671875 74.69849395751953 C 19.15968322753906 78.55668640136719 23.65165710449219 81.58545684814453 28.65262603759766 83.70068359375 C 33.82865142822266 85.88996887207031 39.32870864868164 87.00002288818359 44.99999618530273 87.00002288818359 C 50.67128372192383 87.00002288818359 56.17134094238281 85.88996887207031 61.34736633300781 83.70068359375 C 66.34834289550781 81.58545684814453 70.84030914306641 78.55668640136719 74.69847869873047 74.69849395751953 C 78.55665588378906 70.84032440185547 81.58542633056641 66.34836578369141 83.70065307617188 61.34738159179688 C 85.88993835449219 56.17135620117188 87 50.67129898071289 87 45.0000114440918 C 87 39.3287239074707 85.88993835449219 33.82866668701172 83.70065307617188 28.65264129638672 C 81.58542633056641 23.65165710449219 78.55665588378906 19.15969848632812 74.69847869873047 15.30152893066406 C 70.84030914306641 11.44333648681641 66.34834289550781 8.414566040039062 61.34736633300781 6.299339294433594 C 56.17134094238281 4.110054016113281 50.67128372192383 3 44.99999618530273 3 M 44.99999618530273 0 C 69.85281372070312 0 90 20.14719390869141 90 45.0000114440918 C 90 69.85282897949219 69.85281372070312 90.00002288818359 44.99999618530273 90.00002288818359 C 20.14717864990234 90.00002288818359 -7.62939453125e-06 69.85282897949219 -7.62939453125e-06 45.0000114440918 C -7.62939453125e-06 20.14719390869141 20.14717864990234 0 44.99999618530273 0 Z" stroke="none" fill="#6c4dd8"/>
                  </g>
                </g>
              </g>
            </g>
          </g>
        </g>
      </g>
    </g>
    <g id="data-collection_18495503" transform="translate(482.505 793.508)">
      <g id="Grupo_1223335" data-name="Grupo 1223335" transform="translate(57.968 38.371)">
        <path id="Trazado_1057890" data-name="Trazado 1057890" d="M95.2,233.717V203.511a4.084,4.084,0,0,1,3.764-4.311h36.1a4.085,4.085,0,0,1,3.764,4.311l.16,30.205Z" transform="translate(-91.156 -190.711)" fill="#8fcae5" fill-rule="evenodd"/>
        <path id="Trazado_1057891" data-name="Trazado 1057891" d="M125.7,225.8h35.651v21.663H125.7Z" transform="translate(-117.585 -213.761)" fill="#ffcd05" fill-rule="evenodd"/>
        <path id="Trazado_1057892" data-name="Trazado 1057892" d="M154.7,285.327h3.123v3.964H154.7Zm9.317-5.192h-3.123v9.143h3.123Zm9.276,2.576h3.123v6.567h-3.123Zm9.317-4.311h-3.123v10.878h3.123Zm-12.4,8.235v2.643h-3.123v-7.354h3.123Z" transform="translate(-142.714 -259.34)" fill="#d71b5a" fill-rule="evenodd"/>
        <path id="Trazado_1057893" data-name="Trazado 1057893" d="M176.838,143.9l9.757-8.3H160.1l9.757,8.3.254,8.075,6.941,3.364Z" transform="translate(-147.393 -135.6)" fill="#d71b5a" fill-rule="evenodd"/>
        <path id="Trazado_1057894" data-name="Trazado 1057894" d="M68.611,416.3H79.9a2.935,2.935,0,0,1,2.536,1.388A4.36,4.36,0,0,0,86.1,419.7h9.517a4.329,4.329,0,0,0,3.657-2.015,2.935,2.935,0,0,1,2.536-1.388H113.1a3.72,3.72,0,0,1,3.711,3.711v1.281a3.708,3.708,0,0,1-3.711,3.7H68.611a3.717,3.717,0,0,1-3.711-3.7v-1.281A3.72,3.72,0,0,1,68.611,416.3Z" transform="translate(-64.9 -378.834)" fill="#219ebc" fill-rule="evenodd"/>
      </g>
      <path id="Trazado_1057895" data-name="Trazado 1057895" d="M63.093,74.77H72.97a4.017,4.017,0,0,1,3.43,1.882,3.284,3.284,0,0,0,2.763,1.522H88.68a3.284,3.284,0,0,0,2.763-1.522,4.017,4.017,0,0,1,3.43-1.882H104.7l-.12-23.6c-.013-1.642-1.108-3.243-2.7-3.243H88.493l.027,1.428h13.214a1.071,1.071,0,0,1,1.068,1.068V72.087a1.071,1.071,0,0,1-1.068,1.068H66.083a1.071,1.071,0,0,1-1.068-1.068V50.411a1.071,1.071,0,0,1,1.068-1.068H79.431l-.04-1.428H65.776c-1.588,0-2.7,1.6-2.7,3.243V74.77Zm43.74.053a4.774,4.774,0,0,1,4.084,4.725v1.281a4.776,4.776,0,0,1-4.765,4.765H61.678A4.788,4.788,0,0,1,56.9,80.829V79.548a4.78,4.78,0,0,1,4.058-4.712V51.171c0-2.8,2.042-5.379,4.832-5.379H77.735l-7.688-6.54a1.07,1.07,0,0,1,.614-1.949H97.156v.013a1.065,1.065,0,0,1,.694,1.869l-7.768,6.62h11.8c2.79,0,4.805,2.563,4.818,5.379ZM72.97,76.905H61.678a2.649,2.649,0,0,0-2.643,2.643v1.281a2.646,2.646,0,0,0,2.643,2.629h44.474a2.646,2.646,0,0,0,2.643-2.629V79.548a2.649,2.649,0,0,0-2.643-2.643H94.86a1.845,1.845,0,0,0-1.628.894,5.425,5.425,0,0,1-4.551,2.5H79.164a5.425,5.425,0,0,1-4.551-2.5A1.882,1.882,0,0,0,72.97,76.905Zm5.846-45.395a17.965,17.965,0,0,0-4.738-6.22,1.063,1.063,0,0,1,1.335-1.655,20.591,20.591,0,0,1,5.739,7.875l.427-.948a1.064,1.064,0,0,1,1.949.854l-1.482,3.364a1.059,1.059,0,0,1-1.655.387,32.758,32.758,0,0,1-3.27-2.322,1.068,1.068,0,1,1,1.442-1.575C78.643,31.35,78.736,31.43,78.817,31.511Zm7.835.013a20.535,20.535,0,0,1,5.739-7.888,1.063,1.063,0,1,1,1.335,1.655,18.09,18.09,0,0,0-4.738,6.22,2.284,2.284,0,0,0,.267-.24A1.068,1.068,0,1,1,90.7,32.845a30.8,30.8,0,0,1-3.283,2.322,1.064,1.064,0,0,1-1.655-.387l-1.482-3.35a1.064,1.064,0,0,1,1.949-.854Zm.107,14.3,7.515-6.393H73.544L81.1,45.859a1.074,1.074,0,0,1,.374.774l.24,7.421,4.805,2.322-.174-9.423a1.211,1.211,0,0,1,.414-1.135Zm1.8,5.659.12,6.54a1.065,1.065,0,0,1-1.522,1.041L80.218,55.7a1.058,1.058,0,0,1-.6-.921l-.107-3.3H67.164V71.006H100.68V51.478ZM69.954,63.291h3.123a1.071,1.071,0,0,1,1.068,1.068v3.964a1.071,1.071,0,0,1-1.068,1.068H69.954a1.071,1.071,0,0,1-1.068-1.068V64.359A1.071,1.071,0,0,1,69.954,63.291Zm2.056,2.136h-.988v1.815h.988ZM78.2,60.234h-.988v7.007H78.2ZM76.16,58.1h3.123a1.071,1.071,0,0,1,1.068,1.068V68.31a1.071,1.071,0,0,1-1.068,1.068H76.16a1.071,1.071,0,0,1-1.068-1.068V59.167A1.054,1.054,0,0,1,76.16,58.1Zm12.386,2.576H91.67a1.071,1.071,0,0,1,1.068,1.068V68.31a1.071,1.071,0,0,1-1.068,1.068H88.547a1.071,1.071,0,0,1-1.068-1.068V61.743A1.071,1.071,0,0,1,88.547,60.675ZM90.6,62.81h-.988v4.431H90.6Zm6.193-4.3h-.988v8.743H96.8ZM94.74,56.364h3.123a1.071,1.071,0,0,1,1.068,1.068V68.31a1.071,1.071,0,0,1-1.068,1.068H94.74a1.071,1.071,0,0,1-1.068-1.068V57.431A1.071,1.071,0,0,1,94.74,56.364Zm-8.209,9.3V68.31a1.071,1.071,0,0,1-1.068,1.068H82.34a1.071,1.071,0,0,1-1.068-1.068V60.942a1.071,1.071,0,0,1,1.068-1.068h3.123a1.071,1.071,0,0,1,1.068,1.068ZM84.4,67.242V62.023h-.988v5.219Z"/>
    </g>
  </g>
</svg>
