<svg xmlns="http://www.w3.org/2000/svg" xmlns:xlink="http://www.w3.org/1999/xlink" width="108" height="108" viewBox="0 0 108 108">
  <defs>
    <filter id="Trazado_904820" x="0" y="0" width="108" height="108" filterUnits="userSpaceOnUse">
      <feOffset dy="3" input="SourceAlpha"/>
      <feGaussianBlur stdDeviation="3" result="blur"/>
      <feFlood flood-opacity="0.161"/>
      <feComposite operator="in" in2="blur"/>
      <feComposite in="SourceGraphic"/>
    </filter>
  </defs>
  <g id="Grupo_1223298" data-name="Grupo 1223298" transform="translate(-1031.828 -688.071)">
    <g id="Grupo_1223230" data-name="Grupo 1223230" transform="translate(1040.828 694.071)">
      <g id="Grupo_1173585" data-name="Grupo 1173585" transform="translate(0 0)">
        <g id="Grupo_1173428" data-name="Grupo 1173428">
          <g id="Grupo_1171958" data-name="Grupo 1171958">
            <g id="Grupo_1167341" data-name="Grupo 1167341">
              <g id="Grupo_1166792" data-name="Grupo 1166792">
                <g transform="matrix(1, 0, 0, 1, -9, -6)" filter="url(#Trazado_904820)">
                  <g id="Trazado_904820-2" data-name="Trazado 904820" transform="translate(9 6)" fill="#efecfa">
                    <path d="M 44.99999618530273 88.50002288818359 C 39.12687301635742 88.50002288818359 33.43022155761719 87.35009765625 28.06829643249512 85.08218383789062 C 22.88852119445801 82.89133453369141 18.23629570007324 79.75460815429688 14.24084663391113 75.75916290283203 C 10.24540901184082 71.76371002197266 7.108683586120605 67.11148834228516 4.917821407318115 61.93171310424805 C 2.649921178817749 56.56978607177734 1.499996185302734 50.87313461303711 1.499996185302734 45.0000114440918 C 1.499996185302734 39.12688827514648 2.649921178817749 33.43023681640625 4.917821407318115 28.06829833984375 C 7.108683586120605 22.88852310180664 10.24540901184082 18.2363109588623 14.24084663391113 14.2408618927002 C 18.23629570007324 10.24541187286377 22.88852119445801 7.108686447143555 28.06829643249512 4.917823791503906 C 33.43022155761719 2.649924039840698 39.12687301635742 1.499998927116394 44.99999618530273 1.499998927116394 C 50.87311935424805 1.499998927116394 56.56977081298828 2.649924039840698 61.93169784545898 4.917823791503906 C 67.11147308349609 7.108686447143555 71.76369476318359 10.24541187286377 75.75914764404297 14.2408618927002 C 79.75458526611328 18.2363109588623 82.89131164550781 22.88852310180664 85.08216857910156 28.06829833984375 C 87.35007476806641 33.43023681640625 88.5 39.12688827514648 88.5 45.0000114440918 C 88.5 50.87313461303711 87.35007476806641 56.56978607177734 85.08216857910156 61.93171310424805 C 82.89131164550781 67.11148834228516 79.75458526611328 71.76371002197266 75.75914764404297 75.75916290283203 C 71.76369476318359 79.75460815429688 67.11147308349609 82.89133453369141 61.93169784545898 85.08218383789062 C 56.56977081298828 87.35009765625 50.87311935424805 88.50002288818359 44.99999618530273 88.50002288818359 Z" stroke="none"/>
                    <path d="M 44.99999618530273 3 C 39.32870864868164 3 33.82865142822266 4.110054016113281 28.65262603759766 6.299339294433594 C 23.65165710449219 8.414566040039062 19.15968322753906 11.44333648681641 15.301513671875 15.30152893066406 C 11.44333648681641 19.15969848632812 8.414566040039062 23.65165710449219 6.299339294433594 28.65264129638672 C 4.110054016113281 33.82866668701172 2.999992370605469 39.3287239074707 2.999992370605469 45.0000114440918 C 2.999992370605469 50.67129898071289 4.110054016113281 56.17135620117188 6.299339294433594 61.34738159179688 C 8.414566040039062 66.34836578369141 11.44333648681641 70.84032440185547 15.301513671875 74.69849395751953 C 19.15968322753906 78.55668640136719 23.65165710449219 81.58545684814453 28.65262603759766 83.70068359375 C 33.82865142822266 85.88996887207031 39.32870864868164 87.00002288818359 44.99999618530273 87.00002288818359 C 50.67128372192383 87.00002288818359 56.17134094238281 85.88996887207031 61.34736633300781 83.70068359375 C 66.34834289550781 81.58545684814453 70.84030914306641 78.55668640136719 74.69847869873047 74.69849395751953 C 78.55665588378906 70.84032440185547 81.58542633056641 66.34836578369141 83.70065307617188 61.34738159179688 C 85.88993835449219 56.17135620117188 87 50.67129898071289 87 45.0000114440918 C 87 39.3287239074707 85.88993835449219 33.82866668701172 83.70065307617188 28.65264129638672 C 81.58542633056641 23.65165710449219 78.55665588378906 19.15969848632812 74.69847869873047 15.30152893066406 C 70.84030914306641 11.44333648681641 66.34834289550781 8.414566040039062 61.34736633300781 6.299339294433594 C 56.17134094238281 4.110054016113281 50.67128372192383 3 44.99999618530273 3 M 44.99999618530273 0 C 69.85281372070312 0 90 20.14719390869141 90 45.0000114440918 C 90 69.85282897949219 69.85281372070312 90.00002288818359 44.99999618530273 90.00002288818359 C 20.14717864990234 90.00002288818359 -7.62939453125e-06 69.85282897949219 -7.62939453125e-06 45.0000114440918 C -7.62939453125e-06 20.14719390869141 20.14717864990234 0 44.99999618530273 0 Z" stroke="none" fill="#6c4dd8"/>
                  </g>
                </g>
              </g>
            </g>
          </g>
        </g>
      </g>
    </g>
    <g id="_04-Video_call" data-name="04-Video call" transform="translate(1058.492 710.929)">
      <path id="Trazado_1057697" data-name="Trazado 1057697" d="M5.7,7H49.84a1.7,1.7,0,0,1,1.7,1.7V40.955H4V8.7A1.7,1.7,0,0,1,5.7,7Z" transform="translate(-0.604 -0.151)" fill="#ecefe8"/>
      <path id="Trazado_1057698" data-name="Trazado 1057698" d="M51.084,47l2.547,5.093H34.106l-.849-2.547H21.373l-.849,2.547H1L3.547,47H51.084Z" transform="translate(-0.151 -6.196)" fill="#ecefe8"/>
      <path id="Trazado_1057699" data-name="Trazado 1057699" d="M34.106,53H53.631a3.4,3.4,0,0,1-3.4,3.4H4.4A3.4,3.4,0,0,1,1,53Z" transform="translate(-0.151 -7.103)" fill="#a9aba6"/>
      <path id="Trazado_1057700" data-name="Trazado 1057700" d="M51.933,54.7H8.64a1.7,1.7,0,0,1-1.7-1.7H1a3.4,3.4,0,0,0,3.4,3.4h45.84a3.4,3.4,0,0,0,3.4-3.4A1.7,1.7,0,0,1,51.933,54.7Z" transform="translate(-0.151 -7.103)" fill="#9c9e99"/>
      <path id="Trazado_1057701" data-name="Trazado 1057701" d="M8.725,48.067,9.149,47h-5.6L1,52.093H20.524l.566-1.7H10.3a1.7,1.7,0,0,1-1.574-2.328Z" transform="translate(-0.151 -6.196)" fill="#d1d4cd"/>
      <path id="Trazado_1057702" data-name="Trazado 1057702" d="M39.333,51l.566,1.7H59.423L58.575,51Z" transform="translate(-5.944 -6.8)" fill="#d1d4cd"/>
      <path id="Trazado_1057703" data-name="Trazado 1057703" d="M36.733,50l.849,2.547H24L24.849,50Z" transform="translate(-3.627 -6.649)" fill="#8b8c88"/>
      <path id="Trazado_1057704" data-name="Trazado 1057704" d="M27.547,23.273V29.64H25V23.273a1.273,1.273,0,1,1,2.547,0Z" transform="translate(-3.778 -2.418)" fill="#824c20"/>
      <path id="Trazado_1057705" data-name="Trazado 1057705" d="M20.791,15.547v1.7A32.121,32.121,0,0,1,14,16.4V13a30.016,30.016,0,0,0,5.093.849,1.71,1.71,0,0,1,1.7,1.7Z" transform="translate(-2.116 -1.058)" fill="#777874"/>
      <path id="Trazado_1057706" data-name="Trazado 1057706" d="M20.791,17.849v3.4a3.4,3.4,0,1,1-6.791,0V17a32.121,32.121,0,0,0,6.791.849Z" transform="translate(-2.116 -1.662)" fill="#824c20"/>
      <path id="Trazado_1057707" data-name="Trazado 1057707" d="M18.139,28.2a1.66,1.66,0,0,0,.5-1.2s4.244.849,4.244,3.4H11c0-2.547,4.244-3.4,4.244-3.4a1.7,1.7,0,0,0,1.7,1.7A1.66,1.66,0,0,0,18.139,28.2Z" transform="translate(-1.662 -3.173)" fill="#3c5d8c"/>
      <path id="Trazado_1057708" data-name="Trazado 1057708" d="M18.468,25.822c-.057.014-.113.025-.17.036a3.3,3.3,0,0,1-.6.06,3.365,3.365,0,0,1-1.652-.446L16,25.46v1.307a1.7,1.7,0,0,0,3.4,0V25.46c-.085.05-.18.092-.272.135-.06.028-.12.056-.182.081a3.311,3.311,0,0,1-.475.147Z" transform="translate(-2.418 -2.941)" fill="#70421c"/>
      <path id="Trazado_1057709" data-name="Trazado 1057709" d="M19.4,25.46c-.085.05-.18.092-.272.135-.06.028-.12.056-.182.081a3.311,3.311,0,0,1-.475.147c-.057.014-.113.025-.17.036a3.3,3.3,0,0,1-.6.06,3.365,3.365,0,0,1-1.652-.446L16,25.46v1.307a1.675,1.675,0,0,0,.246.865l3.149-1.35Z" transform="translate(-2.418 -2.941)" fill="#633b18"/>
      <path id="Trazado_1057710" data-name="Trazado 1057710" d="M19.972,27a1.66,1.66,0,0,1-.16.707l1.4-.34A9.529,9.529,0,0,0,19.972,27Z" transform="translate(-2.994 -3.173)" fill="#357a64"/>
      <path id="Trazado_1057711" data-name="Trazado 1057711" d="M15.9,28.333A1.692,1.692,0,0,1,15.244,27S11,27.849,11,30.4h3.4A2.085,2.085,0,0,1,15.9,28.333Z" transform="translate(-1.662 -3.173)" fill="#324f78"/>
      <path id="Trazado_1057712" data-name="Trazado 1057712" d="M20.791,15.547a1.71,1.71,0,0,0-1.7-1.7A30.016,30.016,0,0,1,14,13v.477a18.581,18.581,0,0,0,5.213,2.011.849.849,0,0,1,.729.836v.9c.282.011.565.019.849.019Z" transform="translate(-2.116 -1.058)" fill="#656663"/>
      <path id="Trazado_1057713" data-name="Trazado 1057713" d="M13.093,11H8V27.978h2.547c0-2.547,4.244-3.4,4.244-3.4V23.275a3.587,3.587,0,0,1-.7-.535,3.417,3.417,0,0,1-.993-2.4V12.7a30.016,30.016,0,0,0,5.093.849,1.71,1.71,0,0,1,1.7,1.7v5.093a3.379,3.379,0,0,1-1.7,2.937v1.307s4.244.849,4.244,3.4V21.611a1.273,1.273,0,1,1,2.547,0v6.367h3.4V11Z" transform="translate(-1.209 -0.756)" fill="#7db2ff"/>
      <path id="Trazado_1057714" data-name="Trazado 1057714" d="M40.45,34a5.1,5.1,0,0,1,4.643-3v5.093h5.093A5.093,5.093,0,1,1,40.45,34Z" transform="translate(-6.045 -3.778)" fill="#eba800"/>
      <path id="Trazado_1057715" data-name="Trazado 1057715" d="M52.446,29.35a5.075,5.075,0,0,1,1.647,3.744H49V28a5.03,5.03,0,0,1,3.446,1.35Z" transform="translate(-7.405 -3.325)" fill="#5a80b8"/>
      <path id="Trazado_1057716" data-name="Trazado 1057716" d="M52.884,7V17.187H47.791V13.044a.949.949,0,0,0-.951-.951H41V7Z" transform="translate(-6.196 -0.151)" fill="#5a80b8"/>
      <path id="Trazado_1057717" data-name="Trazado 1057717" d="M38.4,21v3.4L35,21Z" transform="translate(-5.289 -2.267)" fill="#eba800"/>
      <path id="Trazado_1057718" data-name="Trazado 1057718" d="M46.884,18.093v4.143a.949.949,0,0,1-.951.951H38.4v-3.4H35v-5.84A.949.949,0,0,1,35.951,13h9.983a.949.949,0,0,1,.951.951Z" transform="translate(-5.289 -1.058)" fill="#f5c10d"/>
      <g id="Grupo_1223296" data-name="Grupo 1223296" transform="translate(30.984 15.338)">
        <rect id="Rectángulo_423387" data-name="Rectángulo 423387" width="9.338" height="0.849" rx="0.424" fill="#606060"/>
        <rect id="Rectángulo_423388" data-name="Rectángulo 423388" width="9.338" height="0.849" rx="0.424" transform="translate(0 1.698)" fill="#606060"/>
        <path id="Trazado_1057719" data-name="Trazado 1057719" d="M45.791,21.849a.424.424,0,0,0,0-.849H39v.849Z" transform="translate(-36.878 -17.604)" fill="#606060"/>
      </g>
      <rect id="Rectángulo_423389" data-name="Rectángulo 423389" width="5" transform="translate(31.164 14.071)" fill="#3a3b39"/>
      <path id="Trazado_1057720" data-name="Trazado 1057720" d="M45.934,24.4H38.4L35,21v1.7l3.4,3.4h7.538a.949.949,0,0,0,.951-.951v-1.7a.949.949,0,0,1-.951.951Z" transform="translate(-5.289 -2.267)" fill="#d1d4cd"/>
      <path id="Trazado_1057721" data-name="Trazado 1057721" d="M49,19h4.244v1.7H49Z" transform="translate(-7.405 -1.965)" fill="#d1d4cd"/>
      <g id="Grupo_1223297" data-name="Grupo 1223297" transform="translate(36.077 9.396)">
        <rect id="Rectángulo_423390" data-name="Rectángulo 423390" width="9.338" height="0.849" rx="0.424" fill="#3a3b39"/>
        <rect id="Rectángulo_423391" data-name="Rectángulo 423391" width="9.338" height="0.849" rx="0.424" transform="translate(0 1.698)" fill="#3a3b39"/>
        <path id="Trazado_1057722" data-name="Trazado 1057722" d="M49,14.849h3.4a.424.424,0,1,0,0-.849H48.976a.982.982,0,0,1,.02.1Z" transform="translate(-43.479 -10.604)" fill="#3a3b39"/>
        <path id="Trazado_1057723" data-name="Trazado 1057723" d="M52.4,16H49v.849h3.4a.424.424,0,1,0,0-.849Z" transform="translate(-43.482 -10.907)" fill="#3a3b39"/>
      </g>
      <path id="Trazado_1057724" data-name="Trazado 1057724" d="M7,52H8.7v1.7H7Z" transform="translate(-1.058 -6.951)"/>
      <path id="Trazado_1057725" data-name="Trazado 1057725" d="M54.328,45.918V45.9a.849.849,0,0,0-.085-.379L51.782,40.6V11.942h-1.7V39.955H4.244V8.547A.849.849,0,0,1,5.093,7.7H33.955v3.4H30.666a1.806,1.806,0,0,0-1.8,1.8v5.836a.849.849,0,0,0,.249.6l3.4,3.4a.849.849,0,0,0,.6.249H40.64a1.806,1.806,0,0,0,1.8-1.8V17.884h4.244a.849.849,0,0,0,.849-.849V7.7h1.7a.849.849,0,0,1,.849.849v1.7h1.7v-1.7A2.547,2.547,0,0,0,49.235,6H5.093A2.547,2.547,0,0,0,2.547,8.547V40.6L.089,45.518A.849.849,0,0,0,0,45.9v.02a.526.526,0,0,0,.007.063,4.244,4.244,0,0,0,4.238,4.161h45.84a4.244,4.244,0,0,0,4.236-4.16.613.613,0,0,0,.008-.065ZM32.257,20.08l-.5-.5h.5Zm8.489,1.094a.106.106,0,0,1-.106.106H33.955V18.733a.849.849,0,0,0-.849-.849H30.56V12.9a.106.106,0,0,1,.106-.106H40.64a.106.106,0,0,1,.106.106ZM45.84,7.7v8.489h-3.4V12.9a1.806,1.806,0,0,0-1.8-1.8H35.653V7.7Zm4.244,40.746H4.244a2.547,2.547,0,0,1-2.39-1.7h2.39v-1.7H2.222l1.7-3.4H50.408l1.7,3.4H34.566l-.655-1.966a.849.849,0,0,0-.8-.581H21.222a.849.849,0,0,0-.8.581l-.655,1.966H9.338v1.7H52.474a2.547,2.547,0,0,1-2.39,1.7Zm-17.307-3.4H21.551l.283-.849h10.66Z" transform="translate(0)"/>
      <path id="Trazado_1057726" data-name="Trazado 1057726" d="M8,38H24.978v1.7H8Z" transform="translate(-1.209 -4.836)"/>
      <path id="Trazado_1057727" data-name="Trazado 1057727" d="M8,42H24.978v1.7H8Z" transform="translate(-1.209 -5.44)"/>
      <path id="Trazado_1057728" data-name="Trazado 1057728" d="M8,34h8.489v1.7H8Z" transform="translate(-1.209 -4.231)"/>
      <path id="Trazado_1057729" data-name="Trazado 1057729" d="M29.071,27.827V10.849A.849.849,0,0,0,28.222,10H7.849A.849.849,0,0,0,7,10.849V27.827a.849.849,0,0,0,.849.849H28.222A.849.849,0,0,0,29.071,27.827Zm-17.523-.849a5.231,5.231,0,0,1,2.474-1.5,2.538,2.538,0,0,0,4.631,0,5.227,5.227,0,0,1,2.474,1.5Zm7.336-11.055a32.342,32.342,0,0,1-5.093-.66V13.615a23.905,23.905,0,0,0,4.244.629.849.849,0,0,1,.849.849ZM13.791,17a33.006,33.006,0,0,0,5.093.626v2.563a2.547,2.547,0,0,1-5.093,0Zm1.7,7.349a4.244,4.244,0,0,0,1.7,0v.085a.849.849,0,0,1-1.7,0Zm8.489,2.632h-.849V21.46a.424.424,0,1,1,.849,0Zm3.4,0h-1.7V21.46a2.122,2.122,0,1,0-4.244,0v3.49a9.012,9.012,0,0,0-2.547-1.177V23.56a4.225,4.225,0,0,0,1.7-3.373V15.093a2.547,2.547,0,0,0-2.547-2.547,29.405,29.405,0,0,1-4.888-.823.849.849,0,0,0-1.054.823v7.64a4.225,4.225,0,0,0,1.7,3.373v.215c-1.188.35-3.553,1.28-4.113,3.2H8.7V11.7H27.373Z" transform="translate(-1.058 -0.604)"/>
      <path id="Trazado_1057730" data-name="Trazado 1057730" d="M44.187,41.884a5.949,5.949,0,0,0,5.942-5.942.849.849,0,0,0-.849-.849H45.035V30.849A.849.849,0,0,0,44.187,30a5.935,5.935,0,0,0-4.815,2.474l-.527-.527a.849.849,0,0,0-.6-.249H34v1.7h3.893l.663.663a5.929,5.929,0,0,0,5.631,7.826Zm-.849-10.1v4.16a.849.849,0,0,0,.849.849h4.16a4.244,4.244,0,0,1-8.4-.849,4.037,4.037,0,0,1,.041-.457l.208.208,1.2-1.2L40.6,33.7a4.251,4.251,0,0,1,2.741-1.916Z" transform="translate(-5.138 -3.627)"/>
      <path id="Trazado_1057731" data-name="Trazado 1057731" d="M56.489,27.7V26H53.942a.849.849,0,0,0-.679.34l-1.128,1.505a5.906,5.906,0,0,0-3.286-1A.849.849,0,0,0,48,27.7v5.093a.849.849,0,0,0,.849.849h5.093a.849.849,0,0,0,.849-.849A5.915,5.915,0,0,0,53.4,28.982l.963-1.284Zm-3.48,4.244H49.7V28.632a4.2,4.2,0,0,1,1.411.58l-.392.524,1.358,1.019.267-.356a4.2,4.2,0,0,1,.666,1.544Z" transform="translate(-7.254 -3.022)"/>
    </g>
  </g>
</svg>
