<svg xmlns="http://www.w3.org/2000/svg" xmlns:xlink="http://www.w3.org/1999/xlink" width="123" height="123" viewBox="0 0 123 123">
  <defs>
    <filter id="Trazado_982547" x="0" y="0" width="123" height="123" filterUnits="userSpaceOnUse">
      <feOffset dy="3" input="SourceAlpha"/>
      <feGaussianBlur stdDeviation="3" result="blur"/>
      <feFlood flood-opacity="0.161"/>
      <feComposite operator="in" in2="blur"/>
      <feComposite in="SourceGraphic"/>
    </filter>
  </defs>
  <g id="Grupo_1223318" data-name="Grupo 1223318" transform="translate(-319.281 -2780.439)">
    <g id="Grupo_1223225" data-name="Grupo 1223225" transform="translate(-5.489 -200.256)">
      <g id="Grupo_1211203" data-name="Grupo 1211203" transform="translate(333.77 2986.695)">
        <g id="Grupo_1210937" data-name="Grupo 1210937" transform="translate(0 0)">
          <g id="Grupo_1174742" data-name="Grupo 1174742" transform="translate(0)">
            <g id="Grupo_1163948" data-name="Grupo 1163948">
              <g id="Grupo_1158168" data-name="Grupo 1158168">
                <g id="Grupo_1152576" data-name="Grupo 1152576">
                  <g id="Grupo_1148633" data-name="Grupo 1148633">
                    <g id="Grupo_1148525" data-name="Grupo 1148525">
                      <g transform="matrix(1, 0, 0, 1, -9, -6)" filter="url(#Trazado_982547)">
                        <g id="Trazado_982547-2" data-name="Trazado 982547" transform="translate(9 6)" fill="#fdf6e4">
                          <path d="M 52.49996948242188 103.4999389648438 C 45.61435699462891 103.4999389648438 38.93551254272461 102.1517105102539 32.64894104003906 99.49272918701172 C 26.57608413696289 96.92412567138672 21.12178421020508 93.24662780761719 16.43754005432129 88.56240081787109 C 11.75331211090088 83.87815856933594 8.075812339782715 78.42385864257812 5.507212162017822 72.35099792480469 C 2.848226547241211 66.06443023681641 1.499998092651367 59.38558197021484 1.499998092651367 52.49996948242188 C 1.499998092651367 45.61435699462891 2.848226547241211 38.93551254272461 5.507212162017822 32.64894104003906 C 8.075812339782715 26.57608413696289 11.75331211090088 21.12178421020508 16.43754005432129 16.43754005432129 C 21.12178421020508 11.75331211090088 26.57608413696289 8.075812339782715 32.64894104003906 5.507212162017822 C 38.93551254272461 2.848226547241211 45.61435699462891 1.499998092651367 52.49996948242188 1.499998092651367 C 59.38558197021484 1.499998092651367 66.06443023681641 2.848226547241211 72.35099792480469 5.507212162017822 C 78.42385864257812 8.075812339782715 83.87815856933594 11.75331211090088 88.56240081787109 16.43754005432129 C 93.24662780761719 21.12178421020508 96.92412567138672 26.57608413696289 99.49272918701172 32.64894104003906 C 102.1517105102539 38.93551254272461 103.4999389648438 45.61435699462891 103.4999389648438 52.49996948242188 C 103.4999389648438 59.38558197021484 102.1517105102539 66.06443023681641 99.49272918701172 72.35099792480469 C 96.92412567138672 78.42385864257812 93.24662780761719 83.87815856933594 88.56240081787109 88.56240081787109 C 83.87815856933594 93.24662780761719 78.42385864257812 96.92412567138672 72.35099792480469 99.49272918701172 C 66.06443023681641 102.1517105102539 59.38558197021484 103.4999389648438 52.49996948242188 103.4999389648438 Z" stroke="none"/>
                          <path d="M 52.49996948242188 3 C 45.81618499755859 3 39.33393859863281 4.308349609375 33.23326873779297 6.888717651367188 C 27.33920288085938 9.381706237792969 22.045166015625 12.95125579833984 17.49819946289062 17.49819946289062 C 12.95125579833984 22.045166015625 9.381706237792969 27.33920288085938 6.888717651367188 33.23326873779297 C 4.308349609375 39.33393859863281 3 45.81618499755859 3 52.49996948242188 C 3 59.18375396728516 4.308349609375 65.66600036621094 6.888717651367188 71.76667022705078 C 9.381706237792969 77.66073608398438 12.95125579833984 82.95477294921875 17.49819946289062 87.50173950195312 C 22.045166015625 92.04868316650391 27.33920288085938 95.61824035644531 33.23326873779297 98.11122131347656 C 39.33393859863281 100.6915893554688 45.81618499755859 101.9999389648438 52.49996948242188 101.9999389648438 C 59.18375396728516 101.9999389648438 65.66600036621094 100.6915893554688 71.76667022705078 98.11122131347656 C 77.66073608398438 95.61824035644531 82.95477294921875 92.04868316650391 87.50173950195312 87.50173950195312 C 92.04868316650391 82.95477294921875 95.61824035644531 77.66073608398438 98.11122131347656 71.76667022705078 C 100.6915893554688 65.66600036621094 101.9999389648438 59.18375396728516 101.9999389648438 52.49996948242188 C 101.9999389648438 45.81618499755859 100.6915893554688 39.33393859863281 98.11122131347656 33.23326873779297 C 95.61824035644531 27.33920288085938 92.04868316650391 22.045166015625 87.50173950195312 17.49819946289062 C 82.95477294921875 12.95125579833984 77.66073608398438 9.381706237792969 71.76667022705078 6.888717651367188 C 65.66600036621094 4.308349609375 59.18375396728516 3 52.49996948242188 3 M 52.49996948242188 0 C 81.49490356445312 0 104.9999389648438 23.50503540039062 104.9999389648438 52.49996948242188 C 104.9999389648438 81.49490356445312 81.49490356445312 104.9999389648438 52.49996948242188 104.9999389648438 C 23.50503540039062 104.9999389648438 0 81.49490356445312 0 52.49996948242188 C 0 23.50503540039062 23.50503540039062 0 52.49996948242188 0 Z" stroke="none" fill="#f5b104"/>
                        </g>
                      </g>
                    </g>
                  </g>
                </g>
              </g>
            </g>
          </g>
        </g>
      </g>
    </g>
    <g id="analysis_4930486_3_" data-name="analysis_4930486 (3)" transform="translate(316.626 2804.566)">
      <g id="Grupo_1223316" data-name="Grupo 1223316" transform="translate(40.52 0.99)">
        <path id="Trazado_1057748" data-name="Trazado 1057748" d="M91.573,98.735H48.085a1.056,1.056,0,0,1-1.056-1.056V38.1a1.056,1.056,0,0,1,1.056-1.056H91.573A1.056,1.056,0,0,1,92.629,38.1V97.68A1.056,1.056,0,0,1,91.573,98.735Z" transform="translate(-47.029 -33.144)" fill="#918291"/>
        <path id="Trazado_1057749" data-name="Trazado 1057749" d="M77.03,120.553V67.307a.264.264,0,0,1,.264-.264h37.154a.264.264,0,0,1,.264.264v53.246a.264.264,0,0,1-.264.264H77.294A.264.264,0,0,1,77.03,120.553Z" transform="translate(-73.071 -59.185)" fill="#eaf6ff"/>
        <path id="Trazado_1057750" data-name="Trazado 1057750" d="M80.591,120.82h-3.3a.264.264,0,0,1-.264-.264V67.311a.264.264,0,0,1,.264-.264h3.3a.264.264,0,0,0-.264.264v53.245A.264.264,0,0,0,80.591,120.82Z" transform="translate(-73.069 -59.188)" fill="#d8ecfe"/>
        <path id="Trazado_1057751" data-name="Trazado 1057751" d="M0,0H4.206V6.591H0Z" transform="translate(31.822 47.05) rotate(-69.156)" fill="#918291"/>
        <path id="Trazado_1057752" data-name="Trazado 1057752" d="M164.29,9.654,163.5,7.667a.264.264,0,0,0-.245-.167h-8.531a.264.264,0,0,0-.245.167l-.789,1.988a.264.264,0,0,1-.245.167h-3.171a.528.528,0,0,0-.528.528V16.42a.528.528,0,0,0,.528.528h17.432a.528.528,0,0,0,.528-.528V10.349a.528.528,0,0,0-.528-.528h-3.171A.264.264,0,0,1,164.29,9.654Z" transform="translate(-136.19 -7.5)" fill="#fff0ad"/>
        <path id="Trazado_1057753" data-name="Trazado 1057753" d="M153.575,32.214h-3.3a.528.528,0,0,1-.528-.528V25.615a.528.528,0,0,1,.528-.528H153.2a.539.539,0,0,0-.149.375v6.212A.534.534,0,0,0,153.575,32.214Z" transform="translate(-136.192 -22.766)" fill="#ffe177"/>
        <circle id="Elipse_12582" data-name="Elipse 12582" cx="12.971" cy="12.971" r="12.971" transform="translate(9.098 28.123)" fill="#fff0ad"/>
        <path id="Trazado_1057754" data-name="Trazado 1057754" d="M130.372,246.441a12.973,12.973,0,1,1,0-25.784,12.974,12.974,0,0,0,0,25.784Z" transform="translate(-106.849 -192.455)" fill="#ffe177"/>
        <circle id="Elipse_12583" data-name="Elipse 12583" cx="8.2" cy="8.2" r="8.2" transform="translate(13.869 32.894)" fill="#99e6fc"/>
        <path id="Trazado_1057755" data-name="Trazado 1057755" d="M160.689,272.6a8.114,8.114,0,0,0,1.266.37,8.2,8.2,0,1,1,0-16.068,8.2,8.2,0,0,0-1.266,15.7Z" transform="translate(-138.235 -223.838)" fill="#62dbfb"/>
        <path id="Trazado_1057756" data-name="Trazado 1057756" d="M343.365,350.233l-1.441,3.788a1.056,1.056,0,0,1-1.362.612L325.3,348.826a.527.527,0,0,1-.3-.681l1.816-4.775a.527.527,0,0,1,.681-.306l15.265,5.807A1.056,1.056,0,0,1,343.365,350.233Z" transform="translate(-288.276 -298.748)" fill="#fff0ad"/>
        <path id="Trazado_1057757" data-name="Trazado 1057757" d="M194.888,148.337,191.1,158.368a.264.264,0,0,1-.451.074l-1.311-1.6a.264.264,0,0,0-.371-.037L162.827,178.22l-.059-.021a8.17,8.17,0,0,1-4.47-4.1l26.83-21.979a.264.264,0,0,0,.037-.372l-1.311-1.6a.264.264,0,0,1,.162-.428l10.58-1.737A.264.264,0,0,1,194.888,148.337Z" transform="translate(-143.613 -129.44)" fill="#91deb6"/>
        <path id="Trazado_1057758" data-name="Trazado 1057758" d="M164.134,334.885l-1.307,1.07-.059-.021a8.17,8.17,0,0,1-4.47-4.1l2.608-2.137a8.242,8.242,0,0,0,2.168,4.261,8.121,8.121,0,0,0,1.06.926Z" transform="translate(-143.613 -287.175)" fill="#6ed5a1"/>
        <path id="Trazado_1057759" data-name="Trazado 1057759" d="M425.493,380.623l-1.441,3.788a1.056,1.056,0,0,1-1.362.612l-3.12-1.186,2.081-5.775.02-.021,3.21,1.221A1.056,1.056,0,0,1,425.493,380.623Z" transform="translate(-370.404 -329.138)" fill="#fd8087"/>
      </g>
      <g id="Grupo_1223317" data-name="Grupo 1223317" transform="translate(39.53 0)">
        <path id="Trazado_1057760" data-name="Trazado 1057760" d="M78.662,139.113H41.576a.066.066,0,0,1-.066-.066V85.69a.99.99,0,0,0-1.98,0v53.357a2.048,2.048,0,0,0,2.046,2.046H78.662a.99.99,0,0,0,0-1.98Z" transform="translate(-39.53 -73.522)"/>
        <path id="Trazado_1057761" data-name="Trazado 1057761" d="M95.348,50.187l-8.239-3.134V30.893a1.25,1.25,0,0,0,1.825-.625L92.718,20.24a1.253,1.253,0,0,0-1.374-1.684l-4.234.7V5.944A2.048,2.048,0,0,0,85.064,3.9H73.553v-.06a1.519,1.519,0,0,0-1.518-1.518H69.358L68.751.792A1.247,1.247,0,0,0,67.585,0H59.054a1.247,1.247,0,0,0-1.165.791l-.608,1.53H54.6a1.519,1.519,0,0,0-1.518,1.518V3.9H41.576A2.048,2.048,0,0,0,39.53,5.944v1.6a.99.99,0,1,0,1.98,0v-1.6a.067.067,0,0,1,.066-.066h11.51v1.98H44.743a1.255,1.255,0,0,0-1.254,1.254V62.358a1.255,1.255,0,0,0,1.254,1.254H81.9a1.255,1.255,0,0,0,1.254-1.254v-8.1l1.98.753V65.525a.066.066,0,0,1-.066.066H83.281a.99.99,0,0,0,0,1.98h1.783a2.048,2.048,0,0,0,2.046-2.046V55.767L92.453,57.8a2.045,2.045,0,0,0,2.639-1.185l1.441-3.788a2.048,2.048,0,0,0-1.185-2.639Zm-17.026.12L79.81,46.4l10.772,4.1L89.163,54.43Zm-1.5-1.619L75.2,48.073q.237-.5.437-1.025c.132-.349.248-.7.352-1.057l1.622.617Zm-18.49,4.595A11.981,11.981,0,1,1,69.736,32.465l-2.251,1.844A9.189,9.189,0,1,0,62.57,51.276a9.341,9.341,0,0,0,1.262-.086,9.186,9.186,0,0,0,7.9-9.973l2.477-2.029A11.978,11.978,0,0,1,58.331,53.283ZM56.848,37.722a7.223,7.223,0,0,1,9-2.07l-10.2,8.357A7.2,7.2,0,0,1,56.848,37.722Zm12.915,5.111a7.218,7.218,0,0,1-6.2,6.4,7.259,7.259,0,0,1-1.652.035Zm10.319,1.548a1.514,1.514,0,0,0-1.674.411l-2-.759a13.914,13.914,0,0,0-.532-6.212l5.289-4.333V44.795Zm3.068,1.167V31.867l1.98-1.622V46.3Zm4.376-17.155-.515-.629a1.259,1.259,0,0,0-1.763-.173L59.563,48.63a7.265,7.265,0,0,1-1.335-.8,7.172,7.172,0,0,1-1.759-1.933l26.2-21.46a1.254,1.254,0,0,0,.174-1.763l-.514-.627,8.1-1.33ZM85.064,5.878a.067.067,0,0,1,.066.066V19.577l-1.98.325V9.112A1.255,1.255,0,0,0,81.9,7.858H73.554V5.878Zm-30-1.577h2.709A1.247,1.247,0,0,0,58.94,3.51l.608-1.53h7.545L67.7,3.51a1.247,1.247,0,0,0,1.165.791h2.709V9.448H55.066ZM81.171,61.632h-35.7V9.837h7.617V9.91A1.519,1.519,0,0,0,54.6,11.427H72.036A1.519,1.519,0,0,0,73.554,9.91V9.837h7.617V20.227l-.408.067A1.254,1.254,0,0,0,80,22.325l.85,1.038-9.54,7.816a13.972,13.972,0,1,0-4.755,24.285l2,3.358a1.26,1.26,0,0,0,.938.6,1.243,1.243,0,0,0,.136.008,1.262,1.262,0,0,0,.912-.391L72,57.5l1.16,1.434a1.253,1.253,0,0,0,1.707.24l1.51-1.077h1.742a.99.99,0,1,0,0-1.98H76.145a1.251,1.251,0,0,0-.728.233l-1.143.814L73.018,55.61a1.253,1.253,0,0,0-1.884-.074l-1.373,1.449-1.329-2.23a13.953,13.953,0,0,0,5.782-4.939l2,.76a1.519,1.519,0,0,0,.976,1.418l3.984,1.515Zm13.512-9.51-1.441,3.788a.066.066,0,0,1-.085.038l-2.143-.815L92.433,51.2l2.212.841a.066.066,0,0,1,.038.085Z" transform="translate(-39.53 0)"/>
        <path id="Trazado_1057762" data-name="Trazado 1057762" d="M119.645,110.418a.99.99,0,0,0,0-1.98H107.512v-1.962h1.535a1.25,1.25,0,0,0,.97-.459l2.712-3.308,2.082,3.3a.99.99,0,0,0,.8.461h.04a.99.99,0,0,0,.793-.4l1.77-2.368.84,1.3a.99.99,0,1,0,1.662-1.076l-1.238-1.912,1.2-1.6a.99.99,0,0,0-1.586-1.185l-.761,1.018-1.777-2.744a1.254,1.254,0,0,0-2.022-.114l-1.59,1.939-1.411-2.239A.99.99,0,0,0,109.922,97l-2.409,2.984V97.74a.99.99,0,1,0-1.98,0v11.424a1.255,1.255,0,0,0,1.254,1.254h12.859Zm-4.215-11,1.634,2.524-1.346,1.8-1.666-2.644Zm-4.838-.1,1.025,1.626L108.7,104.5h-1.192v-1.364Z" transform="translate(-96.822 -83.877)"/>
        <path id="Trazado_1057763" data-name="Trazado 1057763" d="M233,99.523h11.488a.99.99,0,0,0,0-1.98H233a.99.99,0,0,0,0,1.98Z" transform="translate(-206.606 -84.67)"/>
        <path id="Trazado_1057764" data-name="Trazado 1057764" d="M233,129.523h10.291a.99.99,0,0,0,0-1.98H233a.99.99,0,0,0,0,1.98Z" transform="translate(-206.606 -110.711)"/>
        <path id="Trazado_1057765" data-name="Trazado 1057765" d="M233,158.523h8.834a.99.99,0,1,0,0-1.98H233a.99.99,0,0,0,0,1.98Z" transform="translate(-206.606 -135.883)"/>
        <path id="Trazado_1057766" data-name="Trazado 1057766" d="M233,188.089h6.61a.99.99,0,1,0,0-1.98H233a.99.99,0,0,0,0,1.98Z" transform="translate(-206.606 -161.547)"/>
      </g>
    </g>
  </g>
</svg>
