<svg xmlns="http://www.w3.org/2000/svg" xmlns:xlink="http://www.w3.org/1999/xlink" width="123" height="123" viewBox="0 0 123 123">
  <defs>
    <filter id="Trazado_982547" x="0" y="0" width="123" height="123" filterUnits="userSpaceOnUse">
      <feOffset dy="3" input="SourceAlpha"/>
      <feGaussianBlur stdDeviation="3" result="blur"/>
      <feFlood flood-opacity="0.161"/>
      <feComposite operator="in" in2="blur"/>
      <feComposite in="SourceGraphic"/>
    </filter>
  </defs>
  <g id="Grupo_1223320" data-name="Grupo 1223320" transform="translate(-738.656 -2780.439)">
    <g id="Grupo_1223226" data-name="Grupo 1223226" transform="translate(413.886 -200.256)">
      <g id="Grupo_1211203" data-name="Grupo 1211203" transform="translate(333.77 2986.695)">
        <g id="Grupo_1210937" data-name="Grupo 1210937" transform="translate(0 0)">
          <g id="Grupo_1174742" data-name="Grupo 1174742" transform="translate(0)">
            <g id="Grupo_1163948" data-name="Grupo 1163948">
              <g id="Grupo_1158168" data-name="Grupo 1158168">
                <g id="Grupo_1152576" data-name="Grupo 1152576">
                  <g id="Grupo_1148633" data-name="Grupo 1148633">
                    <g id="Grupo_1148525" data-name="Grupo 1148525">
                      <g transform="matrix(1, 0, 0, 1, -9, -6)" filter="url(#Trazado_982547)">
                        <g id="Trazado_982547-2" data-name="Trazado 982547" transform="translate(9 6)" fill="#fdf6e4">
                          <path d="M 52.49996948242188 103.4999389648438 C 45.61435699462891 103.4999389648438 38.93551254272461 102.1517105102539 32.64894104003906 99.49272918701172 C 26.57608413696289 96.92412567138672 21.12178421020508 93.24662780761719 16.43754005432129 88.56240081787109 C 11.75331211090088 83.87815856933594 8.075812339782715 78.42385864257812 5.507212162017822 72.35099792480469 C 2.848226547241211 66.06443023681641 1.499998092651367 59.38558197021484 1.499998092651367 52.49996948242188 C 1.499998092651367 45.61435699462891 2.848226547241211 38.93551254272461 5.507212162017822 32.64894104003906 C 8.075812339782715 26.57608413696289 11.75331211090088 21.12178421020508 16.43754005432129 16.43754005432129 C 21.12178421020508 11.75331211090088 26.57608413696289 8.075812339782715 32.64894104003906 5.507212162017822 C 38.93551254272461 2.848226547241211 45.61435699462891 1.499998092651367 52.49996948242188 1.499998092651367 C 59.38558197021484 1.499998092651367 66.06443023681641 2.848226547241211 72.35099792480469 5.507212162017822 C 78.42385864257812 8.075812339782715 83.87815856933594 11.75331211090088 88.56240081787109 16.43754005432129 C 93.24662780761719 21.12178421020508 96.92412567138672 26.57608413696289 99.49272918701172 32.64894104003906 C 102.1517105102539 38.93551254272461 103.4999389648438 45.61435699462891 103.4999389648438 52.49996948242188 C 103.4999389648438 59.38558197021484 102.1517105102539 66.06443023681641 99.49272918701172 72.35099792480469 C 96.92412567138672 78.42385864257812 93.24662780761719 83.87815856933594 88.56240081787109 88.56240081787109 C 83.87815856933594 93.24662780761719 78.42385864257812 96.92412567138672 72.35099792480469 99.49272918701172 C 66.06443023681641 102.1517105102539 59.38558197021484 103.4999389648438 52.49996948242188 103.4999389648438 Z" stroke="none"/>
                          <path d="M 52.49996948242188 3 C 45.81618499755859 3 39.33393859863281 4.308349609375 33.23326873779297 6.888717651367188 C 27.33920288085938 9.381706237792969 22.045166015625 12.95125579833984 17.49819946289062 17.49819946289062 C 12.95125579833984 22.045166015625 9.381706237792969 27.33920288085938 6.888717651367188 33.23326873779297 C 4.308349609375 39.33393859863281 3 45.81618499755859 3 52.49996948242188 C 3 59.18375396728516 4.308349609375 65.66600036621094 6.888717651367188 71.76667022705078 C 9.381706237792969 77.66073608398438 12.95125579833984 82.95477294921875 17.49819946289062 87.50173950195312 C 22.045166015625 92.04868316650391 27.33920288085938 95.61824035644531 33.23326873779297 98.11122131347656 C 39.33393859863281 100.6915893554688 45.81618499755859 101.9999389648438 52.49996948242188 101.9999389648438 C 59.18375396728516 101.9999389648438 65.66600036621094 100.6915893554688 71.76667022705078 98.11122131347656 C 77.66073608398438 95.61824035644531 82.95477294921875 92.04868316650391 87.50173950195312 87.50173950195312 C 92.04868316650391 82.95477294921875 95.61824035644531 77.66073608398438 98.11122131347656 71.76667022705078 C 100.6915893554688 65.66600036621094 101.9999389648438 59.18375396728516 101.9999389648438 52.49996948242188 C 101.9999389648438 45.81618499755859 100.6915893554688 39.33393859863281 98.11122131347656 33.23326873779297 C 95.61824035644531 27.33920288085938 92.04868316650391 22.045166015625 87.50173950195312 17.49819946289062 C 82.95477294921875 12.95125579833984 77.66073608398438 9.381706237792969 71.76667022705078 6.888717651367188 C 65.66600036621094 4.308349609375 59.18375396728516 3 52.49996948242188 3 M 52.49996948242188 0 C 81.49490356445312 0 104.9999389648438 23.50503540039062 104.9999389648438 52.49996948242188 C 104.9999389648438 81.49490356445312 81.49490356445312 104.9999389648438 52.49996948242188 104.9999389648438 C 23.50503540039062 104.9999389648438 0 81.49490356445312 0 52.49996948242188 C 0 23.50503540039062 23.50503540039062 0 52.49996948242188 0 Z" stroke="none" fill="#f5b104"/>
                        </g>
                      </g>
                    </g>
                  </g>
                </g>
              </g>
            </g>
          </g>
        </g>
      </g>
    </g>
    <g id="problem_1935827" transform="translate(767.064 2803.814)">
      <g id="Grupo_1223319" data-name="Grupo 1223319" transform="translate(39.304 35.163)">
        <path id="Trazado_1057778" data-name="Trazado 1057778" d="M62.212,34V62.987H56V34Z" transform="translate(-37.365 -34)" fill="#ff826e"/>
        <path id="Trazado_1057779" data-name="Trazado 1057779" d="M50.212,42V62.705H44V42Z" transform="translate(-37.788 -33.718)" fill="#ff826e"/>
        <path id="Trazado_1057780" data-name="Trazado 1057780" d="M56.212,38V62.846H50V38Z" transform="translate(-37.577 -33.859)" fill="#ff826e"/>
        <path id="Trazado_1057781" data-name="Trazado 1057781" d="M38,46h6.212V62.564H38Z" transform="translate(-38 -33.577)" fill="#ff826e"/>
      </g>
      <path id="Trazado_1057782" data-name="Trazado 1057782" d="M25.811,62.6H2V58.458A14.5,14.5,0,0,1,11.121,45a6.224,6.224,0,0,0,3.913,2.93l-1.646,7.423,3.106,3.106L19.6,55.353,17.953,47.93a6.115,6.115,0,0,0,2.93-1.646A5.955,5.955,0,0,0,21.867,45a13.6,13.6,0,0,1,1.946.963,14.476,14.476,0,0,1,7.174,12.5V62.6Z" transform="translate(0.035 1.551)" fill="#b4dd7f"/>
      <path id="Trazado_1057783" data-name="Trazado 1057783" d="M17.565,47.83l1.646,7.423-3.106,3.106L13,55.253l1.646-7.423a6.142,6.142,0,0,0,2.919,0Z" transform="translate(0.423 1.651)" fill="#e6e9ed"/>
      <path id="Trazado_1057784" data-name="Trazado 1057784" d="M22.423,41v1.035a6.091,6.091,0,0,1-.839,3.106,5.955,5.955,0,0,1-.983,1.284,6.186,6.186,0,0,1-5.849,1.646,6.224,6.224,0,0,1-3.913-2.93A6.064,6.064,0,0,1,10,42.035V41H22.423Z" transform="translate(0.317 1.41)" fill="#cf9e76"/>
      <path id="Trazado_1057785" data-name="Trazado 1057785" d="M16.352,41.67H10.141L7.894,38.316A10.351,10.351,0,1,1,26.7,32.352a9.612,9.612,0,0,1-.062,1.1,10.187,10.187,0,0,1-1.895,4.938L22.564,41.67Z" transform="translate(0.176 0.74)" fill="#ffeaa7"/>
      <ellipse id="Elipse_12586" data-name="Elipse 12586" cx="3.5" cy="3" rx="3.5" ry="3" transform="translate(13 30.186)" fill="#fcd770"/>
      <path id="Trazado_1057786" data-name="Trazado 1057786" d="M21.19,45.67a6.091,6.091,0,0,0,.839-3.106V41.529l2.184-3.282a10.187,10.187,0,0,0,1.895-4.938L33.416,26l1.035,1.035,3.106,3.106,1.035,1.035L23.136,46.633A13.6,13.6,0,0,0,21.19,45.67Z" transform="translate(0.712 0.881)" fill="#969faa"/>
      <path id="Trazado_1057787" data-name="Trazado 1057787" d="M39.922,27.386,37.106,30.2,34,27.1l2.816-2.816A14.253,14.253,0,0,0,39.922,27.386Z" transform="translate(1.163 0.821)" fill="#fcd770"/>
      <path id="Trazado_1057788" data-name="Trazado 1057788" d="M39.922,28.171a14.253,14.253,0,0,1-3.106-3.106,14.513,14.513,0,1,1,3.106,3.106Z" transform="translate(1.163 0.035)" fill="#e6e9ed"/>
      <circle id="Elipse_12587" data-name="Elipse 12587" cx="10.5" cy="10.5" r="10.5" transform="translate(39 6.186)" fill="#69d6f4"/>
      <path id="Trazado_1057789" data-name="Trazado 1057789" d="M25.492,47.335,40.768,32.058l-1.035-1.035,1.479-1.479a15.568,15.568,0,1,0-4.57-4.57l-1.479,1.479-1.035-1.035-6.3,6.3A11.383,11.383,0,1,0,7.215,39.633l2.067,3.092v.721a7.2,7.2,0,0,0,.489,2.594A15.442,15.442,0,0,0,1,60.01v5.176H32.058V60.01a15.432,15.432,0,0,0-6.566-12.675ZM18.5,56.574l-1.971,1.972-1.971-1.972,1.314-5.914c.217.02.436.033.657.033s.44-.013.657-.033Zm-1.971-7.952a5.182,5.182,0,0,1-5.176-5.176H21.705A5.182,5.182,0,0,1,16.529,48.622Zm0-13.458A2.071,2.071,0,1,1,18.6,33.093,2.073,2.073,0,0,1,16.529,35.163ZM49.657,3.071A13.458,13.458,0,1,1,36.2,16.529,13.474,13.474,0,0,1,49.657,3.071ZM37.9,26.644a15.76,15.76,0,0,0,1.642,1.642l-1.272,1.272-1.642-1.642Zm-.059,5.413L23.664,46.234c-.125-.065-.249-.133-.377-.195a7.2,7.2,0,0,0,.489-2.594v-.722l1.993-2.988A11.25,11.25,0,0,0,27.8,34.672l6.326-6.326ZM8.92,38.459a9.307,9.307,0,0,1,6.518-14.62,9.686,9.686,0,0,1,1.1-.063,9.205,9.205,0,0,1,6.192,2.367,9.3,9.3,0,0,1,1.334,12.413l-1.881,2.82H17.564V37.087a4.141,4.141,0,1,0-2.071,0v4.288H10.87ZM29.987,63.115H26.881V54.833H24.811v8.282H8.247V54.833H6.176v8.282H3.071V60.01a13.38,13.38,0,0,1,7.719-12.158,7.264,7.264,0,0,0,3.068,2.323l-1.568,7.059,4.239,4.239,4.24-4.239L19.2,50.175a7.271,7.271,0,0,0,3.068-2.324A13.384,13.384,0,0,1,29.987,60.01Z"/>
      <path id="Trazado_1057790" data-name="Trazado 1057790" d="M48.388,27.776A11.388,11.388,0,1,0,37,16.388,11.4,11.4,0,0,0,48.388,27.776Zm0-20.705a9.317,9.317,0,1,1-9.317,9.317A9.327,9.327,0,0,1,48.388,7.071Z" transform="translate(1.269 0.141)"/>
      <path id="Trazado_1057791" data-name="Trazado 1057791" d="M46.071,12.963a1.9,1.9,0,0,1,1.892-1.892h.356A1.893,1.893,0,0,1,49.658,14.3l-2.552,2.552v2.5h2.071V17.711l1.945-1.945A3.963,3.963,0,0,0,48.319,9h-.356A3.968,3.968,0,0,0,44,12.963v1.213h2.071Z" transform="translate(1.516 0.282)"/>
      <path id="Trazado_1057792" data-name="Trazado 1057792" d="M47,21h2.071v2.071H47Z" transform="translate(1.622 0.705)"/>
      <path id="Trazado_1057793" data-name="Trazado 1057793" d="M55.635,37.141H49.423v4.141H43.212v4.141H37V64.058H63.917V33H55.635Zm-6.212,6.212V61.987H45.282V43.353ZM39.071,47.494h4.141V61.987H39.071ZM51.494,61.987V39.212h4.141V61.987Zm6.212-26.917h4.141V61.987H57.705Z" transform="translate(1.269 1.128)"/>
      <path id="Trazado_1057794" data-name="Trazado 1057794" d="M15,13h2.071v6.212H15Z" transform="translate(0.494 0.423)"/>
      <path id="Trazado_1057795" data-name="Trazado 1057795" d="M0,0H2.071V6.212H0Z" transform="translate(1.884 19.917) rotate(-45)"/>
      <path id="Trazado_1057796" data-name="Trazado 1057796" d="M0,0H6.21V2.071H0Z" transform="translate(25.309 22.846) rotate(-45)"/>
    </g>
  </g>
</svg>
