<svg xmlns="http://www.w3.org/2000/svg" xmlns:xlink="http://www.w3.org/1999/xlink" width="108" height="108" viewBox="0 0 108 108">
  <defs>
    <filter id="Trazado_904820" x="0" y="0" width="108" height="108" filterUnits="userSpaceOnUse">
      <feOffset dy="3" input="SourceAlpha"/>
      <feGaussianBlur stdDeviation="3" result="blur"/>
      <feFlood flood-opacity="0.161"/>
      <feComposite operator="in" in2="blur"/>
      <feComposite in="SourceGraphic"/>
    </filter>
  </defs>
  <g id="Grupo_1223325" data-name="Grupo 1223325" transform="translate(-191.828 -3350.781)">
    <g id="Grupo_1223271" data-name="Grupo 1223271" transform="translate(200.828 3356.781)">
      <g id="Grupo_1173585" data-name="Grupo 1173585" transform="translate(0 0)">
        <g id="Grupo_1173428" data-name="Grupo 1173428">
          <g id="Grupo_1171958" data-name="Grupo 1171958">
            <g id="Grupo_1167341" data-name="Grupo 1167341">
              <g id="Grupo_1166792" data-name="Grupo 1166792">
                <g transform="matrix(1, 0, 0, 1, -9, -6)" filter="url(#Trazado_904820)">
                  <g id="Trazado_904820-2" data-name="Trazado 904820" transform="translate(9 6)" fill="#efecfa">
                    <path d="M 44.99999618530273 88.50002288818359 C 39.12687301635742 88.50002288818359 33.43022155761719 87.35009765625 28.06829643249512 85.08218383789062 C 22.88852119445801 82.89133453369141 18.23629570007324 79.75460815429688 14.24084663391113 75.75916290283203 C 10.24540901184082 71.76371002197266 7.108683586120605 67.11148834228516 4.917821407318115 61.93171310424805 C 2.649921178817749 56.56978607177734 1.499996185302734 50.87313461303711 1.499996185302734 45.0000114440918 C 1.499996185302734 39.12688827514648 2.649921178817749 33.43023681640625 4.917821407318115 28.06829833984375 C 7.108683586120605 22.88852310180664 10.24540901184082 18.2363109588623 14.24084663391113 14.2408618927002 C 18.23629570007324 10.24541187286377 22.88852119445801 7.108686447143555 28.06829643249512 4.917823791503906 C 33.43022155761719 2.649924039840698 39.12687301635742 1.499998927116394 44.99999618530273 1.499998927116394 C 50.87311935424805 1.499998927116394 56.56977081298828 2.649924039840698 61.93169784545898 4.917823791503906 C 67.11147308349609 7.108686447143555 71.76369476318359 10.24541187286377 75.75914764404297 14.2408618927002 C 79.75458526611328 18.2363109588623 82.89131164550781 22.88852310180664 85.08216857910156 28.06829833984375 C 87.35007476806641 33.43023681640625 88.5 39.12688827514648 88.5 45.0000114440918 C 88.5 50.87313461303711 87.35007476806641 56.56978607177734 85.08216857910156 61.93171310424805 C 82.89131164550781 67.11148834228516 79.75458526611328 71.76371002197266 75.75914764404297 75.75916290283203 C 71.76369476318359 79.75460815429688 67.11147308349609 82.89133453369141 61.93169784545898 85.08218383789062 C 56.56977081298828 87.35009765625 50.87311935424805 88.50002288818359 44.99999618530273 88.50002288818359 Z" stroke="none"/>
                    <path d="M 44.99999618530273 3 C 39.32870864868164 3 33.82865142822266 4.110054016113281 28.65262603759766 6.299339294433594 C 23.65165710449219 8.414566040039062 19.15968322753906 11.44333648681641 15.301513671875 15.30152893066406 C 11.44333648681641 19.15969848632812 8.414566040039062 23.65165710449219 6.299339294433594 28.65264129638672 C 4.110054016113281 33.82866668701172 2.999992370605469 39.3287239074707 2.999992370605469 45.0000114440918 C 2.999992370605469 50.67129898071289 4.110054016113281 56.17135620117188 6.299339294433594 61.34738159179688 C 8.414566040039062 66.34836578369141 11.44333648681641 70.84032440185547 15.301513671875 74.69849395751953 C 19.15968322753906 78.55668640136719 23.65165710449219 81.58545684814453 28.65262603759766 83.70068359375 C 33.82865142822266 85.88996887207031 39.32870864868164 87.00002288818359 44.99999618530273 87.00002288818359 C 50.67128372192383 87.00002288818359 56.17134094238281 85.88996887207031 61.34736633300781 83.70068359375 C 66.34834289550781 81.58545684814453 70.84030914306641 78.55668640136719 74.69847869873047 74.69849395751953 C 78.55665588378906 70.84032440185547 81.58542633056641 66.34836578369141 83.70065307617188 61.34738159179688 C 85.88993835449219 56.17135620117188 87 50.67129898071289 87 45.0000114440918 C 87 39.3287239074707 85.88993835449219 33.82866668701172 83.70065307617188 28.65264129638672 C 81.58542633056641 23.65165710449219 78.55665588378906 19.15969848632812 74.69847869873047 15.30152893066406 C 70.84030914306641 11.44333648681641 66.34834289550781 8.414566040039062 61.34736633300781 6.299339294433594 C 56.17134094238281 4.110054016113281 50.67128372192383 3 44.99999618530273 3 M 44.99999618530273 0 C 69.85281372070312 0 90 20.14719390869141 90 45.0000114440918 C 90 69.85282897949219 69.85281372070312 90.00002288818359 44.99999618530273 90.00002288818359 C 20.14717864990234 90.00002288818359 -7.62939453125e-06 69.85282897949219 -7.62939453125e-06 45.0000114440918 C -7.62939453125e-06 20.14719390869141 20.14717864990234 0 44.99999618530273 0 Z" stroke="none" fill="#6c4dd8"/>
                  </g>
                </g>
              </g>
            </g>
          </g>
        </g>
      </g>
    </g>
    <g id="crisis-management_18508888_1_" data-name="crisis-management_18508888 (1)" transform="translate(203.531 3358.862)">
      <g id="Grupo_1223324" data-name="Grupo 1223324" transform="translate(18.52 16)">
        <path id="Trazado_1057815" data-name="Trazado 1057815" d="M59.521,24.3a.718.718,0,0,1,.218.519V42.247a.886.886,0,0,1,.757.214l.87.87a.711.711,0,0,1,.21.506v1.4a10.011,10.011,0,0,1,2.554,1.06l.994-.993a.711.711,0,0,1,.506-.21h1.234a.72.72,0,0,1,.511.214l1.357,1.358a.716.716,0,0,1,.21.506V48.41a.716.716,0,0,1-.214.511l-.989.988A10.005,10.005,0,0,1,68.8,52.465h1.4a.713.713,0,0,1,.51.214l.87.87a.711.711,0,0,1,.21.506v1.926a.719.719,0,0,1-.214.511l-.872.87a.716.716,0,0,1-.506.21H68.8a10.038,10.038,0,0,1-1.061,2.554l.994.994a.716.716,0,0,1,.21.506V62.86a.714.714,0,0,1-.214.511l-1.357,1.357a.713.713,0,0,1-.507.21H65.628a.713.713,0,0,1-.506-.214l-.989-.988a10.052,10.052,0,0,1-2.56,1.055v1.4a.72.72,0,0,1-.214.511l-.872.87c-.25.25-.52.21-.847.21a2.77,2.77,0,0,1-2.668,2.054H21.284a2.768,2.768,0,0,1-2.764-2.764V18.766A2.768,2.768,0,0,1,21.284,16H50.927a.711.711,0,0,1,.511.224Z" transform="translate(-18.52 -16)" fill-rule="evenodd"/>
        <path id="Trazado_1057816" data-name="Trazado 1057816" d="M336.035,317.468a.717.717,0,1,1,1.432,0V322.3a.717.717,0,1,1-1.432,0Zm0,7.057a.717.717,0,1,1,.206.513A.717.717,0,0,1,336.035,324.525Zm.717,1.889A5.412,5.412,0,1,0,331.34,321a5.412,5.412,0,0,0,5.412,5.412Z" transform="translate(-296.253 -281.987)" fill="#67aaf3" fill-rule="evenodd"/>
        <path id="Trazado_1057817" data-name="Trazado 1057817" d="M294.651,278.9a6.842,6.842,0,1,1,0-9.68A6.842,6.842,0,0,1,294.651,278.9Zm-12.083-9.613a8.719,8.719,0,0,0-1.254,3.041.717.717,0,0,1-.709.609h-1.679l-.455.455v1.333l.455.454H280.6a.717.717,0,0,1,.709.61,8.59,8.59,0,0,0,1.258,3.04.717.717,0,0,1-.057.949l-1.189,1.186v.644l.941.942h.642l1.188-1.182a.716.716,0,0,1,.949-.056,8.706,8.706,0,0,0,1.453.766,8.524,8.524,0,0,0,1.587.483.718.718,0,0,1,.61.709v1.676l.455.454h1.331l.455-.454v-1.671a.718.718,0,0,1,.61-.709,8.524,8.524,0,0,0,1.587-.483,8.7,8.7,0,0,0,1.453-.769.716.716,0,0,1,.949.056l1.186,1.186h.644l.941-.942v-.648l-1.184-1.186a.717.717,0,0,1-.057-.949,8.589,8.589,0,0,0,1.254-3.04.717.717,0,0,1,.709-.61H300.7l.455-.454V273.4l-.455-.455h-1.675a.717.717,0,0,1-.709-.609,8.606,8.606,0,0,0-1.254-3.041.717.717,0,0,1,.057-.949l1.184-1.184v-.644l-.941-.942h-.644l-1.186,1.184a.716.716,0,0,1-.949.057,8.625,8.625,0,0,0-1.453-.769,8.532,8.532,0,0,0-1.589-.488.717.717,0,0,1-.61-.709v-1.671l-.455-.455h-1.329l-.455.455v1.675a.717.717,0,0,1-.61.709,8.532,8.532,0,0,0-1.587.485,8.624,8.624,0,0,0-1.453.769.716.716,0,0,1-.949-.057l-1.188-1.184h-.644l-.941.942v.644l1.184,1.184A.717.717,0,0,1,282.567,269.291Z" transform="translate(-249.313 -235.047)" fill="#378fef" fill-rule="evenodd"/>
        <path id="Trazado_1057818" data-name="Trazado 1057818" d="M313.83,37.83v4.647a1,1,0,0,0,1,1h4.648Z" transform="translate(-280.707 -35.381)" fill="#919091" fill-rule="evenodd"/>
        <path id="Trazado_1057819" data-name="Trazado 1057819" d="M69.649,36.892H63.988a2.436,2.436,0,0,1-2.431-2.432V28.8H32.63a1.334,1.334,0,0,0-1.33,1.33V78.437a1.334,1.334,0,0,0,1.33,1.33H68.319a1.33,1.33,0,0,0,1.122-.614.716.716,0,0,1-.546-.214l-.87-.87a.713.713,0,0,1-.21-.507V76.156A10.051,10.051,0,0,1,65.252,75.1l-.994.993a.711.711,0,0,1-.506.21H62.519a.714.714,0,0,1-.511-.214l-1.354-1.357a.718.718,0,0,1-.21-.507V72.991a.713.713,0,0,1,.21-.514l.989-.989a10.038,10.038,0,0,1-1.061-2.554h-1.4a.713.713,0,0,1-.51-.214l-.87-.87a.713.713,0,0,1-.21-.507V65.416a.718.718,0,0,1,.214-.51l.87-.87a.716.716,0,0,1,.507-.21h1.4a10.005,10.005,0,0,1,1.061-2.555l-.99-.993a.718.718,0,0,1-.21-.507V58.537a.713.713,0,0,1,.214-.51l1.357-1.357a.713.713,0,0,1,.507-.21h1.234a.718.718,0,0,1,.51.214l.989.989A10.011,10.011,0,0,1,67.81,56.6V55.2a.718.718,0,0,1,.214-.51l.87-.87a.9.9,0,0,1,.754-.21V36.893ZM63.57,43.142h1.643A2.388,2.388,0,0,1,67.6,45.525v5a2.317,2.317,0,0,1-1.878,2.308l-.164,2.043a.714.714,0,0,1-1.19.473l-2.7-2.442H55.67a2.389,2.389,0,0,1-2.281-1.7l-.9.81a.714.714,0,0,1-1.19-.473l-.164-2.043A2.314,2.314,0,0,1,49.261,47.2v-5a2.387,2.387,0,0,1,2.382-2.382h9.544A2.388,2.388,0,0,1,63.57,42.2ZM48.865,36.9a.715.715,0,0,1,.93,1.086l-1.907,1.638a.712.712,0,0,1-1.076-.173L45.39,37.438a.713.713,0,0,1,1.164-.822l.441.624A5.4,5.4,0,0,0,37.779,33.4a.717.717,0,0,1-1.009-1.009,6.831,6.831,0,0,1,11.665,4.886Zm-14.538.642a.716.716,0,1,1-.93-1.09L35.3,34.812a.714.714,0,0,1,1.077.179L37.8,37a.713.713,0,0,1-1.164.823L36.2,37.2a5.394,5.394,0,0,0,9.214,3.836.717.717,0,0,1,1.009,1.009A6.831,6.831,0,0,1,34.76,37.16l-.439.377ZM51.263,65.388a.717.717,0,1,1-.118-1.428l1.727-.142-15.729-12.1a.715.715,0,0,1,.874-1.132l15.727,12.1-.305-1.709a.716.716,0,0,1,1.41-.247l.626,3.509a.716.716,0,0,1-.643.854ZM50.4,68.336H54.77a.717.717,0,0,1,.717.717v7.489a.717.717,0,0,1-.717.716H50.4a.717.717,0,0,1-.717-.716v-7.49a.717.717,0,0,1,.717-.717ZM42.6,61.308h4.374a.717.717,0,0,1,.716.717V76.541a.716.716,0,0,1-.716.716H42.6a.717.717,0,0,1-.717-.716V62.023a.717.717,0,0,1,.717-.717Zm-7.793-4.5h4.38a.717.717,0,0,1,.717.717V76.541a.717.717,0,0,1-.717.716h-4.38a.717.717,0,0,1-.717-.716V57.524a.717.717,0,0,1,.717-.717Z" transform="translate(-29.867 -27.364)" fill="#f2f2f2" fill-rule="evenodd"/>
      </g>
      <path id="Trazado_1057820" data-name="Trazado 1057820" d="M68.99,291.28h2.948v17.583H68.99Z" transform="translate(-44.809 -244.403)" fill="#0a5f80"/>
      <path id="Trazado_1057821" data-name="Trazado 1057821" d="M138.46,331.39h2.948v13.084H138.46Z" transform="translate(-106.487 -280.014)" fill="#f7ba2d"/>
      <path id="Trazado_1057822" data-name="Trazado 1057822" d="M207.94,394.05h2.948v6.056H207.94Z" transform="translate(-168.174 -335.646)" fill="#ef6262"/>
      <path id="Trazado_1057823" data-name="Trazado 1057823" d="M207.419,143.22a.717.717,0,1,1-.717-.717A.717.717,0,0,1,207.419,143.22Zm3.219,0a.717.717,0,1,1-.716-.717A.717.717,0,0,1,210.638,143.22Zm3.219,0a.717.717,0,1,1-.716-.717A.717.717,0,0,1,213.857,143.22Zm-6.876,4.512.919-.83a.712.712,0,0,1,.528-.233h6.266a.955.955,0,0,0,.95-.95v-5a.955.955,0,0,0-.95-.95H205.15a.955.955,0,0,0-.95.95v5c0,.648.5.95,1.11.95a.716.716,0,0,1,.713.659l.1,1.183Z" transform="translate(-164.853 -109.887)" fill="#f7ba2d" fill-rule="evenodd"/>
      <path id="Trazado_1057824" data-name="Trazado 1057824" d="M240.066,174.872c0,.471-.062.847.279,1.188a.948.948,0,0,0,.673.28h6.266a.709.709,0,0,1,.528.232l1.777,1.611.1-1.183a.716.716,0,0,1,.713-.66c.606,0,1.11-.3,1.11-.95v-5a.955.955,0,0,0-.95-.95h-1.642v2.621a2.389,2.389,0,0,1-2.383,2.383h-5.993Z" transform="translate(-196.692 -136.229)" fill="#f8c348" fill-rule="evenodd"/>
    </g>
  </g>
</svg>
