<svg xmlns="http://www.w3.org/2000/svg" xmlns:xlink="http://www.w3.org/1999/xlink" width="108" height="108" viewBox="0 0 108 108">
  <defs>
    <filter id="Trazado_904820" x="0" y="0" width="108" height="108" filterUnits="userSpaceOnUse">
      <feOffset dy="3" input="SourceAlpha"/>
      <feGaussianBlur stdDeviation="3" result="blur"/>
      <feFlood flood-opacity="0.161"/>
      <feComposite operator="in" in2="blur"/>
      <feComposite in="SourceGraphic"/>
    </filter>
  </defs>
  <g id="Grupo_1223327" data-name="Grupo 1223327" transform="translate(-821.828 -3350.781)">
    <g id="Grupo_1223272" data-name="Grupo 1223272" transform="translate(830.828 3356.781)">
      <g id="Grupo_1173585" data-name="Grupo 1173585" transform="translate(0 0)">
        <g id="Grupo_1173428" data-name="Grupo 1173428">
          <g id="Grupo_1171958" data-name="Grupo 1171958">
            <g id="Grupo_1167341" data-name="Grupo 1167341">
              <g id="Grupo_1166792" data-name="Grupo 1166792">
                <g transform="matrix(1, 0, 0, 1, -9, -6)" filter="url(#Trazado_904820)">
                  <g id="Trazado_904820-2" data-name="Trazado 904820" transform="translate(9 6)" fill="#efecfa">
                    <path d="M 44.99999618530273 88.50002288818359 C 39.12687301635742 88.50002288818359 33.43022155761719 87.35009765625 28.06829643249512 85.08218383789062 C 22.88852119445801 82.89133453369141 18.23629570007324 79.75460815429688 14.24084663391113 75.75916290283203 C 10.24540901184082 71.76371002197266 7.108683586120605 67.11148834228516 4.917821407318115 61.93171310424805 C 2.649921178817749 56.56978607177734 1.499996185302734 50.87313461303711 1.499996185302734 45.0000114440918 C 1.499996185302734 39.12688827514648 2.649921178817749 33.43023681640625 4.917821407318115 28.06829833984375 C 7.108683586120605 22.88852310180664 10.24540901184082 18.2363109588623 14.24084663391113 14.2408618927002 C 18.23629570007324 10.24541187286377 22.88852119445801 7.108686447143555 28.06829643249512 4.917823791503906 C 33.43022155761719 2.649924039840698 39.12687301635742 1.499998927116394 44.99999618530273 1.499998927116394 C 50.87311935424805 1.499998927116394 56.56977081298828 2.649924039840698 61.93169784545898 4.917823791503906 C 67.11147308349609 7.108686447143555 71.76369476318359 10.24541187286377 75.75914764404297 14.2408618927002 C 79.75458526611328 18.2363109588623 82.89131164550781 22.88852310180664 85.08216857910156 28.06829833984375 C 87.35007476806641 33.43023681640625 88.5 39.12688827514648 88.5 45.0000114440918 C 88.5 50.87313461303711 87.35007476806641 56.56978607177734 85.08216857910156 61.93171310424805 C 82.89131164550781 67.11148834228516 79.75458526611328 71.76371002197266 75.75914764404297 75.75916290283203 C 71.76369476318359 79.75460815429688 67.11147308349609 82.89133453369141 61.93169784545898 85.08218383789062 C 56.56977081298828 87.35009765625 50.87311935424805 88.50002288818359 44.99999618530273 88.50002288818359 Z" stroke="none"/>
                    <path d="M 44.99999618530273 3 C 39.32870864868164 3 33.82865142822266 4.110054016113281 28.65262603759766 6.299339294433594 C 23.65165710449219 8.414566040039062 19.15968322753906 11.44333648681641 15.301513671875 15.30152893066406 C 11.44333648681641 19.15969848632812 8.414566040039062 23.65165710449219 6.299339294433594 28.65264129638672 C 4.110054016113281 33.82866668701172 2.999992370605469 39.3287239074707 2.999992370605469 45.0000114440918 C 2.999992370605469 50.67129898071289 4.110054016113281 56.17135620117188 6.299339294433594 61.34738159179688 C 8.414566040039062 66.34836578369141 11.44333648681641 70.84032440185547 15.301513671875 74.69849395751953 C 19.15968322753906 78.55668640136719 23.65165710449219 81.58545684814453 28.65262603759766 83.70068359375 C 33.82865142822266 85.88996887207031 39.32870864868164 87.00002288818359 44.99999618530273 87.00002288818359 C 50.67128372192383 87.00002288818359 56.17134094238281 85.88996887207031 61.34736633300781 83.70068359375 C 66.34834289550781 81.58545684814453 70.84030914306641 78.55668640136719 74.69847869873047 74.69849395751953 C 78.55665588378906 70.84032440185547 81.58542633056641 66.34836578369141 83.70065307617188 61.34738159179688 C 85.88993835449219 56.17135620117188 87 50.67129898071289 87 45.0000114440918 C 87 39.3287239074707 85.88993835449219 33.82866668701172 83.70065307617188 28.65264129638672 C 81.58542633056641 23.65165710449219 78.55665588378906 19.15969848632812 74.69847869873047 15.30152893066406 C 70.84030914306641 11.44333648681641 66.34834289550781 8.414566040039062 61.34736633300781 6.299339294433594 C 56.17134094238281 4.110054016113281 50.67128372192383 3 44.99999618530273 3 M 44.99999618530273 0 C 69.85281372070312 0 90 20.14719390869141 90 45.0000114440918 C 90 69.85282897949219 69.85281372070312 90.00002288818359 44.99999618530273 90.00002288818359 C 20.14717864990234 90.00002288818359 -7.62939453125e-06 69.85282897949219 -7.62939453125e-06 45.0000114440918 C -7.62939453125e-06 20.14719390869141 20.14717864990234 0 44.99999618530273 0 Z" stroke="none" fill="#6c4dd8"/>
                  </g>
                </g>
              </g>
            </g>
          </g>
        </g>
      </g>
    </g>
    <g id="risk-analysis_11204897" transform="translate(828.579 3350.995)">
      <g id="Grupo_1223326" data-name="Grupo 1223326" transform="translate(16 24.216)">
        <path id="Trazado_1057825" data-name="Trazado 1057825" d="M75.141,34.678,75.13,52.74l3.134,5.43A1.75,1.75,0,0,1,76.75,60.8H75.141v3.817a4.385,4.385,0,0,1-4.378,4.378H48.023l.034,9.44a3.126,3.126,0,1,1-1.66,0l-.034-9.441H23.389a4.385,4.385,0,0,1-4.378-4.378V34.678h-1.6A1.41,1.41,0,0,1,16,33.27V31.1a1.41,1.41,0,0,1,1.408-1.408H46.07l.023-4.646a.83.83,0,0,1,1.66.007l-.023,4.64H76.744A1.41,1.41,0,0,1,78.153,31.1V33.27a1.41,1.41,0,0,1-1.408,1.408Z" transform="translate(-16 -24.216)" fill-rule="evenodd"/>
        <path id="Trazado_1057826" data-name="Trazado 1057826" d="M104.724,119.763v-15.2h-52.8V134.5a2.717,2.717,0,0,0,2.711,2.711h47.374a2.717,2.717,0,0,0,2.711-2.711v-3.817H91.458a1.749,1.749,0,0,1-1.514-2.623l8.271-14.329a1.747,1.747,0,0,1,3.028,0q1.748,3.012,3.481,6.032ZM74.849,106.922a.712.712,0,1,1,.6-1.289l2.441,1.142a.712.712,0,0,1,.359.988L77.11,110.2a.712.712,0,1,1-1.289-.6l.474-1.014-7.093,2.19-4.9,5.228s-.2.147-.218.156L58,119.01a.712.712,0,1,1-.6-1.289l5.956-2.788,4.941-5.268a.71.71,0,0,1,.332-.2L75.65,107.3Zm1.921,25.947v-19.4a.833.833,0,0,1,.833-.833h6.538a.833.833,0,0,1,.833.833v19.4h1.5a.833.833,0,1,1,0,1.667H53.962a.833.833,0,1,1,0-1.667H55.29V122.577a.833.833,0,0,1,.833-.833h6.538a.833.833,0,0,1,.833.833v10.292h2.419v-14.3a.833.833,0,0,1,.833-.833h6.537a.833.833,0,0,1,.833.833v14.3Z" transform="translate(-47.251 -94.104)" fill="#fff" fill-rule="evenodd"/>
        <path id="Trazado_1057827" data-name="Trazado 1057827" d="M361.878,179.335a.322.322,0,0,0-.561,0l-8.271,14.323a.321.321,0,0,0,.281.486h16.542a.319.319,0,0,0,.281-.483S362.568,180.527,361.878,179.335Zm-1,4.238a.714.714,0,1,1,1.429,0v5.268a.714.714,0,1,1-1.429,0Zm0,8.106a.714.714,0,0,1,1.429,0v.231a.714.714,0,0,1-1.429,0Z" transform="translate(-309.119 -158.994)" fill="#fdbc31" fill-rule="evenodd"/>
        <path id="Trazado_1057828" data-name="Trazado 1057828" d="M246.064,452.519a1.463,1.463,0,1,0,1.463,1.463,1.463,1.463,0,0,0-1.463-1.463Z" transform="translate(-214.835 -396.749)" fill="#999" fill-rule="evenodd"/>
      </g>
      <path id="Trazado_1057829" data-name="Trazado 1057829" d="M28.8,79.049h58.82V80.7H28.8Z" transform="translate(-11.13 -47.693)" fill="#999"/>
      <path id="Trazado_1057830" data-name="Trazado 1057830" d="M255.511,179.336h4.871V197.9h-4.871Z" transform="translate(-208.324 -134.922)" fill="#12b7ee"/>
      <path id="Trazado_1057831" data-name="Trazado 1057831" d="M172.132,218.509H177v13.466h-4.871Z" transform="translate(-135.802 -168.994)" fill="#30c3f0"/>
      <path id="Trazado_1057832" data-name="Trazado 1057832" d="M90.547,249.287h4.871v9.458H90.547Z" transform="translate(-64.84 -195.764)" fill="#69d6f4"/>
    </g>
  </g>
</svg>
